EBGaramond12-Regular.sfdir
StartChar: uni03DA
Encoding: 986 986 3200
Width: 742
Flags: HW
LayerCount: 3
Fore
SplineSet
532.905273438 599 m 0
 574.905273438 599 628.321289062 595.416992188 648.321289062 595.416992188 c 0
 678.321289062 595.416992188 698.905273438 626 708.905273438 626 c 0
 718.905273438 626 729.905273438 615 729.905273438 592 c 0
 729.905273438 563 707.904296875 538.5 668.905273438 525.5 c 0
 643.290039062 516.961914062 634.904296875 521.5 604.905273438 522.5 c 0
 395.018554688 529.49609375 152.830317091 545.984586209 148.905273438 176 c 0
 148 90.6666259766 195.950177795 56.1611776719 247.905273438 54 c 0
 304 51.6666259766 359.8046875 71.5166015625 413 76.6669921875 c 0
 443.999023438 79.66796875 505.905273438 61 505.905273438 0 c 0
 505.905273438 -97 406.98828125 -231 293.98828125 -228 c 0
 272.995678076 -227.442674252 240.98828125 -199 240.98828125 -179 c 0
 240.98828125 -161 250.040428318 -154.836769824 262.98828125 -156 c 0
 292.863103423 -158.683942645 366.138671875 -160.874023438 392 -138.333007812 c 0
 433.5859375 -102.086914062 437 -72.3798828125 437 -48.3330078125 c 0
 437 -30.3330078125 417.215820312 24.9912109375 357 14.6669921875 c 0
 322 8.666015625 257.000116658 -30.6663899185 183 -16.3330078125 c 0
 108.38671875 -1.880859375 58.8675921321 75.0985044067 55 151 c 0
 31 622 423.905273438 599 532.905273438 599 c 0
EndSplineSet
Substitution2: "c2sc subtable" uni03DB
EndChar
StartChar: alphatonos.ctsc
Encoding: 1115484 -1 3322
Width: 563
VWidth: 0
Flags: HW
LayerCount: 3
Fore
SplineSet
523 27 m 0
 534 25 546 19 546 9 c 0
 546 1 533 -3 526 -3 c 0
 487 -3 473 2 438 2 c 0
 403 2 382 -3 343 -3 c 0
 336 -3 323 1 323 9 c 0
 323 19 335 24 346 27 c 0
 374 34 385 36 385 58 c 0
 385 71 373 106 363 132 c 0
 361 138 358 139 344 139 c 2
 198 139 l 10
 190 139 186 136 182 127 c 0
 168 91 162 81 162 65 c 0
 162 39 179 33 199 27 c 0
 210 23 222 19 222 9 c 0
 222 1 209 -3 202 -3 c 0
 163 -3 156 2 121 2 c 0
 86 2 84 -3 45 -3 c 0
 38 -3 25 1 25 9 c 0
 25 19 37 23 48 26 c 0
 79 33 105 36 129 92 c 2
 245 360 l 2
 259 393 254 407 257 410 c 0
 266 419 290 444 296 451 c 0
 304 460 309 463 312 463 c 0
 316 463 317 460 319 454 c 2
 454 107 l 2
 467 73 483 35 523 27 c 0
272 337 m 0
 255 295 228 233 206 185 c 0
 202 176 207 175 219 175 c 2
 335 175 l 2
 345 175 346 175 343 185 c 0
 336 212 297 306 286 337 c 0
 280 352 278 352 272 337 c 0
48 284 m 0
 42 274 32 262 24 262 c 0
 15 262 15 266 15 275 c 0
 15 293 46 415 56 451 c 0
 59 463 73 469 81 469 c 0
 100 469 119 444 119 428 c 0
 119 418 69 320 48 284 c 0
EndSplineSet
Colour: ff
EndChar
StartChar: epsilontonos.ctsc
Encoding: 1115485 -1 3323
Width: 600
VWidth: 0
Flags: HW
LayerCount: 3
Fore
SplineSet
271 448 m 0
 359 448 456 451 502 451 c 0
 506 451 514 450 514 445 c 0
 516 394 524 366 524 353 c 0
 524 349 520 340 516 340 c 0
 511 340 502 346 497 358 c 0
 483 391 472 410 437 410 c 2
 340 410 l 2
 332 410 315 405 315 392 c 2
 315 268 l 2
 315 261 320 244 326 244 c 2
 405 244 l 2
 426 244 434 257 442 281 c 0
 444 288 450 298 457 298 c 0
 465 298 470 289 469 283 c 0
 468 267 466 243 466 228 c 0
 466 210 469 192 470 173 c 0
 471 167 466 156 460 156 c 8
 448 156 444 176 442 180 c 0
 436 201 421 205 410 207 c 0
 390 209 361 209 340 209 c 0
 321 209 315 210 315 191 c 2
 315 80 l 2
 315 44 318 39 348 39 c 2
 448 39 l 2
 489 39 518 68 531 97 c 0
 533 101 536 112 545 112 c 0
 554 112 555 102 555 96 c 1
 552 69 544 32 538 10 c 0
 537 4 528 -2 521 -2 c 8
 422 -2 337 3 268 3 c 0
 232 2 209 -3 170 -3 c 0
 163 -3 150 1 150 9 c 0
 150 19 163 23 174 25 c 0
 209 32 240 43 240 79 c 2
 240 352 l 2
 240 393 224 415 182 422 c 0
 170 424 158 431 158 441 c 0
 158 449 171 453 178 453 c 0
 217 453 236 448 271 448 c 0
48.75 267.5 m 0
 42.75 257.5 32.75 245.5 24.75 245.5 c 0
 15.75 245.5 15.75 249.5 15.75 258.5 c 0
 15.75 276.5 46.75 398.5 56.75 434.5 c 0
 59.75 446.5 73.75 452.5 81.75 452.5 c 0
 100.75 452.5 119.75 427.5 119.75 411.5 c 0
 119.75 401.5 69.75 303.5 48.75 267.5 c 0
EndSplineSet
Colour: ff
EndChar
StartChar: etatonos.ctsc
Encoding: 1115486 -1 3324
Width: 759
VWidth: 0
Flags: HW
LayerCount: 3
Fore
SplineSet
564 352 m 2
 564 391 548 415 506 422 c 0
 494 424 482 431 482 441 c 0
 482 449 495 453 502 453 c 0
 541 453 566 448 602 448 c 0
 637 448 662 453 701 453 c 0
 708 453 721 449 721 441 c 0
 721 431 709 424 697 422 c 0
 655 415 639 391 639 352 c 2
 639 79 l 2
 639 43 670 32 705 25 c 0
 716 23 729 19 729 9 c 0
 729 1 716 -3 709 -3 c 0
 670 -3 644 3 602 3 c 24
 560 3 533 -3 494 -3 c 0
 487 -3 474 1 474 9 c 0
 474 19 487 23 498 25 c 0
 533 32 564 43 564 79 c 2
 564 211 l 2
 564 216 562 216 560 216 c 16
 507 217 475 218 433 218 c 0
 398 218 362 217 317 216 c 8
 314 216 314 214 314 209 c 2
 314 79 l 2
 314 43 345 32 380 25 c 0
 391 23 404 19 404 9 c 0
 404 1 391 -3 384 -3 c 0
 345 -3 319 3 277 3 c 24
 235 3 208 -3 169 -3 c 0
 162 -3 149 1 149 9 c 0
 149 19 162 23 173 25 c 0
 208 32 239 43 239 79 c 2
 239 352 l 2
 239 392 223 415 181 422 c 0
 169 424 157 431 157 441 c 0
 157 449 170 453 177 453 c 0
 216 453 241 448 277 448 c 0
 312 448 337 453 376 453 c 0
 383 453 396 449 396 441 c 0
 396 431 384 424 372 422 c 0
 330 415 314 392 314 352 c 2
 314 259 l 2
 314 254 319 253 324 253 c 16
 375 252 396 251 436 251 c 0
 470 251 515 252 559 253 c 8
 563 253 564 255 564 261 c 2
 564 352 l 2
52.75 267.5 m 0
 46.75 257.5 36.75 245.5 28.75 245.5 c 0
 19.75 245.5 19.75 249.5 19.75 258.5 c 0
 19.75 276.5 50.75 398.5 60.75 434.5 c 0
 63.75 446.5 77.75 452.5 85.75 452.5 c 0
 104.75 452.5 123.75 427.5 123.75 411.5 c 0
 123.75 401.5 73.75 303.5 52.75 267.5 c 0
EndSplineSet
Colour: ff
EndChar
StartChar: iotatonos.ctsc
Encoding: 1115487 -1 3325
Width: 436
VWidth: 0
Flags: HW
LayerCount: 3
Fore
SplineSet
280 3 m 24
 238 3 211 -3 172 -3 c 0
 165 -3 152 1 152 9 c 0
 152 19 165 23 176 25 c 0
 211 32 242 43 242 79 c 2
 242 352 l 2
 242 393 226 415 184 422 c 0
 172 424 160 431 160 441 c 0
 160 449 173 453 180 453 c 0
 219 453 244 448 280 448 c 0
 315 448 340 453 379 453 c 0
 386 453 399 449 399 441 c 0
 399 431 387 424 375 422 c 0
 333 415 317 393 317 352 c 2
 317 79 l 2
 317 43 348 32 383 25 c 0
 394 23 407 19 407 9 c 0
 407 1 394 -3 387 -3 c 0
 348 -3 322 3 280 3 c 24
57.75 265.5 m 0
 51.75 255.5 41.75 243.5 33.75 243.5 c 0
 24.75 243.5 24.75 247.5 24.75 256.5 c 0
 24.75 274.5 55.75 396.5 65.75 432.5 c 0
 68.75 444.5 82.75 450.5 90.75 450.5 c 0
 109.75 450.5 128.75 425.5 128.75 409.5 c 0
 128.75 399.5 78.75 301.5 57.75 265.5 c 0
EndSplineSet
Colour: ff
EndChar
StartChar: omegatonos.ctsc
Encoding: 1115490 -1 3328
Width: 721
VWidth: 0
Flags: HW
LayerCount: 3
Fore
SplineSet
274 73 m 0
 197 118 149 167 149 252 c 0
 149 378 270 464 396 464 c 0
 516 464 635 384 635 264 c 0
 635 173 581 115 508 73 c 0
 502 69 499 61 505 61 c 2
 582 61 l 2
 617 61 632 74 647 96 c 0
 654 105 660 118 670 118 c 0
 674 118 677 115 677 111 c 0
 677 78 662 22 655 8 c 0
 652 2 652 -4 645 -4 c 0
 624 -4 608 0 588 0 c 2
 445 0 l 2
 441 0 439 3 439 7 c 0
 439 26 450 56 459 62 c 0
 499 91 547 166 547 245 c 16
 547 340 483 435 388 435 c 0
 299 435 237 347 237 258 c 8
 237 172 260 111 328 58 c 0
 337 51 341 23 344 7 c 0
 345 4 344 0 339 0 c 2
 195 0 l 2
 175 0 159 -4 138 -4 c 0
 131 -4 130 1 128 8 c 0
 123 29 107 77 107 112 c 0
 107 116 109 119 113 119 c 0
 123 119 125 110 132 101 c 0
 147 79 155 61 191 61 c 2
 273 61 l 2
 278 61 280 69 274 73 c 0
52 282 m 0
 46 272 36 260 28 260 c 0
 19 260 19 264 19 273 c 0
 19 291 50 413 60 449 c 0
 63 461 77 467 85 467 c 0
 104 467 123 442 123 426 c 0
 123 416 73 318 52 282 c 0
EndSplineSet
Colour: ff
EndChar
StartChar: omicrontonos.ctsc
Encoding: 1115488 -1 3326
Width: 616
VWidth: 0
Flags: HW
LayerCount: 3
Fore
SplineSet
296 426 m 0
 202 426 150 332 150 237 c 0
 150 120 206 22 318 22 c 0
 433 22 466 138 466 217 c 0
 466 318 400 426 296 426 c 0
60 222 m 0
 60 342 175 458 302 458 c 0
 433 458 556 360 556 226 c 0
 556 103 466 -14 302 -14 c 0
 169 -14 60 93 60 222 c 0
-27 281 m 4
 -33 271 -43 259 -51 259 c 4
 -60 259 -60 263 -60 272 c 4
 -60 290 -29 412 -19 448 c 4
 -16 460 -2 466 6 466 c 4
 25 466 44 441 44 425 c 4
 44 415 -6 317 -27 281 c 4
EndSplineSet
Colour: ff
EndChar
StartChar: uni1F00.ctsc
Encoding: 1115363 -1 3201
Width: 575
VWidth: 0
Flags: HW
LayerCount: 3
Fore
SplineSet
535 27 m 0
 546 25 558 19 558 9 c 0
 558 1 545 -3 538 -3 c 0
 499 -3 485 2 450 2 c 0
 415 2 394 -3 355 -3 c 0
 348 -3 335 1 335 9 c 0
 335 19 347 24 358 27 c 0
 386 34 397 36 397 58 c 0
 397 71 385 106 375 132 c 0
 373 138 370 139 356 139 c 2
 210 139 l 10
 202 139 198 136 194 127 c 0
 180 91 174 81 174 65 c 0
 174 39 191 33 211 27 c 0
 222 23 234 19 234 9 c 0
 234 1 221 -3 214 -3 c 0
 175 -3 168 2 133 2 c 0
 98 2 96 -3 57 -3 c 0
 50 -3 37 1 37 9 c 0
 37 19 49 23 60 26 c 0
 91 33 117 36 141 92 c 2
 257 360 l 2
 271 393 266 407 269 410 c 0
 278 419 302 444 308 451 c 0
 316 460 321 463 324 463 c 0
 328 463 329 460 331 454 c 2
 466 107 l 2
 479 73 495 35 535 27 c 0
284 337 m 0
 267 295 240 233 218 185 c 0
 214 176 219 175 231 175 c 2
 347 175 l 2
 357 175 358 175 355 185 c 0
 348 212 309 306 298 337 c 0
 292 352 290 352 284 337 c 0
63.5 390 m 0
 40.5 394 21.5 407 21.5 430 c 0
 21.5 453 44.5 468 68.5 468 c 0
 115.5 468 141.5 419 141.5 371 c 0
 141.5 318 97.5 274 45.5 274 c 0
 32.5 274 25.5 279 25.5 284 c 0
 25.5 291 34.5 294 42.5 298 c 0
 69.5 311 89.5 329 89.5 358 c 0
 89.5 374 79.5 387 63.5 390 c 0
EndSplineSet
Colour: ff00
EndChar
StartChar: uni1F01.ctsc
Encoding: 1115364 -1 3202
Width: 572
VWidth: 0
Flags: HW
LayerCount: 3
Fore
SplineSet
533 27 m 0
 544 25 556 19 556 9 c 0
 556 1 543 -3 536 -3 c 0
 497 -3 483 2 448 2 c 0
 413 2 392 -3 353 -3 c 0
 346 -3 333 1 333 9 c 0
 333 19 345 24 356 27 c 0
 384 34 395 36 395 58 c 0
 395 71 383 106 373 132 c 0
 371 138 368 139 354 139 c 2
 208 139 l 10
 200 139 196 136 192 127 c 0
 178 91 172 81 172 65 c 0
 172 39 189 33 209 27 c 0
 220 23 232 19 232 9 c 0
 232 1 219 -3 212 -3 c 0
 173 -3 166 2 131 2 c 0
 96 2 94 -3 55 -3 c 0
 48 -3 35 1 35 9 c 0
 35 19 47 23 58 26 c 0
 89 33 115 36 139 92 c 2
 255 360 l 2
 269 393 264 407 267 410 c 0
 276 419 300 444 306 451 c 0
 314 460 319 463 322 463 c 0
 326 463 327 460 329 454 c 2
 464 107 l 2
 477 73 493 35 533 27 c 0
282 337 m 0
 265 295 238 233 216 185 c 0
 212 176 217 175 229 175 c 2
 345 175 l 2
 355 175 356 175 353 185 c 0
 346 212 307 306 296 337 c 0
 290 352 288 352 282 337 c 0
85.75 398 m 0
 69.75 395 59.75 382 59.75 366 c 0
 59.75 337 79.75 319 106.75 306 c 0
 114.75 302 123.75 299 123.75 292 c 0
 123.75 287 116.75 282 103.75 282 c 0
 50.75 282 7.75 326 7.75 379 c 0
 7.75 426 33.75 476 80.75 476 c 0
 104.75 476 127.75 461 127.75 438 c 0
 127.75 415 108.75 402 85.75 398 c 0
EndSplineSet
Colour: ff00
EndChar
StartChar: uni1F02.ctsc
Encoding: 1115365 -1 3203
Width: 549
VWidth: 0
Flags: HW
LayerCount: 3
Fore
SplineSet
508 27 m 0
 519 25 531 19 531 9 c 0
 531 1 518 -3 511 -3 c 0
 472 -3 458 2 423 2 c 0
 388 2 367 -3 328 -3 c 0
 321 -3 308 1 308 9 c 0
 308 19 320 24 331 27 c 0
 359 34 370 36 370 58 c 0
 370 71 358 106 348 132 c 0
 346 138 343 139 329 139 c 2
 183 139 l 10
 175 139 171 136 167 127 c 0
 153 91 147 81 147 65 c 0
 147 39 164 33 184 27 c 0
 195 23 207 19 207 9 c 0
 207 1 194 -3 187 -3 c 0
 148 -3 141 2 106 2 c 0
 71 2 69 -3 30 -3 c 0
 23 -3 10 1 10 9 c 0
 10 19 22 23 33 26 c 0
 64 33 90 36 114 92 c 2
 230 360 l 2
 244 393 239 407 242 410 c 0
 251 419 275 444 281 451 c 0
 289 460 294 463 297 463 c 0
 301 463 302 460 304 454 c 2
 439 107 l 2
 452 73 468 35 508 27 c 0
257 337 m 0
 240 295 213 233 191 185 c 0
 187 176 192 175 204 175 c 2
 320 175 l 2
 330 175 331 175 328 185 c 0
 321 212 282 306 271 337 c 0
 265 352 263 352 257 337 c 0
-48.5 387 m 4
 -71.5 391 -90.5 404 -90.5 427 c 4
 -90.5 450 -67.5 465 -43.5 465 c 4
 3.5 465 29.5 416 29.5 368 c 4
 29.5 315 -14.5 271 -66.5 271 c 4
 -79.5 271 -86.5 276 -86.5 281 c 4
 -86.5 288 -77.5 291 -69.5 295 c 4
 -42.5 308 -22.5 326 -22.5 355 c 4
 -22.5 371 -32.5 384 -48.5 387 c 4
119.5 287 m 4
 98.5 323 48.5 421 48.5 431 c 4
 48.5 447 67.5 472 86.5 472 c 4
 94.5 472 108.5 466 111.5 454 c 4
 121.5 418 152.5 296 152.5 278 c 4
 152.5 269 152.5 265 143.5 265 c 4
 135.5 265 125.5 277 119.5 287 c 4
EndSplineSet
Colour: ff00
EndChar
StartChar: uni1F03.ctsc
Encoding: 1115366 -1 3204
Width: 667
VWidth: 0
Flags: HW
LayerCount: 3
Fore
SplineSet
627 27 m 0
 638 25 650 19 650 9 c 0
 650 1 637 -3 630 -3 c 0
 591 -3 577 2 542 2 c 0
 507 2 486 -3 447 -3 c 0
 440 -3 427 1 427 9 c 0
 427 19 439 24 450 27 c 0
 478 34 489 36 489 58 c 0
 489 71 477 106 467 132 c 0
 465 138 462 139 448 139 c 2
 302 139 l 10
 294 139 290 136 286 127 c 0
 272 91 266 81 266 65 c 0
 266 39 283 33 303 27 c 0
 314 23 326 19 326 9 c 0
 326 1 313 -3 306 -3 c 0
 267 -3 260 2 225 2 c 0
 190 2 188 -3 149 -3 c 0
 142 -3 129 1 129 9 c 0
 129 19 141 23 152 26 c 0
 183 33 209 36 233 92 c 2
 349 360 l 2
 363 393 358 407 361 410 c 0
 370 419 394 444 400 451 c 0
 408 460 413 463 416 463 c 0
 420 463 421 460 423 454 c 2
 558 107 l 2
 571 73 587 35 627 27 c 0
376 337 m 0
 359 295 332 233 310 185 c 0
 306 176 311 175 323 175 c 2
 439 175 l 2
 449 175 450 175 447 185 c 0
 440 212 401 306 390 337 c 0
 384 352 382 352 376 337 c 0
94.5 381 m 0
 78.5 378 68.5 365 68.5 349 c 0
 68.5 320 88.5 302 115.5 289 c 0
 123.5 285 132.5 282 132.5 275 c 0
 132.5 270 125.5 265 112.5 265 c 0
 59.5 265 16.5 309 16.5 362 c 0
 16.5 409 42.5 459 89.5 459 c 0
 113.5 459 136.5 444 136.5 421 c 0
 136.5 398 117.5 385 94.5 381 c 0
226.5 281 m 0
 205.5 317 155.5 415 155.5 425 c 0
 155.5 441 174.5 466 193.5 466 c 0
 201.5 466 215.5 460 218.5 448 c 0
 228.5 412 259.5 290 259.5 272 c 0
 259.5 263 259.5 259 250.5 259 c 0
 242.5 259 232.5 271 226.5 281 c 0
EndSplineSet
Colour: ff00
EndChar
StartChar: uni1F04.ctsc
Encoding: 1115367 -1 3205
Width: 623
VWidth: 0
Flags: HW
LayerCount: 3
Fore
SplineSet
583 27 m 0
 594 25 606 19 606 9 c 0
 606 1 593 -3 586 -3 c 0
 547 -3 533 2 498 2 c 0
 463 2 442 -3 403 -3 c 0
 396 -3 383 1 383 9 c 0
 383 19 395 24 406 27 c 0
 434 34 445 36 445 58 c 0
 445 71 433 106 423 132 c 0
 421 138 418 139 404 139 c 2
 258 139 l 10
 250 139 246 136 242 127 c 0
 228 91 222 81 222 65 c 0
 222 39 239 33 259 27 c 0
 270 23 282 19 282 9 c 0
 282 1 269 -3 262 -3 c 0
 223 -3 216 2 181 2 c 0
 146 2 144 -3 105 -3 c 0
 98 -3 85 1 85 9 c 0
 85 19 97 23 108 26 c 0
 139 33 165 36 189 92 c 2
 305 360 l 2
 319 393 314 407 317 410 c 0
 326 419 350 444 356 451 c 0
 364 460 369 463 372 463 c 0
 376 463 377 460 379 454 c 2
 514 107 l 2
 527 73 543 35 583 27 c 0
332 337 m 0
 315 295 288 233 266 185 c 0
 262 176 267 175 279 175 c 2
 395 175 l 2
 405 175 406 175 403 185 c 0
 396 212 357 306 346 337 c 0
 340 352 338 352 332 337 c 0
55.5 387 m 0
 32.5 391 13.5 404 13.5 427 c 0
 13.5 450 36.5 465 60.5 465 c 0
 107.5 465 133.5 416 133.5 368 c 0
 133.5 315 89.5 271 37.5 271 c 0
 24.5 271 17.5 276 17.5 281 c 0
 17.5 288 26.5 291 34.5 295 c 0
 61.5 308 81.5 326 81.5 355 c 0
 81.5 371 71.5 384 55.5 387 c 0
185.5 287 m 0
 179.5 277 169.5 265 161.5 265 c 0
 152.5 265 152.5 269 152.5 278 c 0
 152.5 296 183.5 418 193.5 454 c 0
 196.5 466 210.5 472 218.5 472 c 0
 237.5 472 256.5 447 256.5 431 c 0
 256.5 421 206.5 323 185.5 287 c 0
EndSplineSet
Colour: ff00
EndChar
StartChar: uni1F05.ctsc
Encoding: 1115368 -1 3206
Width: 631
VWidth: 0
Flags: HW
LayerCount: 3
Fore
SplineSet
591 27 m 0
 602 25 614 19 614 9 c 0
 614 1 601 -3 594 -3 c 0
 555 -3 541 2 506 2 c 0
 471 2 450 -3 411 -3 c 0
 404 -3 391 1 391 9 c 0
 391 19 403 24 414 27 c 0
 442 34 453 36 453 58 c 0
 453 71 441 106 431 132 c 0
 429 138 426 139 412 139 c 2
 266 139 l 10
 258 139 254 136 250 127 c 0
 236 91 230 81 230 65 c 0
 230 39 247 33 267 27 c 0
 278 23 290 19 290 9 c 0
 290 1 277 -3 270 -3 c 0
 231 -3 224 2 189 2 c 0
 154 2 152 -3 113 -3 c 0
 106 -3 93 1 93 9 c 0
 93 19 105 23 116 26 c 0
 147 33 173 36 197 92 c 2
 313 360 l 2
 327 393 322 407 325 410 c 0
 334 419 358 444 364 451 c 0
 372 460 377 463 380 463 c 0
 384 463 385 460 387 454 c 2
 522 107 l 2
 535 73 551 35 591 27 c 0
340 337 m 0
 323 295 296 233 274 185 c 0
 270 176 275 175 287 175 c 2
 403 175 l 2
 413 175 414 175 411 185 c 0
 404 212 365 306 354 337 c 0
 348 352 346 352 340 337 c 0
85.5 384 m 0
 69.5 381 59.5 368 59.5 352 c 0
 59.5 323 79.5 305 106.5 292 c 0
 114.5 288 123.5 285 123.5 278 c 0
 123.5 273 116.5 268 103.5 268 c 0
 50.5 268 7.5 312 7.5 365 c 0
 7.5 412 33.5 462 80.5 462 c 0
 104.5 462 127.5 447 127.5 424 c 0
 127.5 401 108.5 388 85.5 384 c 0
179.5 284 m 0
 173.5 274 163.5 262 155.5 262 c 0
 146.5 262 146.5 266 146.5 275 c 0
 146.5 293 177.5 415 187.5 451 c 0
 190.5 463 204.5 469 212.5 469 c 0
 231.5 469 250.5 444 250.5 428 c 0
 250.5 418 200.5 320 179.5 284 c 0
EndSplineSet
Colour: ff00
EndChar
StartChar: uni1F06.ctsc
Encoding: 1115369 -1 3207
Width: 637
VWidth: 0
Flags: HW
LayerCount: 3
Fore
SplineSet
597 27 m 0
 608 25 620 19 620 9 c 0
 620 1 607 -3 600 -3 c 0
 561 -3 547 2 512 2 c 0
 477 2 456 -3 417 -3 c 0
 410 -3 397 1 397 9 c 0
 397 19 409 24 420 27 c 0
 448 34 459 36 459 58 c 0
 459 71 447 106 437 132 c 0
 435 138 432 139 418 139 c 2
 272 139 l 10
 264 139 260 136 256 127 c 0
 242 91 236 81 236 65 c 0
 236 39 253 33 273 27 c 0
 284 23 296 19 296 9 c 0
 296 1 283 -3 276 -3 c 0
 237 -3 230 2 195 2 c 0
 160 2 158 -3 119 -3 c 0
 112 -3 99 1 99 9 c 0
 99 19 111 23 122 26 c 0
 153 33 179 36 203 92 c 2
 319 360 l 2
 333 393 328 407 331 410 c 0
 340 419 364 444 370 451 c 0
 378 460 383 463 386 463 c 0
 390 463 391 460 393 454 c 2
 528 107 l 2
 541 73 557 35 597 27 c 0
346 337 m 0
 329 295 302 233 280 185 c 0
 276 176 281 175 293 175 c 2
 409 175 l 2
 419 175 420 175 417 185 c 0
 410 212 371 306 360 337 c 0
 354 352 352 352 346 337 c 0
118.5 316 m 0
 99.5 317 82.5 328 82.5 350 c 0
 82.5 366 100.5 376 129.5 376 c 0
 169.5 376 202.5 344 202.5 303 c 0
 202.5 248 149.5 212 110.5 212 c 0
 98.5 212 92.5 217 92.5 222 c 0
 92.5 226 97.5 231 106.5 234 c 0
 135.5 244 155.5 259 155.5 282 c 0
 155.5 302 138.5 315 118.5 316 c 0
25.5 380 m 0
 15.5 380 11.5 385 11.5 395 c 0
 11.5 405 56.5 480 99.5 480 c 0
 124.5 480 181.5 455 206.5 455 c 0
 235.5 455 255.5 481 263.5 481 c 0
 273.5 481 279.5 474 279.5 464 c 0
 279.5 454 236.5 397 194.5 397 c 0
 169.5 397 111.5 421 86.5 421 c 0
 62.5 421 33.5 380 25.5 380 c 0
EndSplineSet
Colour: ff00
EndChar
StartChar: uni1F07.ctsc
Encoding: 1115370 -1 3208
Width: 549
VWidth: 0
Flags: HW
LayerCount: 3
Fore
SplineSet
508 27 m 0
 519 25 531 19 531 9 c 0
 531 1 518 -3 511 -3 c 0
 472 -3 458 2 423 2 c 0
 388 2 367 -3 328 -3 c 0
 321 -3 308 1 308 9 c 0
 308 19 320 24 331 27 c 0
 359 34 370 36 370 58 c 0
 370 71 358 106 348 132 c 0
 346 138 343 139 329 139 c 2
 183 139 l 10
 175 139 171 136 167 127 c 0
 153 91 147 81 147 65 c 0
 147 39 164 33 184 27 c 0
 195 23 207 19 207 9 c 0
 207 1 194 -3 187 -3 c 0
 148 -3 141 2 106 2 c 0
 71 2 69 -3 30 -3 c 0
 23 -3 10 1 10 9 c 0
 10 19 22 23 33 26 c 0
 64 33 90 36 114 92 c 2
 230 360 l 2
 244 393 239 407 242 410 c 0
 251 419 275 444 281 451 c 0
 289 460 294 463 297 463 c 0
 301 463 302 460 304 454 c 2
 439 107 l 2
 452 73 468 35 508 27 c 0
257 337 m 0
 240 295 213 233 191 185 c 0
 187 176 192 175 204 175 c 2
 320 175 l 2
 330 175 331 175 328 185 c 0
 321 212 282 306 271 337 c 0
 265 352 263 352 257 337 c 0
80.5 306 m 4
 60.5 305 43.5 292 43.5 272 c 4
 43.5 249 63.5 234 92.5 224 c 4
 101.5 221 106.5 216 106.5 212 c 4
 106.5 207 100.5 202 88.5 202 c 4
 49.5 202 -3.5 238 -3.5 293 c 4
 -3.5 334 29.5 366 69.5 366 c 4
 98.5 366 116.5 356 116.5 340 c 4
 116.5 318 99.5 307 80.5 306 c 4
-50.5 370 m 4
 -60.5 370 -64.5 375 -64.5 385 c 4
 -64.5 395 -19.5 470 23.5 470 c 4
 48.5 470 105.5 445 130.5 445 c 4
 159.5 445 179.5 471 187.5 471 c 4
 197.5 471 203.5 464 203.5 454 c 4
 203.5 444 160.5 387 118.5 387 c 4
 93.5 387 35.5 411 10.5 411 c 4
 -13.5 411 -42.5 370 -50.5 370 c 4
EndSplineSet
Colour: ff00
EndChar
StartChar: uni1F10.ctsc
Encoding: 1115371 -1 3209
Width: 480
VWidth: 0
Flags: HW
LayerCount: 3
Fore
SplineSet
151 448 m 0
 239 448 336 451 382 451 c 0
 386 451 394 450 394 445 c 0
 396 394 404 366 404 353 c 0
 404 349 400 340 396 340 c 0
 391 340 382 346 377 358 c 0
 363 391 352 410 317 410 c 2
 220 410 l 2
 212 410 195 405 195 392 c 2
 195 268 l 2
 195 261 200 244 206 244 c 2
 285 244 l 2
 306 244 314 257 322 281 c 0
 324 288 330 298 337 298 c 0
 345 298 350 289 349 283 c 0
 348 267 346 243 346 228 c 0
 346 210 349 192 350 173 c 0
 351 167 346 156 340 156 c 8
 328 156 324 176 322 180 c 0
 316 201 301 205 290 207 c 0
 270 209 241 209 220 209 c 0
 201 209 195 210 195 191 c 2
 195 80 l 2
 195 44 198 39 228 39 c 2
 328 39 l 2
 369 39 398 68 411 97 c 0
 413 101 416 112 425 112 c 0
 434 112 435 102 435 96 c 1
 432 69 424 32 418 10 c 0
 417 4 408 -2 401 -2 c 8
 302 -2 217 3 148 3 c 0
 112 2 89 -3 50 -3 c 0
 43 -3 30 1 30 9 c 0
 30 19 43 23 54 25 c 0
 89 32 120 43 120 79 c 2
 120 352 l 2
 120 393 104 415 62 422 c 0
 50 424 38 431 38 441 c 0
 38 449 51 453 58 453 c 0
 97 453 116 448 151 448 c 0
-69.5 354 m 4
 -92.5 358 -111.5 371 -111.5 394 c 4
 -111.5 417 -88.5 432 -64.5 432 c 4
 -17.5 432 8.5 383 8.5 335 c 4
 8.5 282 -35.5 238 -87.5 238 c 4
 -100.5 238 -107.5 243 -107.5 248 c 4
 -107.5 255 -98.5 258 -90.5 262 c 4
 -63.5 275 -43.5 293 -43.5 322 c 4
 -43.5 338 -53.5 351 -69.5 354 c 4
EndSplineSet
Colour: ff00
EndChar
StartChar: uni1F11.ctsc
Encoding: 1115372 -1 3210
Width: 617
VWidth: 0
Flags: HW
LayerCount: 3
Fore
SplineSet
289 448 m 0
 377 448 474 451 520 451 c 0
 524 451 532 450 532 445 c 0
 534 394 542 366 542 353 c 0
 542 349 538 340 534 340 c 0
 529 340 520 346 515 358 c 0
 501 391 490 410 455 410 c 2
 358 410 l 2
 350 410 333 405 333 392 c 2
 333 268 l 2
 333 261 338 244 344 244 c 2
 423 244 l 2
 444 244 452 257 460 281 c 0
 462 288 468 298 475 298 c 0
 483 298 488 289 487 283 c 0
 486 267 484 243 484 228 c 0
 484 210 487 192 488 173 c 0
 489 167 484 156 478 156 c 8
 466 156 462 176 460 180 c 0
 454 201 439 205 428 207 c 0
 408 209 379 209 358 209 c 0
 339 209 333 210 333 191 c 2
 333 80 l 2
 333 44 336 39 366 39 c 2
 466 39 l 2
 507 39 536 68 549 97 c 0
 551 101 554 112 563 112 c 0
 572 112 573 102 573 96 c 1
 570 69 562 32 556 10 c 0
 555 4 546 -2 539 -2 c 8
 440 -2 355 3 286 3 c 0
 250 2 227 -3 188 -3 c 0
 181 -3 168 1 168 9 c 0
 168 19 181 23 192 25 c 0
 227 32 258 43 258 79 c 2
 258 352 l 2
 258 393 242 415 200 422 c 0
 188 424 176 431 176 441 c 0
 176 449 189 453 196 453 c 0
 235 453 254 448 289 448 c 0
93.5 377 m 0
 77.5 374 67.5 361 67.5 345 c 0
 67.5 316 87.5 298 114.5 285 c 0
 122.5 281 131.5 278 131.5 271 c 0
 131.5 266 124.5 261 111.5 261 c 0
 58.5 261 15.5 305 15.5 358 c 0
 15.5 405 41.5 455 88.5 455 c 0
 112.5 455 135.5 440 135.5 417 c 0
 135.5 394 116.5 381 93.5 377 c 0
EndSplineSet
Colour: ff00
EndChar
StartChar: uni1F12.ctsc
Encoding: 1115373 -1 3211
Width: 740
VWidth: 0
Flags: HW
LayerCount: 3
Fore
SplineSet
411 448 m 0
 499 448 596 451 642 451 c 0
 646 451 654 450 654 445 c 0
 656 394 664 366 664 353 c 0
 664 349 660 340 656 340 c 0
 651 340 642 346 637 358 c 0
 623 391 612 410 577 410 c 2
 480 410 l 2
 472 410 455 405 455 392 c 2
 455 268 l 2
 455 261 460 244 466 244 c 2
 545 244 l 2
 566 244 574 257 582 281 c 0
 584 288 590 298 597 298 c 0
 605 298 610 289 609 283 c 0
 608 267 606 243 606 228 c 0
 606 210 609 192 610 173 c 0
 611 167 606 156 600 156 c 8
 588 156 584 176 582 180 c 0
 576 201 561 205 550 207 c 0
 530 209 501 209 480 209 c 0
 461 209 455 210 455 191 c 2
 455 80 l 2
 455 44 458 39 488 39 c 2
 588 39 l 2
 629 39 658 68 671 97 c 0
 673 101 676 112 685 112 c 0
 694 112 695 102 695 96 c 1
 692 69 684 32 678 10 c 0
 677 4 668 -2 661 -2 c 8
 562 -2 477 3 408 3 c 0
 372 2 349 -3 310 -3 c 0
 303 -3 290 1 290 9 c 0
 290 19 303 23 314 25 c 0
 349 32 380 43 380 79 c 2
 380 352 l 2
 380 393 364 415 322 422 c 0
 310 424 298 431 298 441 c 0
 298 449 311 453 318 453 c 0
 357 453 376 448 411 448 c 0
59.75 371.5 m 0
 36.75 375.5 17.75 388.5 17.75 411.5 c 0
 17.75 434.5 40.75 449.5 64.75 449.5 c 0
 111.75 449.5 137.75 400.5 137.75 352.5 c 0
 137.75 299.5 93.75 255.5 41.75 255.5 c 0
 28.75 255.5 21.75 260.5 21.75 265.5 c 0
 21.75 272.5 30.75 275.5 38.75 279.5 c 0
 65.75 292.5 85.75 310.5 85.75 339.5 c 0
 85.75 355.5 75.75 368.5 59.75 371.5 c 0
227.75 271.5 m 0
 206.75 307.5 156.75 405.5 156.75 415.5 c 0
 156.75 431.5 175.75 456.5 194.75 456.5 c 0
 202.75 456.5 216.75 450.5 219.75 438.5 c 0
 229.75 402.5 260.75 280.5 260.75 262.5 c 0
 260.75 253.5 260.75 249.5 251.75 249.5 c 0
 243.75 249.5 233.75 261.5 227.75 271.5 c 0
EndSplineSet
Colour: ff00
EndChar
StartChar: uni1F13.ctsc
Encoding: 1115374 -1 3212
Width: 708
VWidth: 0
Flags: HW
LayerCount: 3
Fore
SplineSet
379 448 m 0
 467 448 564 451 610 451 c 0
 614 451 622 450 622 445 c 0
 624 394 632 366 632 353 c 0
 632 349 628 340 624 340 c 0
 619 340 610 346 605 358 c 0
 591 391 580 410 545 410 c 2
 448 410 l 2
 440 410 423 405 423 392 c 2
 423 268 l 2
 423 261 428 244 434 244 c 2
 513 244 l 2
 534 244 542 257 550 281 c 0
 552 288 558 298 565 298 c 0
 573 298 578 289 577 283 c 0
 576 267 574 243 574 228 c 0
 574 210 577 192 578 173 c 0
 579 167 574 156 568 156 c 8
 556 156 552 176 550 180 c 0
 544 201 529 205 518 207 c 0
 498 209 469 209 448 209 c 0
 429 209 423 210 423 191 c 2
 423 80 l 2
 423 44 426 39 456 39 c 2
 556 39 l 2
 597 39 626 68 639 97 c 0
 641 101 644 112 653 112 c 0
 662 112 663 102 663 96 c 1
 660 69 652 32 646 10 c 0
 645 4 636 -2 629 -2 c 8
 530 -2 445 3 376 3 c 0
 340 2 317 -3 278 -3 c 0
 271 -3 258 1 258 9 c 0
 258 19 271 23 282 25 c 0
 317 32 348 43 348 79 c 2
 348 352 l 2
 348 393 332 415 290 422 c 0
 278 424 266 431 266 441 c 0
 266 449 279 453 286 453 c 0
 325 453 344 448 379 448 c 0
94.75 372.5 m 0
 78.75 369.5 68.75 356.5 68.75 340.5 c 0
 68.75 311.5 88.75 293.5 115.75 280.5 c 0
 123.75 276.5 132.75 273.5 132.75 266.5 c 0
 132.75 261.5 125.75 256.5 112.75 256.5 c 0
 59.75 256.5 16.75 300.5 16.75 353.5 c 0
 16.75 400.5 42.75 450.5 89.75 450.5 c 0
 113.75 450.5 136.75 435.5 136.75 412.5 c 0
 136.75 389.5 117.75 376.5 94.75 372.5 c 0
226.75 272.5 m 0
 205.75 308.5 155.75 406.5 155.75 416.5 c 0
 155.75 432.5 174.75 457.5 193.75 457.5 c 0
 201.75 457.5 215.75 451.5 218.75 439.5 c 0
 228.75 403.5 259.75 281.5 259.75 263.5 c 0
 259.75 254.5 259.75 250.5 250.75 250.5 c 0
 242.75 250.5 232.75 262.5 226.75 272.5 c 0
EndSplineSet
Colour: ff00
EndChar
StartChar: uni1F14.ctsc
Encoding: 1115375 -1 3213
Width: 480
VWidth: 0
Flags: HW
LayerCount: 3
Fore
SplineSet
151 448 m 0
 239 448 336 451 382 451 c 0
 386 451 394 450 394 445 c 0
 396 394 404 366 404 353 c 0
 404 349 400 340 396 340 c 0
 391 340 382 346 377 358 c 0
 363 391 352 410 317 410 c 2
 220 410 l 2
 212 410 195 405 195 392 c 2
 195 268 l 2
 195 261 200 244 206 244 c 2
 285 244 l 2
 306 244 314 257 322 281 c 0
 324 288 330 298 337 298 c 0
 345 298 350 289 349 283 c 0
 348 267 346 243 346 228 c 0
 346 210 349 192 350 173 c 0
 351 167 346 156 340 156 c 8
 328 156 324 176 322 180 c 0
 316 201 301 205 290 207 c 0
 270 209 241 209 220 209 c 0
 201 209 195 210 195 191 c 2
 195 80 l 2
 195 44 198 39 228 39 c 2
 328 39 l 2
 369 39 398 68 411 97 c 0
 413 101 416 112 425 112 c 0
 434 112 435 102 435 96 c 1
 432 69 424 32 418 10 c 0
 417 4 408 -2 401 -2 c 8
 302 -2 217 3 148 3 c 0
 112 2 89 -3 50 -3 c 0
 43 -3 30 1 30 9 c 0
 30 19 43 23 54 25 c 0
 89 32 120 43 120 79 c 2
 120 352 l 2
 120 393 104 415 62 422 c 0
 50 424 38 431 38 441 c 0
 38 449 51 453 58 453 c 0
 97 453 116 448 151 448 c 0
-188.5 346 m 4
 -211.5 350 -230.5 363 -230.5 386 c 4
 -230.5 409 -207.5 424 -183.5 424 c 4
 -136.5 424 -110.5 375 -110.5 327 c 4
 -110.5 274 -154.5 230 -206.5 230 c 4
 -219.5 230 -226.5 235 -226.5 240 c 4
 -226.5 247 -217.5 250 -209.5 254 c 4
 -182.5 267 -162.5 285 -162.5 314 c 4
 -162.5 330 -172.5 343 -188.5 346 c 4
-58.5 246 m 4
 -64.5 236 -74.5 224 -82.5 224 c 4
 -91.5 224 -91.5 228 -91.5 237 c 4
 -91.5 255 -60.5 377 -50.5 413 c 4
 -47.5 425 -33.5 431 -25.5 431 c 4
 -6.5 431 12.5 406 12.5 390 c 4
 12.5 380 -37.5 282 -58.5 246 c 4
EndSplineSet
Colour: ff00
EndChar
StartChar: uni1F15.ctsc
Encoding: 1115376 -1 3214
Width: 735
VWidth: 0
Flags: HW
LayerCount: 3
Fore
SplineSet
406 448 m 0
 494 448 591 451 637 451 c 0
 641 451 649 450 649 445 c 0
 651 394 659 366 659 353 c 0
 659 349 655 340 651 340 c 0
 646 340 637 346 632 358 c 0
 618 391 607 410 572 410 c 2
 475 410 l 2
 467 410 450 405 450 392 c 2
 450 268 l 2
 450 261 455 244 461 244 c 2
 540 244 l 2
 561 244 569 257 577 281 c 0
 579 288 585 298 592 298 c 0
 600 298 605 289 604 283 c 0
 603 267 601 243 601 228 c 0
 601 210 604 192 605 173 c 0
 606 167 601 156 595 156 c 8
 583 156 579 176 577 180 c 0
 571 201 556 205 545 207 c 0
 525 209 496 209 475 209 c 0
 456 209 450 210 450 191 c 2
 450 80 l 2
 450 44 453 39 483 39 c 2
 583 39 l 2
 624 39 653 68 666 97 c 0
 668 101 671 112 680 112 c 0
 689 112 690 102 690 96 c 1
 687 69 679 32 673 10 c 0
 672 4 663 -2 656 -2 c 8
 557 -2 472 3 403 3 c 0
 367 2 344 -3 305 -3 c 0
 298 -3 285 1 285 9 c 0
 285 19 298 23 309 25 c 0
 344 32 375 43 375 79 c 2
 375 352 l 2
 375 393 359 415 317 422 c 0
 305 424 293 431 293 441 c 0
 293 449 306 453 313 453 c 0
 352 453 371 448 406 448 c 0
94.75 368.5 m 0
 78.75 365.5 68.75 352.5 68.75 336.5 c 0
 68.75 307.5 88.75 289.5 115.75 276.5 c 0
 123.75 272.5 132.75 269.5 132.75 262.5 c 0
 132.75 257.5 125.75 252.5 112.75 252.5 c 0
 59.75 252.5 16.75 296.5 16.75 349.5 c 0
 16.75 396.5 42.75 446.5 89.75 446.5 c 0
 113.75 446.5 136.75 431.5 136.75 408.5 c 0
 136.75 385.5 117.75 372.5 94.75 368.5 c 0
188.75 268.5 m 0
 182.75 258.5 172.75 246.5 164.75 246.5 c 0
 155.75 246.5 155.75 250.5 155.75 259.5 c 0
 155.75 277.5 186.75 399.5 196.75 435.5 c 0
 199.75 447.5 213.75 453.5 221.75 453.5 c 0
 240.75 453.5 259.75 428.5 259.75 412.5 c 0
 259.75 402.5 209.75 304.5 188.75 268.5 c 0
EndSplineSet
Colour: ff00
EndChar
StartChar: uni1F20.ctsc
Encoding: 1115377 -1 3215
Width: 765
VWidth: 0
Flags: HW
LayerCount: 3
Fore
SplineSet
571 352 m 2
 571 391 555 415 513 422 c 0
 501 424 489 431 489 441 c 0
 489 449 502 453 509 453 c 0
 548 453 573 448 609 448 c 0
 644 448 669 453 708 453 c 0
 715 453 728 449 728 441 c 0
 728 431 716 424 704 422 c 0
 662 415 646 391 646 352 c 2
 646 79 l 2
 646 43 677 32 712 25 c 0
 723 23 736 19 736 9 c 0
 736 1 723 -3 716 -3 c 0
 677 -3 651 3 609 3 c 24
 567 3 540 -3 501 -3 c 0
 494 -3 481 1 481 9 c 0
 481 19 494 23 505 25 c 0
 540 32 571 43 571 79 c 2
 571 211 l 2
 571 216 569 216 567 216 c 16
 514 217 482 218 440 218 c 0
 405 218 369 217 324 216 c 8
 321 216 321 214 321 209 c 2
 321 79 l 2
 321 43 352 32 387 25 c 0
 398 23 411 19 411 9 c 0
 411 1 398 -3 391 -3 c 0
 352 -3 326 3 284 3 c 24
 242 3 215 -3 176 -3 c 0
 169 -3 156 1 156 9 c 0
 156 19 169 23 180 25 c 0
 215 32 246 43 246 79 c 2
 246 352 l 2
 246 392 230 415 188 422 c 0
 176 424 164 431 164 441 c 0
 164 449 177 453 184 453 c 0
 223 453 248 448 284 448 c 0
 319 448 344 453 383 453 c 0
 390 453 403 449 403 441 c 0
 403 431 391 424 379 422 c 0
 337 415 321 392 321 352 c 2
 321 259 l 2
 321 254 326 253 331 253 c 16
 382 252 403 251 443 251 c 0
 477 251 522 252 566 253 c 8
 570 253 571 255 571 261 c 2
 571 352 l 2
61.75 374.5 m 0
 38.75 378.5 19.75 391.5 19.75 414.5 c 0
 19.75 437.5 42.75 452.5 66.75 452.5 c 0
 113.75 452.5 139.75 403.5 139.75 355.5 c 0
 139.75 302.5 95.75 258.5 43.75 258.5 c 0
 30.75 258.5 23.75 263.5 23.75 268.5 c 0
 23.75 275.5 32.75 278.5 40.75 282.5 c 0
 67.75 295.5 87.75 313.5 87.75 342.5 c 0
 87.75 358.5 77.75 371.5 61.75 374.5 c 0
EndSplineSet
Colour: ff00
EndChar
StartChar: uni1F21.ctsc
Encoding: 1115378 -1 3216
Width: 765
VWidth: 0
Flags: HW
LayerCount: 3
Fore
SplineSet
570 352 m 2
 570 391 554 415 512 422 c 0
 500 424 488 431 488 441 c 0
 488 449 501 453 508 453 c 0
 547 453 572 448 608 448 c 0
 643 448 668 453 707 453 c 0
 714 453 727 449 727 441 c 0
 727 431 715 424 703 422 c 0
 661 415 645 391 645 352 c 2
 645 79 l 2
 645 43 676 32 711 25 c 0
 722 23 735 19 735 9 c 0
 735 1 722 -3 715 -3 c 0
 676 -3 650 3 608 3 c 24
 566 3 539 -3 500 -3 c 0
 493 -3 480 1 480 9 c 0
 480 19 493 23 504 25 c 0
 539 32 570 43 570 79 c 2
 570 211 l 2
 570 216 568 216 566 216 c 16
 513 217 481 218 439 218 c 0
 404 218 368 217 323 216 c 8
 320 216 320 214 320 209 c 2
 320 79 l 2
 320 43 351 32 386 25 c 0
 397 23 410 19 410 9 c 0
 410 1 397 -3 390 -3 c 0
 351 -3 325 3 283 3 c 24
 241 3 214 -3 175 -3 c 0
 168 -3 155 1 155 9 c 0
 155 19 168 23 179 25 c 0
 214 32 245 43 245 79 c 2
 245 352 l 2
 245 392 229 415 187 422 c 0
 175 424 163 431 163 441 c 0
 163 449 176 453 183 453 c 0
 222 453 247 448 283 448 c 0
 318 448 343 453 382 453 c 0
 389 453 402 449 402 441 c 0
 402 431 390 424 378 422 c 0
 336 415 320 392 320 352 c 2
 320 259 l 2
 320 254 325 253 330 253 c 16
 381 252 402 251 442 251 c 0
 476 251 521 252 565 253 c 8
 569 253 570 255 570 261 c 2
 570 352 l 2
88.75 379.5 m 0
 72.75 376.5 62.75 363.5 62.75 347.5 c 0
 62.75 318.5 82.75 300.5 109.75 287.5 c 0
 117.75 283.5 126.75 280.5 126.75 273.5 c 0
 126.75 268.5 119.75 263.5 106.75 263.5 c 0
 53.75 263.5 10.75 307.5 10.75 360.5 c 0
 10.75 407.5 36.75 457.5 83.75 457.5 c 0
 107.75 457.5 130.75 442.5 130.75 419.5 c 0
 130.75 396.5 111.75 383.5 88.75 379.5 c 0
EndSplineSet
Colour: ff00
EndChar
StartChar: uni1F22.ctsc
Encoding: 1115379 -1 3217
Width: 875
VWidth: 0
Flags: HW
LayerCount: 3
Fore
SplineSet
681 352 m 2
 681 391 665 415 623 422 c 0
 611 424 599 431 599 441 c 0
 599 449 612 453 619 453 c 0
 658 453 683 448 719 448 c 0
 754 448 779 453 818 453 c 0
 825 453 838 449 838 441 c 0
 838 431 826 424 814 422 c 0
 772 415 756 391 756 352 c 2
 756 79 l 2
 756 43 787 32 822 25 c 0
 833 23 846 19 846 9 c 0
 846 1 833 -3 826 -3 c 0
 787 -3 761 3 719 3 c 24
 677 3 650 -3 611 -3 c 0
 604 -3 591 1 591 9 c 0
 591 19 604 23 615 25 c 0
 650 32 681 43 681 79 c 2
 681 211 l 2
 681 216 679 216 677 216 c 16
 624 217 592 218 550 218 c 0
 515 218 479 217 434 216 c 8
 431 216 431 214 431 209 c 2
 431 79 l 2
 431 43 462 32 497 25 c 0
 508 23 521 19 521 9 c 0
 521 1 508 -3 501 -3 c 0
 462 -3 436 3 394 3 c 24
 352 3 325 -3 286 -3 c 0
 279 -3 266 1 266 9 c 0
 266 19 279 23 290 25 c 0
 325 32 356 43 356 79 c 2
 356 352 l 2
 356 392 340 415 298 422 c 0
 286 424 274 431 274 441 c 0
 274 449 287 453 294 453 c 0
 333 453 358 448 394 448 c 0
 429 448 454 453 493 453 c 0
 500 453 513 449 513 441 c 0
 513 431 501 424 489 422 c 0
 447 415 431 392 431 352 c 2
 431 259 l 2
 431 254 436 253 441 253 c 16
 492 252 513 251 553 251 c 0
 587 251 632 252 676 253 c 8
 680 253 681 255 681 261 c 2
 681 352 l 2
62.75 371.5 m 0
 39.75 375.5 20.75 388.5 20.75 411.5 c 0
 20.75 434.5 43.75 449.5 67.75 449.5 c 0
 114.75 449.5 140.75 400.5 140.75 352.5 c 0
 140.75 299.5 96.75 255.5 44.75 255.5 c 0
 31.75 255.5 24.75 260.5 24.75 265.5 c 0
 24.75 272.5 33.75 275.5 41.75 279.5 c 0
 68.75 292.5 88.75 310.5 88.75 339.5 c 0
 88.75 355.5 78.75 368.5 62.75 371.5 c 0
230.75 271.5 m 0
 209.75 307.5 159.75 405.5 159.75 415.5 c 0
 159.75 431.5 178.75 456.5 197.75 456.5 c 0
 205.75 456.5 219.75 450.5 222.75 438.5 c 0
 232.75 402.5 263.75 280.5 263.75 262.5 c 0
 263.75 253.5 263.75 249.5 254.75 249.5 c 0
 246.75 249.5 236.75 261.5 230.75 271.5 c 0
EndSplineSet
Colour: ff00
EndChar
StartChar: uni1F23.ctsc
Encoding: 1115380 -1 3218
Width: 879
VWidth: 0
Flags: HW
LayerCount: 3
Fore
SplineSet
685 352 m 2
 685 391 669 415 627 422 c 0
 615 424 603 431 603 441 c 0
 603 449 616 453 623 453 c 0
 662 453 687 448 723 448 c 0
 758 448 783 453 822 453 c 0
 829 453 842 449 842 441 c 0
 842 431 830 424 818 422 c 0
 776 415 760 391 760 352 c 2
 760 79 l 2
 760 43 791 32 826 25 c 0
 837 23 850 19 850 9 c 0
 850 1 837 -3 830 -3 c 0
 791 -3 765 3 723 3 c 24
 681 3 654 -3 615 -3 c 0
 608 -3 595 1 595 9 c 0
 595 19 608 23 619 25 c 0
 654 32 685 43 685 79 c 2
 685 211 l 2
 685 216 683 216 681 216 c 16
 628 217 596 218 554 218 c 0
 519 218 483 217 438 216 c 8
 435 216 435 214 435 209 c 2
 435 79 l 2
 435 43 466 32 501 25 c 0
 512 23 525 19 525 9 c 0
 525 1 512 -3 505 -3 c 0
 466 -3 440 3 398 3 c 24
 356 3 329 -3 290 -3 c 0
 283 -3 270 1 270 9 c 0
 270 19 283 23 294 25 c 0
 329 32 360 43 360 79 c 2
 360 352 l 2
 360 392 344 415 302 422 c 0
 290 424 278 431 278 441 c 0
 278 449 291 453 298 453 c 0
 337 453 362 448 398 448 c 0
 433 448 458 453 497 453 c 0
 504 453 517 449 517 441 c 0
 517 431 505 424 493 422 c 0
 451 415 435 392 435 352 c 2
 435 259 l 2
 435 254 440 253 445 253 c 16
 496 252 517 251 557 251 c 0
 591 251 636 252 680 253 c 8
 684 253 685 255 685 261 c 2
 685 352 l 2
98.75 368.5 m 0
 82.75 365.5 72.75 352.5 72.75 336.5 c 0
 72.75 307.5 92.75 289.5 119.75 276.5 c 0
 127.75 272.5 136.75 269.5 136.75 262.5 c 0
 136.75 257.5 129.75 252.5 116.75 252.5 c 0
 63.75 252.5 20.75 296.5 20.75 349.5 c 0
 20.75 396.5 46.75 446.5 93.75 446.5 c 0
 117.75 446.5 140.75 431.5 140.75 408.5 c 0
 140.75 385.5 121.75 372.5 98.75 368.5 c 0
230.75 268.5 m 0
 209.75 304.5 159.75 402.5 159.75 412.5 c 0
 159.75 428.5 178.75 453.5 197.75 453.5 c 0
 205.75 453.5 219.75 447.5 222.75 435.5 c 0
 232.75 399.5 263.75 277.5 263.75 259.5 c 0
 263.75 250.5 263.75 246.5 254.75 246.5 c 0
 246.75 246.5 236.75 258.5 230.75 268.5 c 0
EndSplineSet
Colour: ff00
EndChar
StartChar: uni1F24.ctsc
Encoding: 1115381 -1 3219
Width: 900
VWidth: 0
Flags: HW
LayerCount: 3
Fore
SplineSet
706 352 m 2
 706 391 690 415 648 422 c 0
 636 424 624 431 624 441 c 0
 624 449 637 453 644 453 c 0
 683 453 708 448 744 448 c 0
 779 448 804 453 843 453 c 0
 850 453 863 449 863 441 c 0
 863 431 851 424 839 422 c 0
 797 415 781 391 781 352 c 2
 781 79 l 2
 781 43 812 32 847 25 c 0
 858 23 871 19 871 9 c 0
 871 1 858 -3 851 -3 c 0
 812 -3 786 3 744 3 c 24
 702 3 675 -3 636 -3 c 0
 629 -3 616 1 616 9 c 0
 616 19 629 23 640 25 c 0
 675 32 706 43 706 79 c 2
 706 211 l 2
 706 216 704 216 702 216 c 16
 649 217 617 218 575 218 c 0
 540 218 504 217 459 216 c 8
 456 216 456 214 456 209 c 2
 456 79 l 2
 456 43 487 32 522 25 c 0
 533 23 546 19 546 9 c 0
 546 1 533 -3 526 -3 c 0
 487 -3 461 3 419 3 c 24
 377 3 350 -3 311 -3 c 0
 304 -3 291 1 291 9 c 0
 291 19 304 23 315 25 c 0
 350 32 381 43 381 79 c 2
 381 352 l 2
 381 392 365 415 323 422 c 0
 311 424 299 431 299 441 c 0
 299 449 312 453 319 453 c 0
 358 453 383 448 419 448 c 0
 454 448 479 453 518 453 c 0
 525 453 538 449 538 441 c 0
 538 431 526 424 514 422 c 0
 472 415 456 392 456 352 c 2
 456 259 l 2
 456 254 461 253 466 253 c 16
 517 252 538 251 578 251 c 0
 612 251 657 252 701 253 c 8
 705 253 706 255 706 261 c 2
 706 352 l 2
62.75 367.5 m 0
 39.75 371.5 20.75 384.5 20.75 407.5 c 0
 20.75 430.5 43.75 445.5 67.75 445.5 c 0
 114.75 445.5 140.75 396.5 140.75 348.5 c 0
 140.75 295.5 96.75 251.5 44.75 251.5 c 0
 31.75 251.5 24.75 256.5 24.75 261.5 c 0
 24.75 268.5 33.75 271.5 41.75 275.5 c 0
 68.75 288.5 88.75 306.5 88.75 335.5 c 0
 88.75 351.5 78.75 364.5 62.75 367.5 c 0
192.75 267.5 m 0
 186.75 257.5 176.75 245.5 168.75 245.5 c 0
 159.75 245.5 159.75 249.5 159.75 258.5 c 0
 159.75 276.5 190.75 398.5 200.75 434.5 c 0
 203.75 446.5 217.75 452.5 225.75 452.5 c 0
 244.75 452.5 263.75 427.5 263.75 411.5 c 0
 263.75 401.5 213.75 303.5 192.75 267.5 c 0
EndSplineSet
Colour: ff00
EndChar
StartChar: uni1F25.ctsc
Encoding: 1115382 -1 3220
Width: 908
VWidth: 0
Flags: HW
LayerCount: 3
Fore
SplineSet
714 352 m 2
 714 391 698 415 656 422 c 0
 644 424 632 431 632 441 c 0
 632 449 645 453 652 453 c 0
 691 453 716 448 752 448 c 0
 787 448 812 453 851 453 c 0
 858 453 871 449 871 441 c 0
 871 431 859 424 847 422 c 0
 805 415 789 391 789 352 c 2
 789 79 l 2
 789 43 820 32 855 25 c 0
 866 23 879 19 879 9 c 0
 879 1 866 -3 859 -3 c 0
 820 -3 794 3 752 3 c 24
 710 3 683 -3 644 -3 c 0
 637 -3 624 1 624 9 c 0
 624 19 637 23 648 25 c 0
 683 32 714 43 714 79 c 2
 714 211 l 2
 714 216 712 216 710 216 c 16
 657 217 625 218 583 218 c 0
 548 218 512 217 467 216 c 8
 464 216 464 214 464 209 c 2
 464 79 l 2
 464 43 495 32 530 25 c 0
 541 23 554 19 554 9 c 0
 554 1 541 -3 534 -3 c 0
 495 -3 469 3 427 3 c 24
 385 3 358 -3 319 -3 c 0
 312 -3 299 1 299 9 c 0
 299 19 312 23 323 25 c 0
 358 32 389 43 389 79 c 2
 389 352 l 2
 389 392 373 415 331 422 c 0
 319 424 307 431 307 441 c 0
 307 449 320 453 327 453 c 0
 366 453 391 448 427 448 c 0
 462 448 487 453 526 453 c 0
 533 453 546 449 546 441 c 0
 546 431 534 424 522 422 c 0
 480 415 464 392 464 352 c 2
 464 259 l 2
 464 254 469 253 474 253 c 16
 525 252 546 251 586 251 c 0
 620 251 665 252 709 253 c 8
 713 253 714 255 714 261 c 2
 714 352 l 2
102.75 368.5 m 0
 86.75 365.5 76.75 352.5 76.75 336.5 c 0
 76.75 307.5 96.75 289.5 123.75 276.5 c 0
 131.75 272.5 140.75 269.5 140.75 262.5 c 0
 140.75 257.5 133.75 252.5 120.75 252.5 c 0
 67.75 252.5 24.75 296.5 24.75 349.5 c 0
 24.75 396.5 50.75 446.5 97.75 446.5 c 0
 121.75 446.5 144.75 431.5 144.75 408.5 c 0
 144.75 385.5 125.75 372.5 102.75 368.5 c 0
196.75 268.5 m 0
 190.75 258.5 180.75 246.5 172.75 246.5 c 0
 163.75 246.5 163.75 250.5 163.75 259.5 c 0
 163.75 277.5 194.75 399.5 204.75 435.5 c 0
 207.75 447.5 221.75 453.5 229.75 453.5 c 0
 248.75 453.5 267.75 428.5 267.75 412.5 c 0
 267.75 402.5 217.75 304.5 196.75 268.5 c 0
EndSplineSet
Colour: ff00
EndChar
StartChar: uni1F26.ctsc
Encoding: 1115383 -1 3221
Width: 863
VWidth: 0
Flags: HW
LayerCount: 3
Fore
SplineSet
669 352 m 2
 669 391 653 415 611 422 c 0
 599 424 587 431 587 441 c 0
 587 449 600 453 607 453 c 0
 646 453 671 448 707 448 c 0
 742 448 767 453 806 453 c 0
 813 453 826 449 826 441 c 0
 826 431 814 424 802 422 c 0
 760 415 744 391 744 352 c 2
 744 79 l 2
 744 43 775 32 810 25 c 0
 821 23 834 19 834 9 c 0
 834 1 821 -3 814 -3 c 0
 775 -3 749 3 707 3 c 24
 665 3 638 -3 599 -3 c 0
 592 -3 579 1 579 9 c 0
 579 19 592 23 603 25 c 0
 638 32 669 43 669 79 c 2
 669 211 l 2
 669 216 667 216 665 216 c 16
 612 217 580 218 538 218 c 0
 503 218 467 217 422 216 c 8
 419 216 419 214 419 209 c 2
 419 79 l 2
 419 43 450 32 485 25 c 0
 496 23 509 19 509 9 c 0
 509 1 496 -3 489 -3 c 0
 450 -3 424 3 382 3 c 24
 340 3 313 -3 274 -3 c 0
 267 -3 254 1 254 9 c 0
 254 19 267 23 278 25 c 0
 313 32 344 43 344 79 c 2
 344 352 l 2
 344 392 328 415 286 422 c 0
 274 424 262 431 262 441 c 0
 262 449 275 453 282 453 c 0
 321 453 346 448 382 448 c 0
 417 448 442 453 481 453 c 0
 488 453 501 449 501 441 c 0
 501 431 489 424 477 422 c 0
 435 415 419 392 419 352 c 2
 419 259 l 2
 419 254 424 253 429 253 c 16
 480 252 501 251 541 251 c 0
 575 251 620 252 664 253 c 8
 668 253 669 255 669 261 c 2
 669 352 l 2
123.5 283 m 0
 104.5 284 87.5 295 87.5 317 c 0
 87.5 333 105.5 343 134.5 343 c 0
 174.5 343 207.5 311 207.5 270 c 0
 207.5 215 154.5 179 115.5 179 c 0
 103.5 179 97.5 184 97.5 189 c 0
 97.5 193 102.5 198 111.5 201 c 0
 140.5 211 160.5 226 160.5 249 c 0
 160.5 269 143.5 282 123.5 283 c 0
30.5 347 m 0
 20.5 347 16.5 352 16.5 362 c 0
 16.5 372 61.5 447 104.5 447 c 0
 129.5 447 186.5 422 211.5 422 c 0
 240.5 422 260.5 448 268.5 448 c 0
 278.5 448 284.5 441 284.5 431 c 0
 284.5 421 241.5 364 199.5 364 c 0
 174.5 364 116.5 388 91.5 388 c 0
 67.5 388 38.5 347 30.5 347 c 0
EndSplineSet
Colour: ff00
EndChar
StartChar: uni1F27.ctsc
Encoding: 1115384 -1 3222
Width: 640
VWidth: 0
Flags: HW
LayerCount: 3
Fore
SplineSet
445 352 m 2
 445 391 429 415 387 422 c 0
 375 424 363 431 363 441 c 0
 363 449 376 453 383 453 c 0
 422 453 447 448 483 448 c 0
 518 448 543 453 582 453 c 0
 589 453 602 449 602 441 c 0
 602 431 590 424 578 422 c 0
 536 415 520 391 520 352 c 2
 520 79 l 2
 520 43 551 32 586 25 c 0
 597 23 610 19 610 9 c 0
 610 1 597 -3 590 -3 c 0
 551 -3 525 3 483 3 c 24
 441 3 414 -3 375 -3 c 0
 368 -3 355 1 355 9 c 0
 355 19 368 23 379 25 c 0
 414 32 445 43 445 79 c 2
 445 211 l 2
 445 216 443 216 441 216 c 16
 388 217 356 218 314 218 c 0
 279 218 243 217 198 216 c 8
 195 216 195 214 195 209 c 2
 195 79 l 2
 195 43 226 32 261 25 c 0
 272 23 285 19 285 9 c 0
 285 1 272 -3 265 -3 c 0
 226 -3 200 3 158 3 c 24
 116 3 89 -3 50 -3 c 0
 43 -3 30 1 30 9 c 0
 30 19 43 23 54 25 c 0
 89 32 120 43 120 79 c 2
 120 352 l 2
 120 392 104 415 62 422 c 0
 50 424 38 431 38 441 c 0
 38 449 51 453 58 453 c 0
 97 453 122 448 158 448 c 0
 193 448 218 453 257 453 c 0
 264 453 277 449 277 441 c 0
 277 431 265 424 253 422 c 0
 211 415 195 392 195 352 c 2
 195 259 l 2
 195 254 200 253 205 253 c 16
 256 252 277 251 317 251 c 0
 351 251 396 252 440 253 c 8
 444 253 445 255 445 261 c 2
 445 352 l 2
-59.5 285 m 4
 -79.5 284 -96.5 271 -96.5 251 c 4
 -96.5 228 -76.5 213 -47.5 203 c 4
 -38.5 200 -33.5 195 -33.5 191 c 4
 -33.5 186 -39.5 181 -51.5 181 c 4
 -90.5 181 -143.5 217 -143.5 272 c 4
 -143.5 313 -110.5 345 -70.5 345 c 4
 -41.5 345 -23.5 335 -23.5 319 c 4
 -23.5 297 -40.5 286 -59.5 285 c 4
-190.5 349 m 4
 -200.5 349 -204.5 354 -204.5 364 c 4
 -204.5 374 -159.5 449 -116.5 449 c 4
 -91.5 449 -34.5 424 -9.5 424 c 4
 19.5 424 39.5 450 47.5 450 c 4
 57.5 450 63.5 443 63.5 433 c 4
 63.5 423 20.5 366 -21.5 366 c 4
 -46.5 366 -104.5 390 -129.5 390 c 4
 -153.5 390 -182.5 349 -190.5 349 c 4
EndSplineSet
Colour: ff00
EndChar
StartChar: uni1F27.sc
Encoding: 1115263 -1 3100
Width: 640
VWidth: 0
Flags: HW
LayerCount: 3
Fore
SplineSet
445 352 m 2
 445 391 429 415 387 422 c 0
 375 424 363 431 363 441 c 0
 363 449 376 453 383 453 c 0
 422 453 447 448 483 448 c 0
 518 448 543 453 582 453 c 0
 589 453 602 449 602 441 c 0
 602 431 590 424 578 422 c 0
 536 415 520 391 520 352 c 2
 520 79 l 2
 520 43 551 32 586 25 c 0
 597 23 610 19 610 9 c 0
 610 1 597 -3 590 -3 c 0
 551 -3 525 3 483 3 c 24
 441 3 414 -3 375 -3 c 0
 368 -3 355 1 355 9 c 0
 355 19 368 23 379 25 c 0
 414 32 445 43 445 79 c 2
 445 211 l 2
 445 216 443 216 441 216 c 16
 388 217 356 218 314 218 c 0
 279 218 243 217 198 216 c 8
 195 216 195 214 195 209 c 2
 195 79 l 2
 195 43 226 32 261 25 c 0
 272 23 285 19 285 9 c 0
 285 1 272 -3 265 -3 c 0
 226 -3 200 3 158 3 c 24
 116 3 89 -3 50 -3 c 0
 43 -3 30 1 30 9 c 0
 30 19 43 23 54 25 c 0
 89 32 120 43 120 79 c 2
 120 352 l 2
 120 392 104 415 62 422 c 0
 50 424 38 431 38 441 c 0
 38 449 51 453 58 453 c 0
 97 453 122 448 158 448 c 0
 193 448 218 453 257 453 c 0
 264 453 277 449 277 441 c 0
 277 431 265 424 253 422 c 0
 211 415 195 392 195 352 c 2
 195 259 l 2
 195 254 200 253 205 253 c 16
 256 252 277 251 317 251 c 0
 351 251 396 252 440 253 c 8
 444 253 445 255 445 261 c 2
 445 352 l 2
337 600 m 0
 317 599 300 586 300 566 c 0
 300 543 320 528 349 518 c 0
 358 515 363 510 363 506 c 0
 363 501 357 496 345 496 c 0
 306 496 253 532 253 587 c 0
 253 628 286 660 326 660 c 0
 355 660 373 650 373 634 c 0
 373 612 356 601 337 600 c 0
206 664 m 0
 196 664 192 669 192 679 c 0
 192 689 237 764 280 764 c 0
 305 764 362 739 387 739 c 0
 416 739 436 765 444 765 c 0
 454 765 460 758 460 748 c 0
 460 738 417 681 375 681 c 0
 350 681 292 705 267 705 c 0
 243 705 214 664 206 664 c 0
EndSplineSet
EndChar
StartChar: uni1F30.ctsc
Encoding: 1115385 -1 3223
Width: 471
VWidth: 0
Flags: HW
LayerCount: 3
Fore
SplineSet
315 3 m 24
 273 3 246 -3 207 -3 c 0
 200 -3 187 1 187 9 c 0
 187 19 200 23 211 25 c 0
 246 32 277 43 277 79 c 2
 277 352 l 2
 277 393 261 415 219 422 c 0
 207 424 195 431 195 441 c 0
 195 449 208 453 215 453 c 0
 254 453 279 448 315 448 c 0
 350 448 375 453 414 453 c 0
 421 453 434 449 434 441 c 0
 434 431 422 424 410 422 c 0
 368 415 352 393 352 352 c 2
 352 79 l 2
 352 43 383 32 418 25 c 0
 429 23 442 19 442 9 c 0
 442 1 429 -3 422 -3 c 0
 383 -3 357 3 315 3 c 24
62.875 382.25 m 0
 39.875 386.25 20.875 399.25 20.875 422.25 c 0
 20.875 445.25 43.875 460.25 67.875 460.25 c 0
 114.875 460.25 140.875 411.25 140.875 363.25 c 0
 140.875 310.25 96.875 266.25 44.875 266.25 c 0
 31.875 266.25 24.875 271.25 24.875 276.25 c 0
 24.875 283.25 33.875 286.25 41.875 290.25 c 0
 68.875 303.25 88.875 321.25 88.875 350.25 c 0
 88.875 366.25 78.875 379.25 62.875 382.25 c 0
EndSplineSet
Colour: ff00
EndChar
StartChar: uni1F30.sc
Encoding: 1115264 -1 3101
Width: 315
VWidth: 0
Flags: HW
LayerCount: 3
Fore
SplineSet
158 3 m 28
 116 3 89 -3 50 -3 c 4
 43 -3 30 1 30 9 c 4
 30 19 43 23 54 25 c 4
 89 32 120 43 120 79 c 6
 120 352 l 6
 120 393 104 415 62 422 c 4
 50 424 38 431 38 441 c 4
 38 449 51 453 58 453 c 4
 97 453 122 448 158 448 c 4
 193 448 218 453 257 453 c 4
 264 453 277 449 277 441 c 4
 277 431 265 424 253 422 c 4
 211 415 195 393 195 352 c 6
 195 79 l 6
 195 43 226 32 261 25 c 4
 272 23 285 19 285 9 c 4
 285 1 272 -3 265 -3 c 4
 226 -3 200 3 158 3 c 28
140 618 m 0
 117 622 98 635 98 658 c 0
 98 681 121 696 145 696 c 0
 192 696 218 647 218 599 c 0
 218 546 174 502 122 502 c 0
 109 502 102 507 102 512 c 0
 102 519 111 522 119 526 c 0
 146 539 166 557 166 586 c 0
 166 602 156 615 140 618 c 0
EndSplineSet
EndChar
StartChar: uni1F31.ctsc
Encoding: 1115386 -1 3224
Width: 470
VWidth: 0
Flags: HW
HStem: -3 28<188.231 254.602 376.398 442.769> 422 31<196.572 257.913 373.087 434.428> 502 24<335.21 371.674>
VStem: 256 52<542.664 616.78> 278 75<40.3738 407.586>
LayerCount: 3
Fore
SplineSet
316 3 m 24xe8
 274 3 247 -3 208 -3 c 0
 201 -3 188 1 188 9 c 0
 188 19 201 23 212 25 c 0
 247 32 278 43 278 79 c 2
 278 352 l 2
 278 393 262 415 220 422 c 0
 208 424 196 431 196 441 c 0
 196 449 209 453 216 453 c 0
 255 453 280 448 316 448 c 0
 351 448 376 453 415 453 c 0
 422 453 435 449 435 441 c 0
 435 431 423 424 411 422 c 0
 369 415 353 393 353 352 c 2
 353 79 l 2
 353 43 384 32 419 25 c 0
 430 23 443 19 443 9 c 0
 443 1 430 -3 423 -3 c 0
 384 -3 358 3 316 3 c 24xe8
101.875 380.25 m 0
 85.875 377.25 75.875 364.25 75.875 348.25 c 0
 75.875 319.25 95.875 301.25 122.875 288.25 c 0
 130.875 284.25 139.875 281.25 139.875 274.25 c 0
 139.875 269.25 132.875 264.25 119.875 264.25 c 0
 66.875 264.25 23.875 308.25 23.875 361.25 c 0xf0
 23.875 408.25 49.875 458.25 96.875 458.25 c 0
 120.875 458.25 143.875 443.25 143.875 420.25 c 0
 143.875 397.25 124.875 384.25 101.875 380.25 c 0
EndSplineSet
Colour: ff00
EndChar
StartChar: uni1F31.sc
Encoding: 1115265 -1 3102
Width: 315
VWidth: 0
Flags: W
HStem: -3 28<30.2309 96.6023 218.398 284.769> 422 31<38.5723 99.9129 215.087 276.428> 502 24<177.21 213.674>
VStem: 98 52<542.664 616.78> 120 75<40.3738 407.586>
LayerCount: 3
Fore
SplineSet
158 3 m 28xe8
 116 3 89 -3 50 -3 c 4
 43 -3 30 1 30 9 c 4
 30 19 43 23 54 25 c 4
 89 32 120 43 120 79 c 6
 120 352 l 6
 120 393 104 415 62 422 c 4
 50 424 38 431 38 441 c 4
 38 449 51 453 58 453 c 4
 97 453 122 448 158 448 c 4
 193 448 218 453 257 453 c 4
 264 453 277 449 277 441 c 4
 277 431 265 424 253 422 c 4
 211 415 195 393 195 352 c 6
 195 79 l 6
 195 43 226 32 261 25 c 4
 272 23 285 19 285 9 c 4
 285 1 272 -3 265 -3 c 4
 226 -3 200 3 158 3 c 28xe8
176 618 m 0
 160 615 150 602 150 586 c 0
 150 557 170 539 197 526 c 0
 205 522 214 519 214 512 c 0
 214 507 207 502 194 502 c 0
 141 502 98 546 98 599 c 0xf0
 98 646 124 696 171 696 c 0
 195 696 218 681 218 658 c 0
 218 635 199 622 176 618 c 0
EndSplineSet
EndChar
StartChar: uni1F32.ctsc
Encoding: 1115387 -1 3225
Width: 549
VWidth: 0
Flags: HW
LayerCount: 3
Fore
SplineSet
393.125 3 m 24
 351.125 3 324.125 -3 285.125 -3 c 0
 278.125 -3 265.125 1 265.125 9 c 0
 265.125 19 278.125 23 289.125 25 c 0
 324.125 32 355.125 43 355.125 79 c 2
 355.125 352 l 2
 355.125 393 339.125 415 297.125 422 c 0
 285.125 424 273.125 431 273.125 441 c 0
 273.125 449 286.125 453 293.125 453 c 0
 332.125 453 357.125 448 393.125 448 c 0
 428.125 448 453.125 453 492.125 453 c 0
 499.125 453 512.125 449 512.125 441 c 0
 512.125 431 500.125 424 488.125 422 c 0
 446.125 415 430.125 393 430.125 352 c 2
 430.125 79 l 2
 430.125 43 461.125 32 496.125 25 c 0
 507.125 23 520.125 19 520.125 9 c 0
 520.125 1 507.125 -3 500.125 -3 c 0
 461.125 -3 435.125 3 393.125 3 c 24
58 377.25 m 0
 35 381.25 16 394.25 16 417.25 c 0
 16 440.25 39 455.25 63 455.25 c 0
 110 455.25 136 406.25 136 358.25 c 0
 136 305.25 92 261.25 40 261.25 c 0
 27 261.25 20 266.25 20 271.25 c 0
 20 278.25 29 281.25 37 285.25 c 0
 64 298.25 84 316.25 84 345.25 c 0
 84 361.25 74 374.25 58 377.25 c 0
226 277.25 m 0
 205 313.25 155 411.25 155 421.25 c 0
 155 437.25 174 462.25 193 462.25 c 0
 201 462.25 215 456.25 218 444.25 c 0
 228 408.25 259 286.25 259 268.25 c 0
 259 259.25 259 255.25 250 255.25 c 0
 242 255.25 232 267.25 226 277.25 c 0
EndSplineSet
Colour: ff00
EndChar
StartChar: uni1F32.sc
Encoding: 1115266 -1 3103
Width: 315
VWidth: 0
Flags: HW
LayerCount: 3
Fore
SplineSet
158 3 m 28
 116 3 89 -3 50 -3 c 4
 43 -3 30 1 30 9 c 4
 30 19 43 23 54 25 c 4
 89 32 120 43 120 79 c 6
 120 352 l 6
 120 393 104 415 62 422 c 4
 50 424 38 431 38 441 c 4
 38 449 51 453 58 453 c 4
 97 453 122 448 158 448 c 4
 193 448 218 453 257 453 c 4
 264 453 277 449 277 441 c 4
 277 431 265 424 253 422 c 4
 211 415 195 393 195 352 c 6
 195 79 l 6
 195 43 226 32 261 25 c 4
 272 23 285 19 285 9 c 4
 285 1 272 -3 265 -3 c 4
 226 -3 200 3 158 3 c 28
69 618 m 0
 46 622 27 635 27 658 c 0
 27 681 50 696 74 696 c 0
 121 696 147 647 147 599 c 0
 147 546 103 502 51 502 c 0
 38 502 31 507 31 512 c 0
 31 519 40 522 48 526 c 0
 75 539 95 557 95 586 c 0
 95 602 85 615 69 618 c 0
237 518 m 0
 216 554 166 652 166 662 c 0
 166 678 185 703 204 703 c 0
 212 703 226 697 229 685 c 0
 239 649 270 527 270 509 c 0
 270 500 270 496 261 496 c 0
 253 496 243 508 237 518 c 0
EndSplineSet
EndChar
StartChar: uni1F33.ctsc
Encoding: 1115388 -1 3226
Width: 554
VWidth: 0
Flags: HW
LayerCount: 3
Fore
SplineSet
399 3 m 24
 357 3 330 -3 291 -3 c 0
 284 -3 271 1 271 9 c 0
 271 19 284 23 295 25 c 0
 330 32 361 43 361 79 c 2
 361 352 l 2
 361 393 345 415 303 422 c 0
 291 424 279 431 279 441 c 0
 279 449 292 453 299 453 c 0
 338 453 363 448 399 448 c 0
 434 448 459 453 498 453 c 0
 505 453 518 449 518 441 c 0
 518 431 506 424 494 422 c 0
 452 415 436 393 436 352 c 2
 436 79 l 2
 436 43 467 32 502 25 c 0
 513 23 526 19 526 9 c 0
 526 1 513 -3 506 -3 c 0
 467 -3 441 3 399 3 c 24
92.875 374.25 m 0
 76.875 371.25 66.875 358.25 66.875 342.25 c 0
 66.875 313.25 86.875 295.25 113.875 282.25 c 0
 121.875 278.25 130.875 275.25 130.875 268.25 c 0
 130.875 263.25 123.875 258.25 110.875 258.25 c 0
 57.875 258.25 14.875 302.25 14.875 355.25 c 0
 14.875 402.25 40.875 452.25 87.875 452.25 c 0
 111.875 452.25 134.875 437.25 134.875 414.25 c 0
 134.875 391.25 115.875 378.25 92.875 374.25 c 0
224.875 274.25 m 0
 203.875 310.25 153.875 408.25 153.875 418.25 c 0
 153.875 434.25 172.875 459.25 191.875 459.25 c 0
 199.875 459.25 213.875 453.25 216.875 441.25 c 0
 226.875 405.25 257.875 283.25 257.875 265.25 c 0
 257.875 256.25 257.875 252.25 248.875 252.25 c 0
 240.875 252.25 230.875 264.25 224.875 274.25 c 0
EndSplineSet
Colour: ff00
EndChar
StartChar: uni1F33.sc
Encoding: 1115267 -1 3104
Width: 315
VWidth: 0
Flags: HW
LayerCount: 3
Fore
SplineSet
158 3 m 28
 116 3 89 -3 50 -3 c 4
 43 -3 30 1 30 9 c 4
 30 19 43 23 54 25 c 4
 89 32 120 43 120 79 c 6
 120 352 l 6
 120 393 104 415 62 422 c 4
 50 424 38 431 38 441 c 4
 38 449 51 453 58 453 c 4
 97 453 122 448 158 448 c 4
 193 448 218 453 257 453 c 4
 264 453 277 449 277 441 c 4
 277 431 265 424 253 422 c 4
 211 415 195 393 195 352 c 6
 195 79 l 6
 195 43 226 32 261 25 c 4
 272 23 285 19 285 9 c 4
 285 1 272 -3 265 -3 c 4
 226 -3 200 3 158 3 c 28
105 618 m 0
 89 615 79 602 79 586 c 0
 79 557 99 539 126 526 c 0
 134 522 143 519 143 512 c 0
 143 507 136 502 123 502 c 0
 70 502 27 546 27 599 c 0
 27 646 53 696 100 696 c 0
 124 696 147 681 147 658 c 0
 147 635 128 622 105 618 c 0
237 518 m 0
 216 554 166 652 166 662 c 0
 166 678 185 703 204 703 c 0
 212 703 226 697 229 685 c 0
 239 649 270 527 270 509 c 0
 270 500 270 496 261 496 c 0
 253 496 243 508 237 518 c 0
EndSplineSet
EndChar
StartChar: uni1F34.ctsc
Encoding: 1115389 -1 3227
Width: 315
VWidth: 0
Flags: HW
LayerCount: 3
Fore
SplineSet
158 3 m 24
 116 3 89 -3 50 -3 c 0
 43 -3 30 1 30 9 c 0
 30 19 43 23 54 25 c 0
 89 32 120 43 120 79 c 2
 120 352 l 2
 120 393 104 415 62 422 c 0
 50 424 38 431 38 441 c 0
 38 449 51 453 58 453 c 0
 97 453 122 448 158 448 c 0
 193 448 218 453 257 453 c 0
 264 453 277 449 277 441 c 0
 277 431 265 424 253 422 c 0
 211 415 195 393 195 352 c 2
 195 79 l 2
 195 43 226 32 261 25 c 0
 272 23 285 19 285 9 c 0
 285 1 272 -3 265 -3 c 0
 226 -3 200 3 158 3 c 24
-191.5 349 m 4
 -214.5 353 -233.5 366 -233.5 389 c 4
 -233.5 412 -210.5 427 -186.5 427 c 4
 -139.5 427 -113.5 378 -113.5 330 c 4
 -113.5 277 -157.5 233 -209.5 233 c 4
 -222.5 233 -229.5 238 -229.5 243 c 4
 -229.5 250 -220.5 253 -212.5 257 c 4
 -185.5 270 -165.5 288 -165.5 317 c 4
 -165.5 333 -175.5 346 -191.5 349 c 4
-61.5 249 m 4
 -67.5 239 -77.5 227 -85.5 227 c 4
 -94.5 227 -94.5 231 -94.5 240 c 4
 -94.5 258 -63.5 380 -53.5 416 c 4
 -50.5 428 -36.5 434 -28.5 434 c 4
 -9.5 434 9.5 409 9.5 393 c 4
 9.5 383 -40.5 285 -61.5 249 c 4
EndSplineSet
Colour: ff00
EndChar
StartChar: uni1F34.sc
Encoding: 1115268 -1 3105
Width: 315
VWidth: 0
Flags: HW
LayerCount: 3
Fore
SplineSet
158 3 m 28
 116 3 89 -3 50 -3 c 4
 43 -3 30 1 30 9 c 4
 30 19 43 23 54 25 c 4
 89 32 120 43 120 79 c 6
 120 352 l 6
 120 393 104 415 62 422 c 4
 50 424 38 431 38 441 c 4
 38 449 51 453 58 453 c 4
 97 453 122 448 158 448 c 4
 193 448 218 453 257 453 c 4
 264 453 277 449 277 441 c 4
 277 431 265 424 253 422 c 4
 211 415 195 393 195 352 c 6
 195 79 l 6
 195 43 226 32 261 25 c 4
 272 23 285 19 285 9 c 4
 285 1 272 -3 265 -3 c 4
 226 -3 200 3 158 3 c 28
69 618 m 0
 46 622 27 635 27 658 c 0
 27 681 50 696 74 696 c 0
 121 696 147 647 147 599 c 0
 147 546 103 502 51 502 c 0
 38 502 31 507 31 512 c 0
 31 519 40 522 48 526 c 0
 75 539 95 557 95 586 c 0
 95 602 85 615 69 618 c 0
199 518 m 0
 193 508 183 496 175 496 c 0
 166 496 166 500 166 509 c 0
 166 527 197 649 207 685 c 0
 210 697 224 703 232 703 c 0
 251 703 270 678 270 662 c 0
 270 652 220 554 199 518 c 0
EndSplineSet
EndChar
StartChar: uni1F35.ctsc
Encoding: 1115390 -1 3228
Width: 566
VWidth: 0
Flags: HW
LayerCount: 3
Fore
SplineSet
409 3 m 24
 367 3 340 -3 301 -3 c 0
 294 -3 281 1 281 9 c 0
 281 19 294 23 305 25 c 0
 340 32 371 43 371 79 c 2
 371 352 l 2
 371 393 355 415 313 422 c 0
 301 424 289 431 289 441 c 0
 289 449 302 453 309 453 c 0
 348 453 373 448 409 448 c 0
 444 448 469 453 508 453 c 0
 515 453 528 449 528 441 c 0
 528 431 516 424 504 422 c 0
 462 415 446 393 446 352 c 2
 446 79 l 2
 446 43 477 32 512 25 c 0
 523 23 536 19 536 9 c 0
 536 1 523 -3 516 -3 c 0
 477 -3 451 3 409 3 c 24
92.75 367.5 m 0
 76.75 364.5 66.75 351.5 66.75 335.5 c 0
 66.75 306.5 86.75 288.5 113.75 275.5 c 0
 121.75 271.5 130.75 268.5 130.75 261.5 c 0
 130.75 256.5 123.75 251.5 110.75 251.5 c 0
 57.75 251.5 14.75 295.5 14.75 348.5 c 0
 14.75 395.5 40.75 445.5 87.75 445.5 c 0
 111.75 445.5 134.75 430.5 134.75 407.5 c 0
 134.75 384.5 115.75 371.5 92.75 367.5 c 0
186.75 267.5 m 0
 180.75 257.5 170.75 245.5 162.75 245.5 c 0
 153.75 245.5 153.75 249.5 153.75 258.5 c 0
 153.75 276.5 184.75 398.5 194.75 434.5 c 0
 197.75 446.5 211.75 452.5 219.75 452.5 c 0
 238.75 452.5 257.75 427.5 257.75 411.5 c 0
 257.75 401.5 207.75 303.5 186.75 267.5 c 0
EndSplineSet
Colour: ff00
EndChar
StartChar: uni1F36.ctsc
Encoding: 1115391 -1 3229
Width: 315
VWidth: 0
Flags: HW
LayerCount: 3
Fore
SplineSet
158 3 m 24
 116 3 89 -3 50 -3 c 0
 43 -3 30 1 30 9 c 0
 30 19 43 23 54 25 c 0
 89 32 120 43 120 79 c 2
 120 352 l 2
 120 393 104 415 62 422 c 0
 50 424 38 431 38 441 c 0
 38 449 51 453 58 453 c 0
 97 453 122 448 158 448 c 0
 193 448 218 453 257 453 c 0
 264 453 277 449 277 441 c 0
 277 431 265 424 253 422 c 0
 211 415 195 393 195 352 c 2
 195 79 l 2
 195 43 226 32 261 25 c 0
 272 23 285 19 285 9 c 0
 285 1 272 -3 265 -3 c 0
 226 -3 200 3 158 3 c 24
-99.5 285 m 4
 -118.5 286 -135.5 297 -135.5 319 c 4
 -135.5 335 -117.5 345 -88.5 345 c 4
 -48.5 345 -15.5 313 -15.5 272 c 4
 -15.5 217 -68.5 181 -107.5 181 c 4
 -119.5 181 -125.5 186 -125.5 191 c 4
 -125.5 195 -120.5 200 -111.5 203 c 4
 -82.5 213 -62.5 228 -62.5 251 c 4
 -62.5 271 -79.5 284 -99.5 285 c 4
-192.5 349 m 4
 -202.5 349 -206.5 354 -206.5 364 c 4
 -206.5 374 -161.5 449 -118.5 449 c 4
 -93.5 449 -36.5 424 -11.5 424 c 4
 17.5 424 37.5 450 45.5 450 c 4
 55.5 450 61.5 443 61.5 433 c 4
 61.5 423 18.5 366 -23.5 366 c 4
 -48.5 366 -106.5 390 -131.5 390 c 4
 -155.5 390 -184.5 349 -192.5 349 c 4
EndSplineSet
Colour: ff00
EndChar
StartChar: uni1F36.sc
Encoding: 1115270 -1 3107
Width: 315
VWidth: 0
Flags: HW
LayerCount: 3
Fore
SplineSet
158 3 m 28
 116 3 89 -3 50 -3 c 4
 43 -3 30 1 30 9 c 4
 30 19 43 23 54 25 c 4
 89 32 120 43 120 79 c 6
 120 352 l 6
 120 393 104 415 62 422 c 4
 50 424 38 431 38 441 c 4
 38 449 51 453 58 453 c 4
 97 453 122 448 158 448 c 4
 193 448 218 453 257 453 c 4
 264 453 277 449 277 441 c 4
 277 431 265 424 253 422 c 4
 211 415 195 393 195 352 c 6
 195 79 l 6
 195 43 226 32 261 25 c 4
 272 23 285 19 285 9 c 4
 285 1 272 -3 265 -3 c 4
 226 -3 200 3 158 3 c 28
138 600 m 0
 119 601 102 612 102 634 c 0
 102 650 120 660 149 660 c 0
 189 660 222 628 222 587 c 0
 222 532 169 496 130 496 c 0
 118 496 112 501 112 506 c 0
 112 510 117 515 126 518 c 0
 155 528 175 543 175 566 c 0
 175 586 158 599 138 600 c 0
45 664 m 0
 35 664 31 669 31 679 c 0
 31 689 76 764 119 764 c 0
 144 764 201 739 226 739 c 0
 255 739 275 765 283 765 c 0
 293 765 299 758 299 748 c 0
 299 738 256 681 214 681 c 0
 189 681 131 705 106 705 c 0
 82 705 53 664 45 664 c 0
EndSplineSet
EndChar
StartChar: uni1F37.ctsc
Encoding: 1115392 -1 3230
Width: 315
VWidth: 0
Flags: HW
LayerCount: 3
Fore
SplineSet
158 3 m 24
 116 3 89 -3 50 -3 c 0
 43 -3 30 1 30 9 c 0
 30 19 43 23 54 25 c 0
 89 32 120 43 120 79 c 2
 120 352 l 2
 120 393 104 415 62 422 c 0
 50 424 38 431 38 441 c 0
 38 449 51 453 58 453 c 0
 97 453 122 448 158 448 c 0
 193 448 218 453 257 453 c 0
 264 453 277 449 277 441 c 0
 277 431 265 424 253 422 c 0
 211 415 195 393 195 352 c 2
 195 79 l 2
 195 43 226 32 261 25 c 0
 272 23 285 19 285 9 c 0
 285 1 272 -3 265 -3 c 0
 226 -3 200 3 158 3 c 24
-64.5 284 m 4
 -84.5 283 -101.5 270 -101.5 250 c 4
 -101.5 227 -81.5 212 -52.5 202 c 4
 -43.5 199 -38.5 194 -38.5 190 c 4
 -38.5 185 -44.5 180 -56.5 180 c 4
 -95.5 180 -148.5 216 -148.5 271 c 4
 -148.5 312 -115.5 344 -75.5 344 c 4
 -46.5 344 -28.5 334 -28.5 318 c 4
 -28.5 296 -45.5 285 -64.5 284 c 4
-195.5 348 m 4
 -205.5 348 -209.5 353 -209.5 363 c 4
 -209.5 373 -164.5 448 -121.5 448 c 4
 -96.5 448 -39.5 423 -14.5 423 c 4
 14.5 423 34.5 449 42.5 449 c 4
 52.5 449 58.5 442 58.5 432 c 4
 58.5 422 15.5 365 -26.5 365 c 4
 -51.5 365 -109.5 389 -134.5 389 c 4
 -158.5 389 -187.5 348 -195.5 348 c 4
EndSplineSet
Colour: ff00
EndChar
StartChar: uni1F37.sc
Encoding: 1115271 -1 3108
Width: 315
VWidth: 0
Flags: HW
LayerCount: 3
Fore
SplineSet
158 3 m 28
 116 3 89 -3 50 -3 c 4
 43 -3 30 1 30 9 c 4
 30 19 43 23 54 25 c 4
 89 32 120 43 120 79 c 6
 120 352 l 6
 120 393 104 415 62 422 c 4
 50 424 38 431 38 441 c 4
 38 449 51 453 58 453 c 4
 97 453 122 448 158 448 c 4
 193 448 218 453 257 453 c 4
 264 453 277 449 277 441 c 4
 277 431 265 424 253 422 c 4
 211 415 195 393 195 352 c 6
 195 79 l 6
 195 43 226 32 261 25 c 4
 272 23 285 19 285 9 c 4
 285 1 272 -3 265 -3 c 4
 226 -3 200 3 158 3 c 28
176 600 m 0
 156 599 139 586 139 566 c 0
 139 543 159 528 188 518 c 0
 197 515 202 510 202 506 c 0
 202 501 196 496 184 496 c 0
 145 496 92 532 92 587 c 0
 92 628 125 660 165 660 c 0
 194 660 212 650 212 634 c 0
 212 612 195 601 176 600 c 0
45 664 m 0
 35 664 31 669 31 679 c 0
 31 689 76 764 119 764 c 0
 144 764 201 739 226 739 c 0
 255 739 275 765 283 765 c 0
 293 765 299 758 299 748 c 0
 299 738 256 681 214 681 c 0
 189 681 131 705 106 705 c 0
 82 705 53 664 45 664 c 0
EndSplineSet
EndChar
StartChar: uni1F40.ctsc
Encoding: 1115393 -1 3231
Width: 713
VWidth: 0
Flags: HW
LayerCount: 3
Fore
SplineSet
394 426 m 0
 300 426 248 332 248 237 c 0
 248 120 304 22 416 22 c 0
 531 22 564 138 564 217 c 0
 564 318 498 426 394 426 c 0
158 222 m 0
 158 342 273 458 400 458 c 0
 531 458 654 360 654 226 c 0
 654 103 564 -14 400 -14 c 0
 267 -14 158 93 158 222 c 0
56.5 387 m 0
 33.5 391 14.5 404 14.5 427 c 0
 14.5 450 37.5 465 61.5 465 c 0
 108.5 465 134.5 416 134.5 368 c 0
 134.5 315 90.5 271 38.5 271 c 0
 25.5 271 18.5 276 18.5 281 c 0
 18.5 288 27.5 291 35.5 295 c 0
 62.5 308 82.5 326 82.5 355 c 0
 82.5 371 72.5 384 56.5 387 c 0
EndSplineSet
Colour: ff00
EndChar
StartChar: uni1F40.sc
Encoding: 1115272 -1 3109
Width: 616
VWidth: 0
Flags: HW
LayerCount: 3
Fore
SplineSet
296 426 m 0
 202 426 150 332 150 237 c 0
 150 120 206 22 318 22 c 0
 433 22 466 138 466 217 c 0
 466 318 400 426 296 426 c 0
60 222 m 0
 60 342 175 458 302 458 c 0
 433 458 556 360 556 226 c 0
 556 103 466 -14 302 -14 c 0
 169 -14 60 93 60 222 c 0
283 618 m 0
 260 622 241 635 241 658 c 0
 241 681 264 696 288 696 c 0
 335 696 361 647 361 599 c 0
 361 546 317 502 265 502 c 0
 252 502 245 507 245 512 c 0
 245 519 254 522 262 526 c 0
 289 539 309 557 309 586 c 0
 309 602 299 615 283 618 c 0
EndSplineSet
EndChar
StartChar: uni1F41.ctsc
Encoding: 1115394 -1 3232
Width: 722
VWidth: 0
Flags: HW
LayerCount: 3
Fore
SplineSet
403 426 m 0
 309 426 257 332 257 237 c 0
 257 120 313 22 425 22 c 0
 540 22 573 138 573 217 c 0
 573 318 507 426 403 426 c 0
167 222 m 0
 167 342 282 458 409 458 c 0
 540 458 663 360 663 226 c 0
 663 103 573 -14 409 -14 c 0
 276 -14 167 93 167 222 c 0
97.5 384 m 0
 81.5 381 71.5 368 71.5 352 c 0
 71.5 323 91.5 305 118.5 292 c 0
 126.5 288 135.5 285 135.5 278 c 0
 135.5 273 128.5 268 115.5 268 c 0
 62.5 268 19.5 312 19.5 365 c 0
 19.5 412 45.5 462 92.5 462 c 0
 116.5 462 139.5 447 139.5 424 c 0
 139.5 401 120.5 388 97.5 384 c 0
EndSplineSet
Colour: ff00
EndChar
StartChar: uni1F41.sc
Encoding: 1115273 -1 3110
Width: 616
VWidth: 0
Flags: HW
LayerCount: 3
Fore
SplineSet
296 426 m 0
 202 426 150 332 150 237 c 0
 150 120 206 22 318 22 c 0
 433 22 466 138 466 217 c 0
 466 318 400 426 296 426 c 0
60 222 m 0
 60 342 175 458 302 458 c 0
 433 458 556 360 556 226 c 0
 556 103 466 -14 302 -14 c 0
 169 -14 60 93 60 222 c 0
319 618 m 0
 303 615 293 602 293 586 c 0
 293 557 313 539 340 526 c 0
 348 522 357 519 357 512 c 0
 357 507 350 502 337 502 c 0
 284 502 241 546 241 599 c 0
 241 646 267 696 314 696 c 0
 338 696 361 681 361 658 c 0
 361 635 342 622 319 618 c 0
EndSplineSet
EndChar
StartChar: uni1F42.ctsc
Encoding: 1115395 -1 3233
Width: 865
VWidth: 0
Flags: HW
LayerCount: 3
Fore
SplineSet
546 426 m 0
 452 426 400 332 400 237 c 0
 400 120 456 22 568 22 c 0
 683 22 716 138 716 217 c 0
 716 318 650 426 546 426 c 0
310 222 m 0
 310 342 425 458 552 458 c 0
 683 458 806 360 806 226 c 0
 806 103 716 -14 552 -14 c 0
 419 -14 310 93 310 222 c 0
62.5 381 m 0
 39.5 385 20.5 398 20.5 421 c 0
 20.5 444 43.5 459 67.5 459 c 0
 114.5 459 140.5 410 140.5 362 c 0
 140.5 309 96.5 265 44.5 265 c 0
 31.5 265 24.5 270 24.5 275 c 0
 24.5 282 33.5 285 41.5 289 c 0
 68.5 302 88.5 320 88.5 349 c 0
 88.5 365 78.5 378 62.5 381 c 0
230.5 281 m 0
 209.5 317 159.5 415 159.5 425 c 0
 159.5 441 178.5 466 197.5 466 c 0
 205.5 466 219.5 460 222.5 448 c 0
 232.5 412 263.5 290 263.5 272 c 0
 263.5 263 263.5 259 254.5 259 c 0
 246.5 259 236.5 271 230.5 281 c 0
EndSplineSet
Colour: ff00
EndChar
StartChar: uni1F42.sc
Encoding: 1115274 -1 3111
Width: 616
VWidth: 0
Flags: HW
LayerCount: 3
Fore
SplineSet
296 426 m 0
 202 426 150 332 150 237 c 0
 150 120 206 22 318 22 c 0
 433 22 466 138 466 217 c 0
 466 318 400 426 296 426 c 0
60 222 m 0
 60 342 175 458 302 458 c 0
 433 458 556 360 556 226 c 0
 556 103 466 -14 302 -14 c 0
 169 -14 60 93 60 222 c 0
212 618 m 0
 189 622 170 635 170 658 c 0
 170 681 193 696 217 696 c 0
 264 696 290 647 290 599 c 0
 290 546 246 502 194 502 c 0
 181 502 174 507 174 512 c 0
 174 519 183 522 191 526 c 0
 218 539 238 557 238 586 c 0
 238 602 228 615 212 618 c 0
380 518 m 0
 359 554 309 652 309 662 c 0
 309 678 328 703 347 703 c 0
 355 703 369 697 372 685 c 0
 382 649 413 527 413 509 c 0
 413 500 413 496 404 496 c 0
 396 496 386 508 380 518 c 0
EndSplineSet
EndChar
StartChar: uni1F43.ctsc
Encoding: 1115396 -1 3234
Width: 616
VWidth: 0
Flags: HW
LayerCount: 3
Fore
SplineSet
296 426 m 0
 202 426 150 332 150 237 c 0
 150 120 206 22 318 22 c 0
 433 22 466 138 466 217 c 0
 466 318 400 426 296 426 c 0
60 222 m 0
 60 342 175 458 302 458 c 0
 433 458 556 360 556 226 c 0
 556 103 466 -14 302 -14 c 0
 169 -14 60 93 60 222 c 0
-139.5 377 m 4
 -155.5 374 -165.5 361 -165.5 345 c 4
 -165.5 316 -145.5 298 -118.5 285 c 4
 -110.5 281 -101.5 278 -101.5 271 c 4
 -101.5 266 -108.5 261 -121.5 261 c 4
 -174.5 261 -217.5 305 -217.5 358 c 4
 -217.5 405 -191.5 455 -144.5 455 c 4
 -120.5 455 -97.5 440 -97.5 417 c 4
 -97.5 394 -116.5 381 -139.5 377 c 4
-7.5 277 m 4
 -28.5 313 -78.5 411 -78.5 421 c 4
 -78.5 437 -59.5 462 -40.5 462 c 4
 -32.5 462 -18.5 456 -15.5 444 c 4
 -5.5 408 25.5 286 25.5 268 c 4
 25.5 259 25.5 255 16.5 255 c 4
 8.5 255 -1.5 267 -7.5 277 c 4
EndSplineSet
Colour: ff00
EndChar
StartChar: uni1F43.sc
Encoding: 1115275 -1 3112
Width: 616
VWidth: 0
Flags: HW
LayerCount: 3
Fore
SplineSet
296 426 m 0
 202 426 150 332 150 237 c 0
 150 120 206 22 318 22 c 0
 433 22 466 138 466 217 c 0
 466 318 400 426 296 426 c 0
60 222 m 0
 60 342 175 458 302 458 c 0
 433 458 556 360 556 226 c 0
 556 103 466 -14 302 -14 c 0
 169 -14 60 93 60 222 c 0
248 618 m 0
 232 615 222 602 222 586 c 0
 222 557 242 539 269 526 c 0
 277 522 286 519 286 512 c 0
 286 507 279 502 266 502 c 0
 213 502 170 546 170 599 c 0
 170 646 196 696 243 696 c 0
 267 696 290 681 290 658 c 0
 290 635 271 622 248 618 c 0
380 518 m 0
 359 554 309 652 309 662 c 0
 309 678 328 703 347 703 c 0
 355 703 369 697 372 685 c 0
 382 649 413 527 413 509 c 0
 413 500 413 496 404 496 c 0
 396 496 386 508 380 518 c 0
EndSplineSet
EndChar
StartChar: uni1F44.ctsc
Encoding: 1115397 -1 3235
Width: 616
VWidth: 0
Flags: HW
LayerCount: 3
Fore
SplineSet
296 426 m 0
 202 426 150 332 150 237 c 0
 150 120 206 22 318 22 c 0
 433 22 466 138 466 217 c 0
 466 318 400 426 296 426 c 0
60 222 m 0
 60 342 175 458 302 458 c 0
 433 458 556 360 556 226 c 0
 556 103 466 -14 302 -14 c 0
 169 -14 60 93 60 222 c 0
-130 384 m 4
 -153 388 -172 401 -172 424 c 4
 -172 447 -149 462 -125 462 c 4
 -78 462 -52 413 -52 365 c 4
 -52 312 -96 268 -148 268 c 4
 -161 268 -168 273 -168 278 c 4
 -168 285 -159 288 -151 292 c 4
 -124 305 -104 323 -104 352 c 4
 -104 368 -114 381 -130 384 c 4
0 284 m 4
 -6 274 -16 262 -24 262 c 4
 -33 262 -33 266 -33 275 c 4
 -33 293 -2 415 8 451 c 4
 11 463 25 469 33 469 c 4
 52 469 71 444 71 428 c 4
 71 418 21 320 0 284 c 4
EndSplineSet
Colour: ff00
EndChar
StartChar: uni1F44.sc
Encoding: 1115276 -1 3113
Width: 616
VWidth: 0
Flags: HW
LayerCount: 3
Fore
SplineSet
296 426 m 0
 202 426 150 332 150 237 c 0
 150 120 206 22 318 22 c 0
 433 22 466 138 466 217 c 0
 466 318 400 426 296 426 c 0
60 222 m 0
 60 342 175 458 302 458 c 0
 433 458 556 360 556 226 c 0
 556 103 466 -14 302 -14 c 0
 169 -14 60 93 60 222 c 0
212 618 m 0
 189 622 170 635 170 658 c 0
 170 681 193 696 217 696 c 0
 264 696 290 647 290 599 c 0
 290 546 246 502 194 502 c 0
 181 502 174 507 174 512 c 0
 174 519 183 522 191 526 c 0
 218 539 238 557 238 586 c 0
 238 602 228 615 212 618 c 0
342 518 m 0
 336 508 326 496 318 496 c 0
 309 496 309 500 309 509 c 0
 309 527 340 649 350 685 c 0
 353 697 367 703 375 703 c 0
 394 703 413 678 413 662 c 0
 413 652 363 554 342 518 c 0
EndSplineSet
EndChar
StartChar: uni1F45.ctsc
Encoding: 1115398 -1 3236
Width: 616
VWidth: 0
Flags: HW
LayerCount: 3
Fore
SplineSet
296 426 m 0
 202 426 150 332 150 237 c 0
 150 120 206 22 318 22 c 0
 433 22 466 138 466 217 c 0
 466 318 400 426 296 426 c 0
60 222 m 0
 60 342 175 458 302 458 c 0
 433 458 556 360 556 226 c 0
 556 103 466 -14 302 -14 c 0
 169 -14 60 93 60 222 c 0
-94 382 m 4
 -110 379 -120 366 -120 350 c 4
 -120 321 -100 303 -73 290 c 4
 -65 286 -56 283 -56 276 c 4
 -56 271 -63 266 -76 266 c 4
 -129 266 -172 310 -172 363 c 4
 -172 410 -146 460 -99 460 c 4
 -75 460 -52 445 -52 422 c 4
 -52 399 -71 386 -94 382 c 4
0 282 m 4
 -6 272 -16 260 -24 260 c 4
 -33 260 -33 264 -33 273 c 4
 -33 291 -2 413 8 449 c 4
 11 461 25 467 33 467 c 4
 52 467 71 442 71 426 c 4
 71 416 21 318 0 282 c 4
EndSplineSet
Colour: ff00
EndChar
StartChar: uni1F45.sc
Encoding: 1115277 -1 3114
Width: 616
VWidth: 0
Flags: HW
LayerCount: 3
Fore
SplineSet
296 426 m 0
 202 426 150 332 150 237 c 0
 150 120 206 22 318 22 c 0
 433 22 466 138 466 217 c 0
 466 318 400 426 296 426 c 0
60 222 m 0
 60 342 175 458 302 458 c 0
 433 458 556 360 556 226 c 0
 556 103 466 -14 302 -14 c 0
 169 -14 60 93 60 222 c 0
248 618 m 0
 232 615 222 602 222 586 c 0
 222 557 242 539 269 526 c 0
 277 522 286 519 286 512 c 0
 286 507 279 502 266 502 c 0
 213 502 170 546 170 599 c 0
 170 646 196 696 243 696 c 0
 267 696 290 681 290 658 c 0
 290 635 271 622 248 618 c 0
342 518 m 0
 336 508 326 496 318 496 c 0
 309 496 309 500 309 509 c 0
 309 527 340 649 350 685 c 0
 353 697 367 703 375 703 c 0
 394 703 413 678 413 662 c 0
 413 652 363 554 342 518 c 0
EndSplineSet
EndChar
StartChar: uni1F50.ctsc
Encoding: 1115399 -1 3237
Width: 731
VWidth: 0
Flags: HW
LayerCount: 3
Fore
SplineSet
395 79 m 2
 395 144 l 2
 395 348 328 425 246 425 c 0
 211 425 181 405 169 405 c 0
 162 405 161 408 161 414 c 0
 161 421 208 465 264 465 c 0
 331 465 391 432 428 330 c 0
 431 321 438 326 439 330 c 0
 471 417 541 464 608 464 c 0
 664 464 711 421 711 414 c 0
 711 408 710 405 703 405 c 0
 691 405 660 425 625 425 c 0
 543 425 470 324 470 168 c 2
 470 79 l 2
 470 43 501 32 536 25 c 0
 547 23 560 19 560 9 c 0
 560 1 547 -3 540 -3 c 0
 501 -3 475 3 433 3 c 24
 391 3 364 -3 325 -3 c 0
 318 -3 305 1 305 9 c 0
 305 19 318 23 329 25 c 0
 364 32 395 43 395 79 c 2
63 378.5 m 0
 40 382.5 21 395.5 21 418.5 c 0
 21 441.5 44 456.5 68 456.5 c 0
 115 456.5 141 407.5 141 359.5 c 0
 141 306.5 97 262.5 45 262.5 c 0
 32 262.5 25 267.5 25 272.5 c 0
 25 279.5 34 282.5 42 286.5 c 0
 69 299.5 89 317.5 89 346.5 c 0
 89 362.5 79 375.5 63 378.5 c 0
EndSplineSet
Colour: ff00
EndChar
StartChar: uni1F50.sc
Encoding: 1115278 -1 3115
Width: 590
VWidth: 0
Flags: HW
LayerCount: 3
Fore
SplineSet
254 79 m 2
 254 144 l 2
 254 348 187 425 105 425 c 0
 70 425 40 405 28 405 c 0
 21 405 20 408 20 414 c 0
 20 421 67 465 123 465 c 0
 190 465 250 432 287 330 c 0
 290 321 297 326 298 330 c 0
 330 417 400 464 467 464 c 0
 523 464 570 421 570 414 c 0
 570 408 569 405 562 405 c 0
 550 405 519 425 484 425 c 0
 402 425 329 324 329 168 c 2
 329 79 l 2
 329 43 360 32 395 25 c 0
 406 23 419 19 419 9 c 0
 419 1 406 -3 399 -3 c 0
 360 -3 334 3 292 3 c 24
 250 3 223 -3 184 -3 c 0
 177 -3 164 1 164 9 c 0
 164 19 177 23 188 25 c 0
 223 32 254 43 254 79 c 2
275 618 m 0
 252 622 233 635 233 658 c 0
 233 681 256 696 280 696 c 0
 327 696 353 647 353 599 c 0
 353 546 309 502 257 502 c 0
 244 502 237 507 237 512 c 0
 237 519 246 522 254 526 c 0
 281 539 301 557 301 586 c 0
 301 602 291 615 275 618 c 0
EndSplineSet
EndChar
StartChar: uni1F51.ctsc
Encoding: 1115400 -1 3238
Width: 736
VWidth: 0
Flags: HW
LayerCount: 3
Fore
SplineSet
401 79 m 2
 401 144 l 2
 401 348 334 425 252 425 c 0
 217 425 187 405 175 405 c 0
 168 405 167 408 167 414 c 0
 167 421 214 465 270 465 c 0
 337 465 397 432 434 330 c 0
 437 321 444 326 445 330 c 0
 477 417 547 464 614 464 c 0
 670 464 717 421 717 414 c 0
 717 408 716 405 709 405 c 0
 697 405 666 425 631 425 c 0
 549 425 476 324 476 168 c 2
 476 79 l 2
 476 43 507 32 542 25 c 0
 553 23 566 19 566 9 c 0
 566 1 553 -3 546 -3 c 0
 507 -3 481 3 439 3 c 24
 397 3 370 -3 331 -3 c 0
 324 -3 311 1 311 9 c 0
 311 19 324 23 335 25 c 0
 370 32 401 43 401 79 c 2
91.75 382.5 m 0
 75.75 379.5 65.75 366.5 65.75 350.5 c 0
 65.75 321.5 85.75 303.5 112.75 290.5 c 0
 120.75 286.5 129.75 283.5 129.75 276.5 c 0
 129.75 271.5 122.75 266.5 109.75 266.5 c 0
 56.75 266.5 13.75 310.5 13.75 363.5 c 0
 13.75 410.5 39.75 460.5 86.75 460.5 c 0
 110.75 460.5 133.75 445.5 133.75 422.5 c 0
 133.75 399.5 114.75 386.5 91.75 382.5 c 0
EndSplineSet
Colour: ff00
EndChar
StartChar: uni1F52.ctsc
Encoding: 1115401 -1 3239
Width: 825
VWidth: 0
Flags: HW
LayerCount: 3
Fore
SplineSet
489 79 m 2
 489 144 l 2
 489 348 422 425 340 425 c 0
 305 425 275 405 263 405 c 0
 256 405 255 408 255 414 c 0
 255 421 302 465 358 465 c 0
 425 465 485 432 522 330 c 0
 525 321 532 326 533 330 c 0
 565 417 635 464 702 464 c 0
 758 464 805 421 805 414 c 0
 805 408 804 405 797 405 c 0
 785 405 754 425 719 425 c 0
 637 425 564 324 564 168 c 2
 564 79 l 2
 564 43 595 32 630 25 c 0
 641 23 654 19 654 9 c 0
 654 1 641 -3 634 -3 c 0
 595 -3 569 3 527 3 c 24
 485 3 458 -3 419 -3 c 0
 412 -3 399 1 399 9 c 0
 399 19 412 23 423 25 c 0
 458 32 489 43 489 79 c 2
54.75 377.5 m 0
 31.75 381.5 12.75 394.5 12.75 417.5 c 0
 12.75 440.5 35.75 455.5 59.75 455.5 c 0
 106.75 455.5 132.75 406.5 132.75 358.5 c 0
 132.75 305.5 88.75 261.5 36.75 261.5 c 0
 23.75 261.5 16.75 266.5 16.75 271.5 c 0
 16.75 278.5 25.75 281.5 33.75 285.5 c 0
 60.75 298.5 80.75 316.5 80.75 345.5 c 0
 80.75 361.5 70.75 374.5 54.75 377.5 c 0
222.75 277.5 m 0
 201.75 313.5 151.75 411.5 151.75 421.5 c 0
 151.75 437.5 170.75 462.5 189.75 462.5 c 0
 197.75 462.5 211.75 456.5 214.75 444.5 c 0
 224.75 408.5 255.75 286.5 255.75 268.5 c 0
 255.75 259.5 255.75 255.5 246.75 255.5 c 0
 238.75 255.5 228.75 267.5 222.75 277.5 c 0
EndSplineSet
Colour: ff00
EndChar
StartChar: uni1F52.sc
Encoding: 1115280 -1 3117
Width: 590
VWidth: 0
Flags: HW
LayerCount: 3
Fore
SplineSet
254 79 m 2
 254 144 l 2
 254 348 187 425 105 425 c 0
 70 425 40 405 28 405 c 0
 21 405 20 408 20 414 c 0
 20 421 67 465 123 465 c 0
 190 465 250 432 287 330 c 0
 290 321 297 326 298 330 c 0
 330 417 400 464 467 464 c 0
 523 464 570 421 570 414 c 0
 570 408 569 405 562 405 c 0
 550 405 519 425 484 425 c 0
 402 425 329 324 329 168 c 2
 329 79 l 2
 329 43 360 32 395 25 c 0
 406 23 419 19 419 9 c 0
 419 1 406 -3 399 -3 c 0
 360 -3 334 3 292 3 c 24
 250 3 223 -3 184 -3 c 0
 177 -3 164 1 164 9 c 0
 164 19 177 23 188 25 c 0
 223 32 254 43 254 79 c 2
204 618 m 0
 181 622 162 635 162 658 c 0
 162 681 185 696 209 696 c 0
 256 696 282 647 282 599 c 0
 282 546 238 502 186 502 c 0
 173 502 166 507 166 512 c 0
 166 519 175 522 183 526 c 0
 210 539 230 557 230 586 c 0
 230 602 220 615 204 618 c 0
372 518 m 0
 351 554 301 652 301 662 c 0
 301 678 320 703 339 703 c 0
 347 703 361 697 364 685 c 0
 374 649 405 527 405 509 c 0
 405 500 405 496 396 496 c 0
 388 496 378 508 372 518 c 0
EndSplineSet
EndChar
StartChar: uni1F53.ctsc
Encoding: 1115402 -1 3240
Width: 590
VWidth: 0
Flags: HW
LayerCount: 3
Fore
SplineSet
254 79 m 2
 254 144 l 2
 254 348 187 425 105 425 c 0
 70 425 40 405 28 405 c 0
 21 405 20 408 20 414 c 0
 20 421 67 465 123 465 c 0
 190 465 250 432 287 330 c 0
 290 321 297 326 298 330 c 0
 330 417 400 464 467 464 c 0
 523 464 570 421 570 414 c 0
 570 408 569 405 562 405 c 0
 550 405 519 425 484 425 c 0
 402 425 329 324 329 168 c 2
 329 79 l 2
 329 43 360 32 395 25 c 0
 406 23 419 19 419 9 c 0
 419 1 406 -3 399 -3 c 0
 360 -3 334 3 292 3 c 24
 250 3 223 -3 184 -3 c 0
 177 -3 164 1 164 9 c 0
 164 19 177 23 188 25 c 0
 223 32 254 43 254 79 c 2
-54 262 m 4
 -70 259 -80 246 -80 230 c 4
 -80 201 -60 183 -33 170 c 4
 -25 166 -16 163 -16 156 c 4
 -16 151 -23 146 -36 146 c 4
 -89 146 -132 190 -132 243 c 4
 -132 290 -106 340 -59 340 c 4
 -35 340 -12 325 -12 302 c 4
 -12 279 -31 266 -54 262 c 4
78 162 m 4
 57 198 7 296 7 306 c 4
 7 322 26 347 45 347 c 4
 53 347 67 341 70 329 c 4
 80 293 111 171 111 153 c 4
 111 144 111 140 102 140 c 4
 94 140 84 152 78 162 c 4
EndSplineSet
Colour: ff00
EndChar
StartChar: uni1F53.sc
Encoding: 1115281 -1 3118
Width: 590
VWidth: 0
Flags: HW
LayerCount: 3
Fore
SplineSet
254 79 m 2
 254 144 l 2
 254 348 187 425 105 425 c 0
 70 425 40 405 28 405 c 0
 21 405 20 408 20 414 c 0
 20 421 67 465 123 465 c 0
 190 465 250 432 287 330 c 0
 290 321 297 326 298 330 c 0
 330 417 400 464 467 464 c 0
 523 464 570 421 570 414 c 0
 570 408 569 405 562 405 c 0
 550 405 519 425 484 425 c 0
 402 425 329 324 329 168 c 2
 329 79 l 2
 329 43 360 32 395 25 c 0
 406 23 419 19 419 9 c 0
 419 1 406 -3 399 -3 c 0
 360 -3 334 3 292 3 c 24
 250 3 223 -3 184 -3 c 0
 177 -3 164 1 164 9 c 0
 164 19 177 23 188 25 c 0
 223 32 254 43 254 79 c 2
240 618 m 0
 224 615 214 602 214 586 c 0
 214 557 234 539 261 526 c 0
 269 522 278 519 278 512 c 0
 278 507 271 502 258 502 c 0
 205 502 162 546 162 599 c 0
 162 646 188 696 235 696 c 0
 259 696 282 681 282 658 c 0
 282 635 263 622 240 618 c 0
372 518 m 0
 351 554 301 652 301 662 c 0
 301 678 320 703 339 703 c 0
 347 703 361 697 364 685 c 0
 374 649 405 527 405 509 c 0
 405 500 405 496 396 496 c 0
 388 496 378 508 372 518 c 0
EndSplineSet
EndChar
StartChar: uni1F54.ctsc
Encoding: 1115403 -1 3241
Width: 590
VWidth: 0
Flags: HW
LayerCount: 3
Fore
SplineSet
254 79 m 2
 254 144 l 2
 254 348 187 425 105 425 c 0
 70 425 40 405 28 405 c 0
 21 405 20 408 20 414 c 0
 20 421 67 465 123 465 c 0
 190 465 250 432 287 330 c 0
 290 321 297 326 298 330 c 0
 330 417 400 464 467 464 c 0
 523 464 570 421 570 414 c 0
 570 408 569 405 562 405 c 0
 550 405 519 425 484 425 c 0
 402 425 329 324 329 168 c 2
 329 79 l 2
 329 43 360 32 395 25 c 0
 406 23 419 19 419 9 c 0
 419 1 406 -3 399 -3 c 0
 360 -3 334 3 292 3 c 24
 250 3 223 -3 184 -3 c 0
 177 -3 164 1 164 9 c 0
 164 19 177 23 188 25 c 0
 223 32 254 43 254 79 c 2
-99 267 m 4
 -122 271 -141 284 -141 307 c 4
 -141 330 -118 345 -94 345 c 4
 -47 345 -21 296 -21 248 c 4
 -21 195 -65 151 -117 151 c 4
 -130 151 -137 156 -137 161 c 4
 -137 168 -128 171 -120 175 c 4
 -93 188 -73 206 -73 235 c 4
 -73 251 -83 264 -99 267 c 4
31 167 m 4
 25 157 15 145 7 145 c 4
 -2 145 -2 149 -2 158 c 4
 -2 176 29 298 39 334 c 4
 42 346 56 352 64 352 c 4
 83 352 102 327 102 311 c 4
 102 301 52 203 31 167 c 4
EndSplineSet
Colour: ff00
EndChar
StartChar: uni1F54.sc
Encoding: 1115282 -1 3119
Width: 590
VWidth: 0
Flags: HW
LayerCount: 3
Fore
SplineSet
254 79 m 2
 254 144 l 2
 254 348 187 425 105 425 c 0
 70 425 40 405 28 405 c 0
 21 405 20 408 20 414 c 0
 20 421 67 465 123 465 c 0
 190 465 250 432 287 330 c 0
 290 321 297 326 298 330 c 0
 330 417 400 464 467 464 c 0
 523 464 570 421 570 414 c 0
 570 408 569 405 562 405 c 0
 550 405 519 425 484 425 c 0
 402 425 329 324 329 168 c 2
 329 79 l 2
 329 43 360 32 395 25 c 0
 406 23 419 19 419 9 c 0
 419 1 406 -3 399 -3 c 0
 360 -3 334 3 292 3 c 24
 250 3 223 -3 184 -3 c 0
 177 -3 164 1 164 9 c 0
 164 19 177 23 188 25 c 0
 223 32 254 43 254 79 c 2
204 618 m 0
 181 622 162 635 162 658 c 0
 162 681 185 696 209 696 c 0
 256 696 282 647 282 599 c 0
 282 546 238 502 186 502 c 0
 173 502 166 507 166 512 c 0
 166 519 175 522 183 526 c 0
 210 539 230 557 230 586 c 0
 230 602 220 615 204 618 c 0
334 518 m 0
 328 508 318 496 310 496 c 0
 301 496 301 500 301 509 c 0
 301 527 332 649 342 685 c 0
 345 697 359 703 367 703 c 0
 386 703 405 678 405 662 c 0
 405 652 355 554 334 518 c 0
EndSplineSet
EndChar
StartChar: uni1F55.ctsc
Encoding: 1115404 -1 3242
Width: 854
VWidth: 0
Flags: HW
LayerCount: 3
Fore
SplineSet
518 79 m 2
 518 144 l 2
 518 348 451 425 369 425 c 0
 334 425 304 405 292 405 c 0
 285 405 284 408 284 414 c 0
 284 421 331 465 387 465 c 0
 454 465 514 432 551 330 c 0
 554 321 561 326 562 330 c 0
 594 417 664 464 731 464 c 0
 787 464 834 421 834 414 c 0
 834 408 833 405 826 405 c 0
 814 405 783 425 748 425 c 0
 666 425 593 324 593 168 c 2
 593 79 l 2
 593 43 624 32 659 25 c 0
 670 23 683 19 683 9 c 0
 683 1 670 -3 663 -3 c 0
 624 -3 598 3 556 3 c 24
 514 3 487 -3 448 -3 c 0
 441 -3 428 1 428 9 c 0
 428 19 441 23 452 25 c 0
 487 32 518 43 518 79 c 2
99 380.5 m 0
 83 377.5 73 364.5 73 348.5 c 0
 73 319.5 93 301.5 120 288.5 c 0
 128 284.5 137 281.5 137 274.5 c 0
 137 269.5 130 264.5 117 264.5 c 0
 64 264.5 21 308.5 21 361.5 c 0
 21 408.5 47 458.5 94 458.5 c 0
 118 458.5 141 443.5 141 420.5 c 0
 141 397.5 122 384.5 99 380.5 c 0
193 280.5 m 0
 187 270.5 177 258.5 169 258.5 c 0
 160 258.5 160 262.5 160 271.5 c 0
 160 289.5 191 411.5 201 447.5 c 0
 204 459.5 218 465.5 226 465.5 c 0
 245 465.5 264 440.5 264 424.5 c 0
 264 414.5 214 316.5 193 280.5 c 0
EndSplineSet
Colour: ff00
EndChar
StartChar: uni1F56.ctsc
Encoding: 1115405 -1 3243
Width: 590
VWidth: 0
Flags: HW
LayerCount: 3
Fore
SplineSet
254 79 m 2
 254 144 l 2
 254 348 187 425 105 425 c 0
 70 425 40 405 28 405 c 0
 21 405 20 408 20 414 c 0
 20 421 67 465 123 465 c 0
 190 465 250 432 287 330 c 0
 290 321 297 326 298 330 c 0
 330 417 400 464 467 464 c 0
 523 464 570 421 570 414 c 0
 570 408 569 405 562 405 c 0
 550 405 519 425 484 425 c 0
 402 425 329 324 329 168 c 2
 329 79 l 2
 329 43 360 32 395 25 c 0
 406 23 419 19 419 9 c 0
 419 1 406 -3 399 -3 c 0
 360 -3 334 3 292 3 c 24
 250 3 223 -3 184 -3 c 0
 177 -3 164 1 164 9 c 0
 164 19 177 23 188 25 c 0
 223 32 254 43 254 79 c 2
-100 274 m 4
 -119 275 -136 286 -136 308 c 4
 -136 324 -118 334 -89 334 c 4
 -49 334 -16 302 -16 261 c 4
 -16 206 -69 170 -108 170 c 4
 -120 170 -126 175 -126 180 c 4
 -126 184 -121 189 -112 192 c 4
 -83 202 -63 217 -63 240 c 4
 -63 260 -80 273 -100 274 c 4
-193 338 m 4
 -203 338 -207 343 -207 353 c 4
 -207 363 -162 438 -119 438 c 4
 -94 438 -37 413 -12 413 c 4
 17 413 37 439 45 439 c 4
 55 439 61 432 61 422 c 4
 61 412 18 355 -24 355 c 4
 -49 355 -107 379 -132 379 c 4
 -156 379 -185 338 -193 338 c 4
EndSplineSet
Colour: ff00
EndChar
StartChar: uni1F56.sc
Encoding: 1115284 -1 3121
Width: 590
VWidth: 0
Flags: HW
LayerCount: 3
Fore
SplineSet
254 79 m 2
 254 144 l 2
 254 348 187 425 105 425 c 0
 70 425 40 405 28 405 c 0
 21 405 20 408 20 414 c 0
 20 421 67 465 123 465 c 0
 190 465 250 432 287 330 c 0
 290 321 297 326 298 330 c 0
 330 417 400 464 467 464 c 0
 523 464 570 421 570 414 c 0
 570 408 569 405 562 405 c 0
 550 405 519 425 484 425 c 0
 402 425 329 324 329 168 c 2
 329 79 l 2
 329 43 360 32 395 25 c 0
 406 23 419 19 419 9 c 0
 419 1 406 -3 399 -3 c 0
 360 -3 334 3 292 3 c 24
 250 3 223 -3 184 -3 c 0
 177 -3 164 1 164 9 c 0
 164 19 177 23 188 25 c 0
 223 32 254 43 254 79 c 2
273 600 m 0
 254 601 237 612 237 634 c 0
 237 650 255 660 284 660 c 0
 324 660 357 628 357 587 c 0
 357 532 304 496 265 496 c 0
 253 496 247 501 247 506 c 0
 247 510 252 515 261 518 c 0
 290 528 310 543 310 566 c 0
 310 586 293 599 273 600 c 0
180 664 m 0
 170 664 166 669 166 679 c 0
 166 689 211 764 254 764 c 0
 279 764 336 739 361 739 c 0
 390 739 410 765 418 765 c 0
 428 765 434 758 434 748 c 0
 434 738 391 681 349 681 c 0
 324 681 266 705 241 705 c 0
 217 705 188 664 180 664 c 0
EndSplineSet
EndChar
StartChar: uni1F57.ctsc
Encoding: 1115406 -1 3244
Width: 590
VWidth: 0
Flags: HW
LayerCount: 3
Fore
SplineSet
254 79 m 2
 254 144 l 2
 254 348 187 425 105 425 c 0
 70 425 40 405 28 405 c 0
 21 405 20 408 20 414 c 0
 20 421 67 465 123 465 c 0
 190 465 250 432 287 330 c 0
 290 321 297 326 298 330 c 0
 330 417 400 464 467 464 c 0
 523 464 570 421 570 414 c 0
 570 408 569 405 562 405 c 0
 550 405 519 425 484 425 c 0
 402 425 329 324 329 168 c 2
 329 79 l 2
 329 43 360 32 395 25 c 0
 406 23 419 19 419 9 c 0
 419 1 406 -3 399 -3 c 0
 360 -3 334 3 292 3 c 24
 250 3 223 -3 184 -3 c 0
 177 -3 164 1 164 9 c 0
 164 19 177 23 188 25 c 0
 223 32 254 43 254 79 c 2
-55 275 m 4
 -75 274 -92 261 -92 241 c 4
 -92 218 -72 203 -43 193 c 4
 -34 190 -29 185 -29 181 c 4
 -29 176 -35 171 -47 171 c 4
 -86 171 -139 207 -139 262 c 4
 -139 303 -106 335 -66 335 c 4
 -37 335 -19 325 -19 309 c 4
 -19 287 -36 276 -55 275 c 4
-186 339 m 4
 -196 339 -200 344 -200 354 c 4
 -200 364 -155 439 -112 439 c 4
 -87 439 -30 414 -5 414 c 4
 24 414 44 440 52 440 c 4
 62 440 68 433 68 423 c 4
 68 413 25 356 -17 356 c 4
 -42 356 -100 380 -125 380 c 4
 -149 380 -178 339 -186 339 c 4
EndSplineSet
Colour: ff00
EndChar
StartChar: uni1F60.ctsc
Encoding: 1115407 -1 3245
Width: 660
VWidth: 0
Flags: HW
HStem: 0 61<82.4243 212.275 443 574.947> 269 24<-31.6738 4.72829> 435 29<269.193 385.75>
VStem: 32 52<309.664 383.924> 87 88<167.306 338.385> 485 88<174.021 337.85>
LayerCount: 3
Fore
SplineSet
212 73 m 0
 135 118 87 167 87 252 c 0
 87 378 208 464 334 464 c 0
 454 464 573 384 573 264 c 0
 573 173 519 115 446 73 c 0
 440 69 437 61 443 61 c 2
 520 61 l 2
 555 61 570 74 585 96 c 0
 592 105 598 118 608 118 c 0
 612 118 615 115 615 111 c 0
 615 78 600 22 593 8 c 0
 590 2 590 -4 583 -4 c 0
 562 -4 546 0 526 0 c 2
 383 0 l 2
 379 0 377 3 377 7 c 0
 377 26 388 56 397 62 c 0
 437 91 485 166 485 245 c 16
 485 340 421 435 326 435 c 0
 237 435 175 347 175 258 c 8
 175 172 198 111 266 58 c 0
 275 51 279 23 282 7 c 0
 283 4 282 0 277 0 c 2
 133 0 l 2
 113 0 97 -4 76 -4 c 0
 69 -4 68 1 66 8 c 0
 61 29 45 77 45 112 c 0
 45 116 47 119 51 119 c 0
 61 119 63 110 70 101 c 0
 85 79 93 61 129 61 c 2
 211 61 l 2
 216 61 218 69 212 73 c 0
-41 384 m 4
 -64 388 -83 401 -83 424 c 4
 -83 447 -60 462 -36 462 c 4
 11 462 37 413 37 365 c 4
 37 312 -7 268 -59 268 c 4
 -72 268 -79 273 -79 278 c 4
 -79 285 -70 288 -62 292 c 4
 -35 305 -15 323 -15 352 c 4
 -15 368 -25 381 -41 384 c 4
EndSplineSet
Colour: ff00
EndChar
StartChar: uni1F61.ctsc
Encoding: 1115408 -1 3246
Width: 768
VWidth: 0
Flags: HW
LayerCount: 3
Fore
SplineSet
320 73 m 0
 243 118 195 167 195 252 c 0
 195 378 316 464 442 464 c 0
 562 464 681 384 681 264 c 0
 681 173 627 115 554 73 c 0
 548 69 545 61 551 61 c 2
 628 61 l 2
 663 61 678 74 693 96 c 0
 700 105 706 118 716 118 c 0
 720 118 723 115 723 111 c 0
 723 78 708 22 701 8 c 0
 698 2 698 -4 691 -4 c 0
 670 -4 654 0 634 0 c 2
 491 0 l 2
 487 0 485 3 485 7 c 0
 485 26 496 56 505 62 c 0
 545 91 593 166 593 245 c 16
 593 340 529 435 434 435 c 0
 345 435 283 347 283 258 c 8
 283 172 306 111 374 58 c 0
 383 51 387 23 390 7 c 0
 391 4 390 0 385 0 c 2
 241 0 l 2
 221 0 205 -4 184 -4 c 0
 177 -4 176 1 174 8 c 0
 169 29 153 77 153 112 c 0
 153 116 155 119 159 119 c 0
 169 119 171 110 178 101 c 0
 193 79 201 61 237 61 c 2
 319 61 l 2
 324 61 326 69 320 73 c 0
95 386 m 0
 79 383 69 370 69 354 c 0
 69 325 89 307 116 294 c 0
 124 290 133 287 133 280 c 0
 133 275 126 270 113 270 c 0
 60 270 17 314 17 367 c 0
 17 414 43 464 90 464 c 0
 114 464 137 449 137 426 c 0
 137 403 118 390 95 386 c 0
EndSplineSet
Colour: ff00
EndChar
StartChar: uni1F62.ctsc
Encoding: 1115409 -1 3247
Width: 883
VWidth: 0
Flags: HW
LayerCount: 3
Fore
SplineSet
436 73 m 0
 359 118 311 167 311 252 c 0
 311 378 432 464 558 464 c 0
 678 464 797 384 797 264 c 0
 797 173 743 115 670 73 c 0
 664 69 661 61 667 61 c 2
 744 61 l 2
 779 61 794 74 809 96 c 0
 816 105 822 118 832 118 c 0
 836 118 839 115 839 111 c 0
 839 78 824 22 817 8 c 0
 814 2 814 -4 807 -4 c 0
 786 -4 770 0 750 0 c 2
 607 0 l 2
 603 0 601 3 601 7 c 0
 601 26 612 56 621 62 c 0
 661 91 709 166 709 245 c 16
 709 340 645 435 550 435 c 0
 461 435 399 347 399 258 c 8
 399 172 422 111 490 58 c 0
 499 51 503 23 506 7 c 0
 507 4 506 0 501 0 c 2
 357 0 l 2
 337 0 321 -4 300 -4 c 0
 293 -4 292 1 290 8 c 0
 285 29 269 77 269 112 c 0
 269 116 271 119 275 119 c 0
 285 119 287 110 294 101 c 0
 309 79 317 61 353 61 c 2
 435 61 l 2
 440 61 442 69 436 73 c 0
56 384 m 0
 33 388 14 401 14 424 c 0
 14 447 37 462 61 462 c 0
 108 462 134 413 134 365 c 0
 134 312 90 268 38 268 c 0
 25 268 18 273 18 278 c 0
 18 285 27 288 35 292 c 0
 62 305 82 323 82 352 c 0
 82 368 72 381 56 384 c 0
224 284 m 0
 203 320 153 418 153 428 c 0
 153 444 172 469 191 469 c 0
 199 469 213 463 216 451 c 0
 226 415 257 293 257 275 c 0
 257 266 257 262 248 262 c 0
 240 262 230 274 224 284 c 0
EndSplineSet
Colour: ff00
EndChar
StartChar: uni1F63.ctsc
Encoding: 1115410 -1 3248
Width: 876
VWidth: 0
Flags: HW
LayerCount: 3
Fore
SplineSet
429 73 m 0
 352 118 304 167 304 252 c 0
 304 378 425 464 551 464 c 0
 671 464 790 384 790 264 c 0
 790 173 736 115 663 73 c 0
 657 69 654 61 660 61 c 2
 737 61 l 2
 772 61 787 74 802 96 c 0
 809 105 815 118 825 118 c 0
 829 118 832 115 832 111 c 0
 832 78 817 22 810 8 c 0
 807 2 807 -4 800 -4 c 0
 779 -4 763 0 743 0 c 2
 600 0 l 2
 596 0 594 3 594 7 c 0
 594 26 605 56 614 62 c 0
 654 91 702 166 702 245 c 16
 702 340 638 435 543 435 c 0
 454 435 392 347 392 258 c 8
 392 172 415 111 483 58 c 0
 492 51 496 23 499 7 c 0
 500 4 499 0 494 0 c 2
 350 0 l 2
 330 0 314 -4 293 -4 c 0
 286 -4 285 1 283 8 c 0
 278 29 262 77 262 112 c 0
 262 116 264 119 268 119 c 0
 278 119 280 110 287 101 c 0
 302 79 310 61 346 61 c 2
 428 61 l 2
 433 61 435 69 429 73 c 0
89 386 m 0
 73 383 63 370 63 354 c 0
 63 325 83 307 110 294 c 0
 118 290 127 287 127 280 c 0
 127 275 120 270 107 270 c 0
 54 270 11 314 11 367 c 0
 11 414 37 464 84 464 c 0
 108 464 131 449 131 426 c 0
 131 403 112 390 89 386 c 0
221 286 m 0
 200 322 150 420 150 430 c 0
 150 446 169 471 188 471 c 0
 196 471 210 465 213 453 c 0
 223 417 254 295 254 277 c 0
 254 268 254 264 245 264 c 0
 237 264 227 276 221 286 c 0
EndSplineSet
Colour: ff00
EndChar
StartChar: uni1F63.sc
Encoding: 1115289 -1 3126
Width: 660
VWidth: 0
Flags: HW
LayerCount: 3
Fore
SplineSet
212 73 m 0
 135 118 87 167 87 252 c 0
 87 378 208 464 334 464 c 0
 454 464 573 384 573 264 c 0
 573 173 519 115 446 73 c 0
 440 69 437 61 443 61 c 2
 520 61 l 2
 555 61 570 74 585 96 c 0
 592 105 598 118 608 118 c 0
 612 118 615 115 615 111 c 0
 615 78 600 22 593 8 c 0
 590 2 590 -4 583 -4 c 0
 562 -4 546 0 526 0 c 2
 383 0 l 2
 379 0 377 3 377 7 c 0
 377 26 388 56 397 62 c 0
 437 91 485 166 485 245 c 16
 485 340 421 435 326 435 c 0
 237 435 175 347 175 258 c 8
 175 172 198 111 266 58 c 0
 275 51 279 23 282 7 c 0
 283 4 282 0 277 0 c 2
 133 0 l 2
 113 0 97 -4 76 -4 c 0
 69 -4 68 1 66 8 c 0
 61 29 45 77 45 112 c 0
 45 116 47 119 51 119 c 0
 61 119 63 110 70 101 c 0
 85 79 93 61 129 61 c 2
 211 61 l 2
 216 61 218 69 212 73 c 0
278 618 m 0
 262 615 252 602 252 586 c 0
 252 557 272 539 299 526 c 0
 307 522 316 519 316 512 c 0
 316 507 309 502 296 502 c 0
 243 502 200 546 200 599 c 0
 200 646 226 696 273 696 c 0
 297 696 320 681 320 658 c 0
 320 635 301 622 278 618 c 0
410 518 m 0
 389 554 339 652 339 662 c 0
 339 678 358 703 377 703 c 0
 385 703 399 697 402 685 c 0
 412 649 443 527 443 509 c 0
 443 500 443 496 434 496 c 0
 426 496 416 508 410 518 c 0
EndSplineSet
EndChar
StartChar: uni1F64.ctsc
Encoding: 1115411 -1 3249
Width: 850
VWidth: 0
Flags: HW
LayerCount: 3
Fore
SplineSet
403 73 m 0
 326 118 278 167 278 252 c 0
 278 378 399 464 525 464 c 0
 645 464 764 384 764 264 c 0
 764 173 710 115 637 73 c 0
 631 69 628 61 634 61 c 2
 711 61 l 2
 746 61 761 74 776 96 c 0
 783 105 789 118 799 118 c 0
 803 118 806 115 806 111 c 0
 806 78 791 22 784 8 c 0
 781 2 781 -4 774 -4 c 0
 753 -4 737 0 717 0 c 2
 574 0 l 2
 570 0 568 3 568 7 c 0
 568 26 579 56 588 62 c 0
 628 91 676 166 676 245 c 16
 676 340 612 435 517 435 c 0
 428 435 366 347 366 258 c 8
 366 172 389 111 457 58 c 0
 466 51 470 23 473 7 c 0
 474 4 473 0 468 0 c 2
 324 0 l 2
 304 0 288 -4 267 -4 c 0
 260 -4 259 1 257 8 c 0
 252 29 236 77 236 112 c 0
 236 116 238 119 242 119 c 0
 252 119 254 110 261 101 c 0
 276 79 284 61 320 61 c 2
 402 61 l 2
 407 61 409 69 403 73 c 0
53 388 m 0
 30 392 11 405 11 428 c 0
 11 451 34 466 58 466 c 0
 105 466 131 417 131 369 c 0
 131 316 87 272 35 272 c 0
 22 272 15 277 15 282 c 0
 15 289 24 292 32 296 c 0
 59 309 79 327 79 356 c 0
 79 372 69 385 53 388 c 0
183 288 m 0
 177 278 167 266 159 266 c 0
 150 266 150 270 150 279 c 0
 150 297 181 419 191 455 c 0
 194 467 208 473 216 473 c 0
 235 473 254 448 254 432 c 0
 254 422 204 324 183 288 c 0
EndSplineSet
Colour: ff00
EndChar
StartChar: uni1F65.ctsc
Encoding: 1115412 -1 3250
Width: 660
VWidth: 0
Flags: HW
LayerCount: 3
Fore
SplineSet
212 73 m 0
 135 118 87 167 87 252 c 0
 87 378 208 464 334 464 c 0
 454 464 573 384 573 264 c 0
 573 173 519 115 446 73 c 0
 440 69 437 61 443 61 c 2
 520 61 l 2
 555 61 570 74 585 96 c 0
 592 105 598 118 608 118 c 0
 612 118 615 115 615 111 c 0
 615 78 600 22 593 8 c 0
 590 2 590 -4 583 -4 c 0
 562 -4 546 0 526 0 c 2
 383 0 l 2
 379 0 377 3 377 7 c 0
 377 26 388 56 397 62 c 0
 437 91 485 166 485 245 c 16
 485 340 421 435 326 435 c 0
 237 435 175 347 175 258 c 8
 175 172 198 111 266 58 c 0
 275 51 279 23 282 7 c 0
 283 4 282 0 277 0 c 2
 133 0 l 2
 113 0 97 -4 76 -4 c 0
 69 -4 68 1 66 8 c 0
 61 29 45 77 45 112 c 0
 45 116 47 119 51 119 c 0
 61 119 63 110 70 101 c 0
 85 79 93 61 129 61 c 2
 211 61 l 2
 216 61 218 69 212 73 c 0
-94 389 m 4
 -110 386 -120 373 -120 357 c 4
 -120 328 -100 310 -73 297 c 4
 -65 293 -56 290 -56 283 c 4
 -56 278 -63 273 -76 273 c 4
 -129 273 -172 317 -172 370 c 4
 -172 417 -146 467 -99 467 c 4
 -75 467 -52 452 -52 429 c 4
 -52 406 -71 393 -94 389 c 4
0 289 m 4
 -6 279 -16 267 -24 267 c 4
 -33 267 -33 271 -33 280 c 4
 -33 298 -2 420 8 456 c 4
 11 468 25 474 33 474 c 4
 52 474 71 449 71 433 c 4
 71 423 21 325 0 289 c 4
EndSplineSet
Colour: ff00
EndChar
StartChar: uni1F65.sc
Encoding: 1115291 -1 3128
Width: 660
VWidth: 0
Flags: HW
LayerCount: 3
Fore
SplineSet
212 73 m 0
 135 118 87 167 87 252 c 0
 87 378 208 464 334 464 c 0
 454 464 573 384 573 264 c 0
 573 173 519 115 446 73 c 0
 440 69 437 61 443 61 c 2
 520 61 l 2
 555 61 570 74 585 96 c 0
 592 105 598 118 608 118 c 0
 612 118 615 115 615 111 c 0
 615 78 600 22 593 8 c 0
 590 2 590 -4 583 -4 c 0
 562 -4 546 0 526 0 c 2
 383 0 l 2
 379 0 377 3 377 7 c 0
 377 26 388 56 397 62 c 0
 437 91 485 166 485 245 c 16
 485 340 421 435 326 435 c 0
 237 435 175 347 175 258 c 8
 175 172 198 111 266 58 c 0
 275 51 279 23 282 7 c 0
 283 4 282 0 277 0 c 2
 133 0 l 2
 113 0 97 -4 76 -4 c 0
 69 -4 68 1 66 8 c 0
 61 29 45 77 45 112 c 0
 45 116 47 119 51 119 c 0
 61 119 63 110 70 101 c 0
 85 79 93 61 129 61 c 2
 211 61 l 2
 216 61 218 69 212 73 c 0
278 618 m 0
 262 615 252 602 252 586 c 0
 252 557 272 539 299 526 c 0
 307 522 316 519 316 512 c 0
 316 507 309 502 296 502 c 0
 243 502 200 546 200 599 c 0
 200 646 226 696 273 696 c 0
 297 696 320 681 320 658 c 0
 320 635 301 622 278 618 c 0
372 518 m 0
 366 508 356 496 348 496 c 0
 339 496 339 500 339 509 c 0
 339 527 370 649 380 685 c 0
 383 697 397 703 405 703 c 0
 424 703 443 678 443 662 c 0
 443 652 393 554 372 518 c 0
EndSplineSet
EndChar
StartChar: uni1F66.ctsc
Encoding: 1115413 -1 3251
Width: 660
VWidth: 0
Flags: HW
LayerCount: 3
Fore
SplineSet
212 73 m 0
 135 118 87 167 87 252 c 0
 87 378 208 464 334 464 c 0
 454 464 573 384 573 264 c 0
 573 173 519 115 446 73 c 0
 440 69 437 61 443 61 c 2
 520 61 l 2
 555 61 570 74 585 96 c 0
 592 105 598 118 608 118 c 0
 612 118 615 115 615 111 c 0
 615 78 600 22 593 8 c 0
 590 2 590 -4 583 -4 c 0
 562 -4 546 0 526 0 c 2
 383 0 l 2
 379 0 377 3 377 7 c 0
 377 26 388 56 397 62 c 0
 437 91 485 166 485 245 c 16
 485 340 421 435 326 435 c 0
 237 435 175 347 175 258 c 8
 175 172 198 111 266 58 c 0
 275 51 279 23 282 7 c 0
 283 4 282 0 277 0 c 2
 133 0 l 2
 113 0 97 -4 76 -4 c 0
 69 -4 68 1 66 8 c 0
 61 29 45 77 45 112 c 0
 45 116 47 119 51 119 c 0
 61 119 63 110 70 101 c 0
 85 79 93 61 129 61 c 2
 211 61 l 2
 216 61 218 69 212 73 c 0
-62 307 m 4
 -81 308 -98 319 -98 341 c 4
 -98 357 -80 367 -51 367 c 4
 -11 367 22 335 22 294 c 4
 22 239 -31 203 -70 203 c 4
 -82 203 -88 208 -88 213 c 4
 -88 217 -83 222 -74 225 c 4
 -45 235 -25 250 -25 273 c 4
 -25 293 -42 306 -62 307 c 4
-155 371 m 4
 -165 371 -169 376 -169 386 c 4
 -169 396 -124 471 -81 471 c 4
 -56 471 1 446 26 446 c 4
 55 446 75 472 83 472 c 4
 93 472 99 465 99 455 c 4
 99 445 56 388 14 388 c 4
 -11 388 -69 412 -94 412 c 4
 -118 412 -147 371 -155 371 c 4
EndSplineSet
Colour: ff00
EndChar
StartChar: uni1F67.ctsc
Encoding: 1115414 -1 3252
Width: 852
VWidth: 0
Flags: HW
LayerCount: 3
Fore
SplineSet
405 73 m 0
 328 118 280 167 280 252 c 0
 280 378 401 464 527 464 c 0
 647 464 766 384 766 264 c 0
 766 173 712 115 639 73 c 0
 633 69 630 61 636 61 c 2
 713 61 l 2
 748 61 763 74 778 96 c 0
 785 105 791 118 801 118 c 0
 805 118 808 115 808 111 c 0
 808 78 793 22 786 8 c 0
 783 2 783 -4 776 -4 c 0
 755 -4 739 0 719 0 c 2
 576 0 l 2
 572 0 570 3 570 7 c 0
 570 26 581 56 590 62 c 0
 630 91 678 166 678 245 c 16
 678 340 614 435 519 435 c 0
 430 435 368 347 368 258 c 8
 368 172 391 111 459 58 c 0
 468 51 472 23 475 7 c 0
 476 4 475 0 470 0 c 2
 326 0 l 2
 306 0 290 -4 269 -4 c 0
 262 -4 261 1 259 8 c 0
 254 29 238 77 238 112 c 0
 238 116 240 119 244 119 c 0
 254 119 256 110 263 101 c 0
 278 79 286 61 322 61 c 2
 404 61 l 2
 409 61 411 69 405 73 c 0
162 308 m 0
 142 307 125 294 125 274 c 0
 125 251 145 236 174 226 c 0
 183 223 188 218 188 214 c 0
 188 209 182 204 170 204 c 0
 131 204 78 240 78 295 c 0
 78 336 111 368 151 368 c 0
 180 368 198 358 198 342 c 0
 198 320 181 309 162 308 c 0
31 372 m 0
 21 372 17 377 17 387 c 0
 17 397 62 472 105 472 c 0
 130 472 187 447 212 447 c 0
 241 447 261 473 269 473 c 0
 279 473 285 466 285 456 c 0
 285 446 242 389 200 389 c 0
 175 389 117 413 92 413 c 0
 68 413 39 372 31 372 c 0
EndSplineSet
Colour: ff00
EndChar
StartChar: uni1F70.ctsc
Encoding: 1115415 -1 3253
Width: 589
VWidth: 0
Flags: HW
LayerCount: 3
Fore
SplineSet
548 27 m 0
 559 25 571 19 571 9 c 0
 571 1 558 -3 551 -3 c 0
 512 -3 498 2 463 2 c 0
 428 2 407 -3 368 -3 c 0
 361 -3 348 1 348 9 c 0
 348 19 360 24 371 27 c 0
 399 34 410 36 410 58 c 0
 410 71 398 106 388 132 c 0
 386 138 383 139 369 139 c 2
 223 139 l 10
 215 139 211 136 207 127 c 0
 193 91 187 81 187 65 c 0
 187 39 204 33 224 27 c 0
 235 23 247 19 247 9 c 0
 247 1 234 -3 227 -3 c 0
 188 -3 181 2 146 2 c 0
 111 2 109 -3 70 -3 c 0
 63 -3 50 1 50 9 c 0
 50 19 62 23 73 26 c 0
 104 33 130 36 154 92 c 2
 270 360 l 2
 284 393 279 407 282 410 c 0
 291 419 315 444 321 451 c 0
 329 460 334 463 337 463 c 0
 341 463 342 460 344 454 c 2
 479 107 l 2
 492 73 508 35 548 27 c 0
297 337 m 0
 280 295 253 233 231 185 c 0
 227 176 232 175 244 175 c 2
 360 175 l 2
 370 175 371 175 368 185 c 0
 361 212 322 306 311 337 c 0
 305 352 303 352 297 337 c 0
84 282 m 0
 63 318 13 416 13 426 c 0
 13 442 32 467 51 467 c 0
 59 467 73 461 76 449 c 0
 86 413 117 291 117 273 c 0
 117 264 117 260 108 260 c 0
 100 260 90 272 84 282 c 0
EndSplineSet
Colour: ff00
EndChar
StartChar: uni1F72.ctsc
Encoding: 1115417 -1 3255
Width: 576
VWidth: 0
Flags: HW
LayerCount: 3
Fore
SplineSet
248 448 m 0
 336 448 433 451 479 451 c 0
 483 451 491 450 491 445 c 0
 493 394 501 366 501 353 c 0
 501 349 497 340 493 340 c 0
 488 340 479 346 474 358 c 0
 460 391 449 410 414 410 c 2
 317 410 l 2
 309 410 292 405 292 392 c 2
 292 268 l 2
 292 261 297 244 303 244 c 2
 382 244 l 2
 403 244 411 257 419 281 c 0
 421 288 427 298 434 298 c 0
 442 298 447 289 446 283 c 0
 445 267 443 243 443 228 c 0
 443 210 446 192 447 173 c 0
 448 167 443 156 437 156 c 8
 425 156 421 176 419 180 c 0
 413 201 398 205 387 207 c 0
 367 209 338 209 317 209 c 0
 298 209 292 210 292 191 c 2
 292 80 l 2
 292 44 295 39 325 39 c 2
 425 39 l 2
 466 39 495 68 508 97 c 0
 510 101 513 112 522 112 c 0
 531 112 532 102 532 96 c 1
 529 69 521 32 515 10 c 0
 514 4 505 -2 498 -2 c 8
 399 -2 314 3 245 3 c 0
 209 2 186 -3 147 -3 c 0
 140 -3 127 1 127 9 c 0
 127 19 140 23 151 25 c 0
 186 32 217 43 217 79 c 2
 217 352 l 2
 217 393 201 415 159 422 c 0
 147 424 135 431 135 441 c 0
 135 449 148 453 155 453 c 0
 194 453 213 448 248 448 c 0
84.75 268.5 m 0
 63.75 304.5 13.75 402.5 13.75 412.5 c 0
 13.75 428.5 32.75 453.5 51.75 453.5 c 0
 59.75 453.5 73.75 447.5 76.75 435.5 c 0
 86.75 399.5 117.75 277.5 117.75 259.5 c 0
 117.75 250.5 117.75 246.5 108.75 246.5 c 0
 100.75 246.5 90.75 258.5 84.75 268.5 c 0
EndSplineSet
Colour: ff00
EndChar
StartChar: uni1F72.sc
Encoding: 1115296 -1 3133
Width: 480
VWidth: 0
Flags: HW
LayerCount: 3
Fore
SplineSet
151 448 m 0
 239 448 336 451 382 451 c 0
 386 451 394 450 394 445 c 0
 396 394 404 366 404 353 c 0
 404 349 400 340 396 340 c 0
 391 340 382 346 377 358 c 0
 363 391 352 410 317 410 c 2
 220 410 l 2
 212 410 195 405 195 392 c 2
 195 268 l 2
 195 261 200 244 206 244 c 2
 285 244 l 2
 306 244 314 257 322 281 c 0
 324 288 330 298 337 298 c 0
 345 298 350 289 349 283 c 0
 348 267 346 243 346 228 c 0
 346 210 349 192 350 173 c 0
 351 167 346 156 340 156 c 8
 328 156 324 176 322 180 c 0
 316 201 301 205 290 207 c 0
 270 209 241 209 220 209 c 4
 201 209 195 210 195 191 c 2
 195 80 l 2
 195 44 198 39 228 39 c 2
 328 39 l 2
 369 39 398 68 411 97 c 0
 413 101 416 112 425 112 c 0
 434 112 435 102 435 96 c 1
 432 69 424 32 418 10 c 0
 417 4 408 -2 401 -2 c 8
 302 -2 217 3 148 3 c 0
 112 2 89 -3 50 -3 c 0
 43 -3 30 1 30 9 c 0
 30 19 43 23 54 25 c 0
 89 32 120 43 120 79 c 2
 120 352 l 2
 120 393 104 415 62 422 c 0
 50 424 38 431 38 441 c 0
 38 449 51 453 58 453 c 0
 97 453 116 448 151 448 c 0
237 558 m 0
 216 594 166 692 166 702 c 0
 166 718 185 743 204 743 c 0
 212 743 226 737 229 725 c 0
 239 689 270 567 270 549 c 0
 270 540 270 536 261 536 c 0
 253 536 243 548 237 558 c 0
EndSplineSet
EndChar
StartChar: uni1F73.ctsc
Encoding: 1115418 -1 3256
Width: 591
VWidth: 0
Flags: HW
LayerCount: 3
Fore
SplineSet
263 448 m 0
 351 448 448 451 494 451 c 0
 498 451 506 450 506 445 c 0
 508 394 516 366 516 353 c 0
 516 349 512 340 508 340 c 0
 503 340 494 346 489 358 c 0
 475 391 464 410 429 410 c 2
 332 410 l 2
 324 410 307 405 307 392 c 2
 307 268 l 2
 307 261 312 244 318 244 c 2
 397 244 l 2
 418 244 426 257 434 281 c 0
 436 288 442 298 449 298 c 0
 457 298 462 289 461 283 c 0
 460 267 458 243 458 228 c 0
 458 210 461 192 462 173 c 0
 463 167 458 156 452 156 c 8
 440 156 436 176 434 180 c 0
 428 201 413 205 402 207 c 0
 382 209 353 209 332 209 c 0
 313 209 307 210 307 191 c 2
 307 80 l 2
 307 44 310 39 340 39 c 2
 440 39 l 2
 481 39 510 68 523 97 c 0
 525 101 528 112 537 112 c 0
 546 112 547 102 547 96 c 1
 544 69 536 32 530 10 c 0
 529 4 520 -2 513 -2 c 8
 414 -2 329 3 260 3 c 0
 224 2 201 -3 162 -3 c 0
 155 -3 142 1 142 9 c 0
 142 19 155 23 166 25 c 0
 201 32 232 43 232 79 c 2
 232 352 l 2
 232 393 216 415 174 422 c 0
 162 424 150 431 150 441 c 0
 150 449 163 453 170 453 c 0
 209 453 228 448 263 448 c 0
44.75 270.5 m 0
 38.75 260.5 28.75 248.5 20.75 248.5 c 0
 11.75 248.5 11.75 252.5 11.75 261.5 c 0
 11.75 279.5 42.75 401.5 52.75 437.5 c 0
 55.75 449.5 69.75 455.5 77.75 455.5 c 0
 96.75 455.5 115.75 430.5 115.75 414.5 c 0
 115.75 404.5 65.75 306.5 44.75 270.5 c 0
EndSplineSet
Colour: ff00
EndChar
StartChar: uni1F74.ctsc
Encoding: 1115419 -1 3257
Width: 736
VWidth: 0
Flags: HW
LayerCount: 3
Fore
SplineSet
541 352 m 2
 541 391 525 415 483 422 c 0
 471 424 459 431 459 441 c 0
 459 449 472 453 479 453 c 0
 518 453 543 448 579 448 c 0
 614 448 639 453 678 453 c 0
 685 453 698 449 698 441 c 0
 698 431 686 424 674 422 c 0
 632 415 616 391 616 352 c 2
 616 79 l 2
 616 43 647 32 682 25 c 0
 693 23 706 19 706 9 c 0
 706 1 693 -3 686 -3 c 0
 647 -3 621 3 579 3 c 24
 537 3 510 -3 471 -3 c 0
 464 -3 451 1 451 9 c 0
 451 19 464 23 475 25 c 0
 510 32 541 43 541 79 c 2
 541 211 l 2
 541 216 539 216 537 216 c 16
 484 217 452 218 410 218 c 0
 375 218 339 217 294 216 c 8
 291 216 291 214 291 209 c 2
 291 79 l 2
 291 43 322 32 357 25 c 0
 368 23 381 19 381 9 c 0
 381 1 368 -3 361 -3 c 0
 322 -3 296 3 254 3 c 24
 212 3 185 -3 146 -3 c 0
 139 -3 126 1 126 9 c 0
 126 19 139 23 150 25 c 0
 185 32 216 43 216 79 c 2
 216 352 l 2
 216 392 200 415 158 422 c 0
 146 424 134 431 134 441 c 0
 134 449 147 453 154 453 c 0
 193 453 218 448 254 448 c 0
 289 448 314 453 353 453 c 0
 360 453 373 449 373 441 c 0
 373 431 361 424 349 422 c 0
 307 415 291 392 291 352 c 2
 291 259 l 2
 291 254 296 253 301 253 c 16
 352 252 373 251 413 251 c 0
 447 251 492 252 536 253 c 8
 540 253 541 255 541 261 c 2
 541 352 l 2
89.75 270.5 m 0
 68.75 306.5 18.75 404.5 18.75 414.5 c 0
 18.75 430.5 37.75 455.5 56.75 455.5 c 0
 64.75 455.5 78.75 449.5 81.75 437.5 c 0
 91.75 401.5 122.75 279.5 122.75 261.5 c 0
 122.75 252.5 122.75 248.5 113.75 248.5 c 0
 105.75 248.5 95.75 260.5 89.75 270.5 c 0
EndSplineSet
Colour: ff00
EndChar
StartChar: uni1F75.ctsc
Encoding: 1115420 -1 3258
Width: 746
VWidth: 0
Flags: HW
LayerCount: 3
Fore
SplineSet
551 352 m 2
 551 391 535 415 493 422 c 0
 481 424 469 431 469 441 c 0
 469 449 482 453 489 453 c 0
 528 453 553 448 589 448 c 0
 624 448 649 453 688 453 c 0
 695 453 708 449 708 441 c 0
 708 431 696 424 684 422 c 0
 642 415 626 391 626 352 c 2
 626 79 l 2
 626 43 657 32 692 25 c 0
 703 23 716 19 716 9 c 0
 716 1 703 -3 696 -3 c 0
 657 -3 631 3 589 3 c 24
 547 3 520 -3 481 -3 c 0
 474 -3 461 1 461 9 c 0
 461 19 474 23 485 25 c 0
 520 32 551 43 551 79 c 2
 551 211 l 2
 551 216 549 216 547 216 c 16
 494 217 462 218 420 218 c 0
 385 218 349 217 304 216 c 8
 301 216 301 214 301 209 c 2
 301 79 l 2
 301 43 332 32 367 25 c 0
 378 23 391 19 391 9 c 0
 391 1 378 -3 371 -3 c 0
 332 -3 306 3 264 3 c 24
 222 3 195 -3 156 -3 c 0
 149 -3 136 1 136 9 c 0
 136 19 149 23 160 25 c 0
 195 32 226 43 226 79 c 2
 226 352 l 2
 226 392 210 415 168 422 c 0
 156 424 144 431 144 441 c 0
 144 449 157 453 164 453 c 0
 203 453 228 448 264 448 c 0
 299 448 324 453 363 453 c 0
 370 453 383 449 383 441 c 0
 383 431 371 424 359 422 c 0
 317 415 301 392 301 352 c 2
 301 259 l 2
 301 254 306 253 311 253 c 16
 362 252 383 251 423 251 c 0
 457 251 502 252 546 253 c 8
 550 253 551 255 551 261 c 2
 551 352 l 2
49.75 271.5 m 0
 43.75 261.5 33.75 249.5 25.75 249.5 c 0
 16.75 249.5 16.75 253.5 16.75 262.5 c 0
 16.75 280.5 47.75 402.5 57.75 438.5 c 0
 60.75 450.5 74.75 456.5 82.75 456.5 c 0
 101.75 456.5 120.75 431.5 120.75 415.5 c 0
 120.75 405.5 70.75 307.5 49.75 271.5 c 0
EndSplineSet
Colour: ff00
EndChar
StartChar: uni1F76.ctsc
Encoding: 1115421 -1 3259
Width: 418
VWidth: 0
Flags: HW
LayerCount: 3
Fore
SplineSet
261 3 m 24
 219 3 192 -3 153 -3 c 0
 146 -3 133 1 133 9 c 0
 133 19 146 23 157 25 c 0
 192 32 223 43 223 79 c 2
 223 352 l 2
 223 393 207 415 165 422 c 0
 153 424 141 431 141 441 c 0
 141 449 154 453 161 453 c 0
 200 453 225 448 261 448 c 0
 296 448 321 453 360 453 c 0
 367 453 380 449 380 441 c 0
 380 431 368 424 356 422 c 0
 314 415 298 393 298 352 c 2
 298 79 l 2
 298 43 329 32 364 25 c 0
 375 23 388 19 388 9 c 0
 388 1 375 -3 368 -3 c 0
 329 -3 303 3 261 3 c 24
90.75 270.5 m 0
 69.75 306.5 19.75 404.5 19.75 414.5 c 0
 19.75 430.5 38.75 455.5 57.75 455.5 c 0
 65.75 455.5 79.75 449.5 82.75 437.5 c 0
 92.75 401.5 123.75 279.5 123.75 261.5 c 0
 123.75 252.5 123.75 248.5 114.75 248.5 c 0
 106.75 248.5 96.75 260.5 90.75 270.5 c 0
EndSplineSet
Colour: ff00
EndChar
StartChar: uni1F77.ctsc
Encoding: 1115422 -1 3260
Width: 315
VWidth: 0
Flags: HW
LayerCount: 3
Fore
SplineSet
158 3 m 24
 116 3 89 -3 50 -3 c 0
 43 -3 30 1 30 9 c 0
 30 19 43 23 54 25 c 0
 89 32 120 43 120 79 c 2
 120 352 l 2
 120 393 104 415 62 422 c 0
 50 424 38 431 38 441 c 0
 38 449 51 453 58 453 c 0
 97 453 122 448 158 448 c 0
 193 448 218 453 257 453 c 0
 264 453 277 449 277 441 c 0
 277 431 265 424 253 422 c 0
 211 415 195 393 195 352 c 2
 195 79 l 2
 195 43 226 32 261 25 c 0
 272 23 285 19 285 9 c 0
 285 1 272 -3 265 -3 c 0
 226 -3 200 3 158 3 c 24
-60 249 m 4
 -66 239 -76 227 -84 227 c 4
 -93 227 -93 231 -93 240 c 4
 -93 258 -62 380 -52 416 c 4
 -49 428 -35 434 -27 434 c 4
 -8 434 11 409 11 393 c 4
 11 383 -39 285 -60 249 c 4
EndSplineSet
Colour: ff00
EndChar
StartChar: uni1F77.sc
Encoding: 1115301 -1 3138
Width: 315
VWidth: 0
Flags: HW
LayerCount: 3
Fore
SplineSet
158 3 m 28
 116 3 89 -3 50 -3 c 4
 43 -3 30 1 30 9 c 4
 30 19 43 23 54 25 c 4
 89 32 120 43 120 79 c 6
 120 352 l 6
 120 393 104 415 62 422 c 4
 50 424 38 431 38 441 c 4
 38 449 51 453 58 453 c 4
 97 453 122 448 158 448 c 4
 193 448 218 453 257 453 c 4
 264 453 277 449 277 441 c 4
 277 431 265 424 253 422 c 4
 211 415 195 393 195 352 c 6
 195 79 l 6
 195 43 226 32 261 25 c 4
 272 23 285 19 285 9 c 4
 285 1 272 -3 265 -3 c 4
 226 -3 200 3 158 3 c 28
174 558 m 0
 168 548 158 536 150 536 c 0
 141 536 141 540 141 549 c 0
 141 567 172 689 182 725 c 0
 185 737 199 743 207 743 c 0
 226 743 245 718 245 702 c 0
 245 692 195 594 174 558 c 0
EndSplineSet
EndChar
StartChar: uni1F78.ctsc
Encoding: 1115423 -1 3261
Width: 720
VWidth: 0
Flags: HW
LayerCount: 3
Fore
SplineSet
401 426 m 0
 307 426 255 332 255 237 c 0
 255 120 311 22 423 22 c 0
 538 22 571 138 571 217 c 0
 571 318 505 426 401 426 c 0
165 222 m 0
 165 342 280 458 407 458 c 0
 538 458 661 360 661 226 c 0
 661 103 571 -14 407 -14 c 0
 274 -14 165 93 165 222 c 0
84 279 m 0
 63 315 13 413 13 423 c 0
 13 439 32 464 51 464 c 0
 59 464 73 458 76 446 c 0
 86 410 117 288 117 270 c 0
 117 261 117 257 108 257 c 0
 100 257 90 269 84 279 c 0
EndSplineSet
Colour: ff00
EndChar
StartChar: uni1F79.ctsc
Encoding: 1115424 -1 3262
Width: 616
VWidth: 0
Flags: HW
LayerCount: 3
Fore
SplineSet
296 426 m 0
 202 426 150 332 150 237 c 0
 150 120 206 22 318 22 c 0
 433 22 466 138 466 217 c 0
 466 318 400 426 296 426 c 0
60 222 m 0
 60 342 175 458 302 458 c 0
 433 458 556 360 556 226 c 0
 556 103 466 -14 302 -14 c 0
 169 -14 60 93 60 222 c 0
-13 279 m 4
 -19 269 -29 257 -37 257 c 4
 -46 257 -46 261 -46 270 c 4
 -46 288 -15 410 -5 446 c 4
 -2 458 12 464 20 464 c 4
 39 464 58 439 58 423 c 4
 58 413 8 315 -13 279 c 4
EndSplineSet
Colour: ff00
EndChar
StartChar: uni1F79.sc
Encoding: 1115303 -1 3140
Width: 616
VWidth: 0
Flags: HW
LayerCount: 3
Fore
SplineSet
296 426 m 0
 202 426 150 332 150 237 c 0
 150 120 206 22 318 22 c 0
 433 22 466 138 466 217 c 0
 466 318 400 426 296 426 c 0
60 222 m 0
 60 342 175 458 302 458 c 0
 433 458 556 360 556 226 c 0
 556 103 466 -14 302 -14 c 0
 169 -14 60 93 60 222 c 0
317 558 m 0
 311 548 301 536 293 536 c 0
 284 536 284 540 284 549 c 0
 284 567 315 689 325 725 c 0
 328 737 342 743 350 743 c 0
 369 743 388 718 388 702 c 0
 388 692 338 594 317 558 c 0
EndSplineSet
EndChar
StartChar: uni1F7A.ctsc
Encoding: 1115425 -1 3263
Width: 590
VWidth: 0
Flags: HW
LayerCount: 3
Fore
SplineSet
254 79 m 2
 254 144 l 2
 254 348 187 425 105 425 c 0
 70 425 40 405 28 405 c 0
 21 405 20 408 20 414 c 0
 20 421 67 465 123 465 c 0
 190 465 250 432 287 330 c 0
 290 321 297 326 298 330 c 0
 330 417 400 464 467 464 c 0
 523 464 570 421 570 414 c 0
 570 408 569 405 562 405 c 0
 550 405 519 425 484 425 c 0
 402 425 329 324 329 168 c 2
 329 79 l 2
 329 43 360 32 395 25 c 0
 406 23 419 19 419 9 c 0
 419 1 406 -3 399 -3 c 0
 360 -3 334 3 292 3 c 24
 250 3 223 -3 184 -3 c 0
 177 -3 164 1 164 9 c 0
 164 19 177 23 188 25 c 0
 223 32 254 43 254 79 c 2
26 152 m 4
 5 188 -45 286 -45 296 c 4
 -45 312 -26 337 -7 337 c 4
 1 337 15 331 18 319 c 4
 28 283 59 161 59 143 c 4
 59 134 59 130 50 130 c 4
 42 130 32 142 26 152 c 4
EndSplineSet
Colour: ff00
EndChar
StartChar: uni1F7A.sc
Encoding: 1115304 -1 3141
Width: 590
VWidth: 0
Flags: HW
LayerCount: 3
Fore
SplineSet
254 79 m 2
 254 144 l 2
 254 348 187 425 105 425 c 0
 70 425 40 405 28 405 c 0
 21 405 20 408 20 414 c 0
 20 421 67 465 123 465 c 0
 190 465 250 432 287 330 c 0
 290 321 297 326 298 330 c 0
 330 417 400 464 467 464 c 0
 523 464 570 421 570 414 c 0
 570 408 569 405 562 405 c 0
 550 405 519 425 484 425 c 0
 402 425 329 324 329 168 c 2
 329 79 l 2
 329 43 360 32 395 25 c 0
 406 23 419 19 419 9 c 0
 419 1 406 -3 399 -3 c 0
 360 -3 334 3 292 3 c 24
 250 3 223 -3 184 -3 c 0
 177 -3 164 1 164 9 c 0
 164 19 177 23 188 25 c 0
 223 32 254 43 254 79 c 2
301 558 m 0
 280 594 230 692 230 702 c 0
 230 718 249 743 268 743 c 0
 276 743 290 737 293 725 c 0
 303 689 334 567 334 549 c 0
 334 540 334 536 325 536 c 0
 317 536 307 548 301 558 c 0
EndSplineSet
EndChar
StartChar: uni1F7B.ctsc
Encoding: 1115426 -1 3264
Width: 720
VWidth: 0
Flags: HW
LayerCount: 3
Fore
SplineSet
384 79 m 2
 384 144 l 2
 384 348 317 425 235 425 c 0
 200 425 170 405 158 405 c 0
 151 405 150 408 150 414 c 0
 150 421 197 465 253 465 c 0
 320 465 380 432 417 330 c 0
 420 321 427 326 428 330 c 0
 460 417 530 464 597 464 c 0
 653 464 700 421 700 414 c 0
 700 408 699 405 692 405 c 0
 680 405 649 425 614 425 c 0
 532 425 459 324 459 168 c 2
 459 79 l 2
 459 43 490 32 525 25 c 0
 536 23 549 19 549 9 c 0
 549 1 536 -3 529 -3 c 0
 490 -3 464 3 422 3 c 24
 380 3 353 -3 314 -3 c 0
 307 -3 294 1 294 9 c 0
 294 19 307 23 318 25 c 0
 353 32 384 43 384 79 c 2
59 274.5 m 0
 53 264.5 43 252.5 35 252.5 c 0
 26 252.5 26 256.5 26 265.5 c 0
 26 283.5 57 405.5 67 441.5 c 0
 70 453.5 84 459.5 92 459.5 c 0
 111 459.5 130 434.5 130 418.5 c 0
 130 408.5 80 310.5 59 274.5 c 0
EndSplineSet
Colour: ff00
EndChar
StartChar: uni1F7B.sc
Encoding: 1115305 -1 3142
Width: 590
VWidth: 0
Flags: HW
LayerCount: 3
Fore
SplineSet
254 79 m 2
 254 144 l 2
 254 348 187 425 105 425 c 0
 70 425 40 405 28 405 c 0
 21 405 20 408 20 414 c 0
 20 421 67 465 123 465 c 0
 190 465 250 432 287 330 c 0
 290 321 297 326 298 330 c 0
 330 417 400 464 467 464 c 0
 523 464 570 421 570 414 c 0
 570 408 569 405 562 405 c 0
 550 405 519 425 484 425 c 0
 402 425 329 324 329 168 c 2
 329 79 l 2
 329 43 360 32 395 25 c 0
 406 23 419 19 419 9 c 0
 419 1 406 -3 399 -3 c 0
 360 -3 334 3 292 3 c 24
 250 3 223 -3 184 -3 c 0
 177 -3 164 1 164 9 c 0
 164 19 177 23 188 25 c 0
 223 32 254 43 254 79 c 2
309 558 m 0
 303 548 293 536 285 536 c 0
 276 536 276 540 276 549 c 0
 276 567 307 689 317 725 c 0
 320 737 334 743 342 743 c 0
 361 743 380 718 380 702 c 0
 380 692 330 594 309 558 c 0
EndSplineSet
EndChar
StartChar: uni1F7C.ctsc
Encoding: 1115427 -1 3265
Width: 756
VWidth: 0
Flags: HW
LayerCount: 3
Fore
SplineSet
308 73 m 0
 231 118 183 167 183 252 c 0
 183 378 304 464 430 464 c 0
 550 464 669 384 669 264 c 0
 669 173 615 115 542 73 c 0
 536 69 533 61 539 61 c 2
 616 61 l 2
 651 61 666 74 681 96 c 0
 688 105 694 118 704 118 c 0
 708 118 711 115 711 111 c 0
 711 78 696 22 689 8 c 0
 686 2 686 -4 679 -4 c 0
 658 -4 642 0 622 0 c 2
 479 0 l 2
 475 0 473 3 473 7 c 0
 473 26 484 56 493 62 c 0
 533 91 581 166 581 245 c 16
 581 340 517 435 422 435 c 0
 333 435 271 347 271 258 c 8
 271 172 294 111 362 58 c 0
 371 51 375 23 378 7 c 0
 379 4 378 0 373 0 c 2
 229 0 l 2
 209 0 193 -4 172 -4 c 0
 165 -4 164 1 162 8 c 0
 157 29 141 77 141 112 c 0
 141 116 143 119 147 119 c 0
 157 119 159 110 166 101 c 0
 181 79 189 61 225 61 c 2
 307 61 l 2
 312 61 314 69 308 73 c 0
87 283 m 0
 66 319 16 417 16 427 c 0
 16 443 35 468 54 468 c 0
 62 468 76 462 79 450 c 0
 89 414 120 292 120 274 c 0
 120 265 120 261 111 261 c 0
 103 261 93 273 87 283 c 0
EndSplineSet
Colour: ff00
EndChar
StartChar: uni1F7D.ctsc
Encoding: 1115428 -1 3266
Width: 725
VWidth: 0
Flags: HW
LayerCount: 3
Fore
SplineSet
278 73 m 0
 201 118 153 167 153 252 c 0
 153 378 274 464 400 464 c 0
 520 464 639 384 639 264 c 0
 639 173 585 115 512 73 c 0
 506 69 503 61 509 61 c 2
 586 61 l 2
 621 61 636 74 651 96 c 0
 658 105 664 118 674 118 c 0
 678 118 681 115 681 111 c 0
 681 78 666 22 659 8 c 0
 656 2 656 -4 649 -4 c 0
 628 -4 612 0 592 0 c 2
 449 0 l 2
 445 0 443 3 443 7 c 0
 443 26 454 56 463 62 c 0
 503 91 551 166 551 245 c 16
 551 340 487 435 392 435 c 0
 303 435 241 347 241 258 c 8
 241 172 264 111 332 58 c 0
 341 51 345 23 348 7 c 0
 349 4 348 0 343 0 c 2
 199 0 l 2
 179 0 163 -4 142 -4 c 0
 135 -4 134 1 132 8 c 0
 127 29 111 77 111 112 c 0
 111 116 113 119 117 119 c 0
 127 119 129 110 136 101 c 0
 151 79 159 61 195 61 c 2
 277 61 l 2
 282 61 284 69 278 73 c 0
49 285 m 0
 43 275 33 263 25 263 c 0
 16 263 16 267 16 276 c 0
 16 294 47 416 57 452 c 0
 60 464 74 470 82 470 c 0
 101 470 120 445 120 429 c 0
 120 419 70 321 49 285 c 0
EndSplineSet
Colour: ff00
EndChar
StartChar: uni1F80.ctsc
Encoding: 1115429 -1 3267
Width: 580
VWidth: 0
Flags: HW
LayerCount: 3
Fore
SplineSet
539 27 m 0
 550 25 562 19 562 9 c 0
 562 1 549 -3 542 -3 c 0
 503 -3 489 2 454 2 c 0
 419 2 398 -3 359 -3 c 0
 352 -3 339 1 339 9 c 0
 339 19 351 24 362 27 c 0
 390 34 401 36 401 58 c 0
 401 71 389 106 379 132 c 0
 377 138 374 139 360 139 c 2
 214 139 l 10
 206 139 202 136 198 127 c 0
 184 91 178 81 178 65 c 0
 178 39 195 33 215 27 c 0
 226 23 238 19 238 9 c 0
 238 1 225 -3 218 -3 c 0
 179 -3 172 2 137 2 c 0
 102 2 100 -3 61 -3 c 0
 54 -3 41 1 41 9 c 0
 41 19 53 23 64 26 c 0
 95 33 121 36 145 92 c 2
 261 360 l 2
 275 393 270 407 273 410 c 0
 282 419 306 444 312 451 c 0
 320 460 325 463 328 463 c 0
 332 463 333 460 335 454 c 2
 470 107 l 2
 483 73 499 35 539 27 c 0
288 337 m 0
 271 295 244 233 222 185 c 0
 218 176 223 175 235 175 c 2
 351 175 l 2
 361 175 362 175 359 185 c 0
 352 212 313 306 302 337 c 0
 296 352 294 352 288 337 c 0
328 -123 m 0
 328 -148 331 -156 345 -156 c 0
 366 -156 381 -142 384 -142 c 0
 393 -142 394 -147 394 -158 c 0
 394 -167 371 -218 321 -218 c 0
 287 -218 262 -186 262 -136 c 0
 262 -90 265 -57 296 -57 c 0
 319 -57 332 -64 332 -83 c 0
 332 -95 328 -107 328 -123 c 0
51 382 m 0
 28 386 9 399 9 422 c 0
 9 445 32 460 56 460 c 0
 103 460 129 411 129 363 c 0
 129 310 85 266 33 266 c 0
 20 266 13 271 13 276 c 0
 13 283 22 286 30 290 c 0
 57 303 77 321 77 350 c 0
 77 366 67 379 51 382 c 0
EndSplineSet
Colour: ff00
EndChar
StartChar: uni1F81.ctsc
Encoding: 1115430 -1 3268
Width: 605
VWidth: 0
Flags: HW
LayerCount: 3
Fore
SplineSet
564 27 m 0
 575 25 587 19 587 9 c 0
 587 1 574 -3 567 -3 c 0
 528 -3 514 2 479 2 c 0
 444 2 423 -3 384 -3 c 0
 377 -3 364 1 364 9 c 0
 364 19 376 24 387 27 c 0
 415 34 426 36 426 58 c 0
 426 71 414 106 404 132 c 0
 402 138 399 139 385 139 c 2
 239 139 l 10
 231 139 227 136 223 127 c 0
 209 91 203 81 203 65 c 0
 203 39 220 33 240 27 c 0
 251 23 263 19 263 9 c 0
 263 1 250 -3 243 -3 c 0
 204 -3 197 2 162 2 c 0
 127 2 125 -3 86 -3 c 0
 79 -3 66 1 66 9 c 0
 66 19 78 23 89 26 c 0
 120 33 146 36 170 92 c 2
 286 360 l 2
 300 393 295 407 298 410 c 0
 307 419 331 444 337 451 c 0
 345 460 350 463 353 463 c 0
 357 463 358 460 360 454 c 2
 495 107 l 2
 508 73 524 35 564 27 c 0
313 337 m 0
 296 295 269 233 247 185 c 0
 243 176 248 175 260 175 c 2
 376 175 l 2
 386 175 387 175 384 185 c 0
 377 212 338 306 327 337 c 0
 321 352 319 352 313 337 c 0
353 -123 m 0
 353 -148 356 -156 370 -156 c 0
 391 -156 406 -142 409 -142 c 0
 418 -142 419 -147 419 -158 c 0
 419 -167 396 -218 346 -218 c 0
 312 -218 287 -186 287 -136 c 0
 287 -90 290 -57 321 -57 c 0
 344 -57 357 -64 357 -83 c 0
 357 -95 353 -107 353 -123 c 0
95 388 m 0
 79 385 69 372 69 356 c 0
 69 327 89 309 116 296 c 0
 124 292 133 289 133 282 c 0
 133 277 126 272 113 272 c 0
 60 272 17 316 17 369 c 0
 17 416 43 466 90 466 c 0
 114 466 137 451 137 428 c 0
 137 405 118 392 95 388 c 0
EndSplineSet
Colour: ff00
EndChar
StartChar: uni1F82.ctsc
Encoding: 1115431 -1 3269
Width: 694
VWidth: 0
Flags: HW
LayerCount: 3
Fore
SplineSet
654 27 m 0
 665 25 677 19 677 9 c 0
 677 1 664 -3 657 -3 c 0
 618 -3 604 2 569 2 c 0
 534 2 513 -3 474 -3 c 0
 467 -3 454 1 454 9 c 0
 454 19 466 24 477 27 c 0
 505 34 516 36 516 58 c 0
 516 71 504 106 494 132 c 0
 492 138 489 139 475 139 c 2
 329 139 l 10
 321 139 317 136 313 127 c 0
 299 91 293 81 293 65 c 0
 293 39 310 33 330 27 c 0
 341 23 353 19 353 9 c 0
 353 1 340 -3 333 -3 c 0
 294 -3 287 2 252 2 c 0
 217 2 215 -3 176 -3 c 0
 169 -3 156 1 156 9 c 0
 156 19 168 23 179 26 c 0
 210 33 236 36 260 92 c 2
 376 360 l 2
 390 393 385 407 388 410 c 0
 397 419 421 444 427 451 c 0
 435 460 440 463 443 463 c 0
 447 463 448 460 450 454 c 2
 585 107 l 2
 598 73 614 35 654 27 c 0
403 337 m 0
 386 295 359 233 337 185 c 0
 333 176 338 175 350 175 c 2
 466 175 l 2
 476 175 477 175 474 185 c 0
 467 212 428 306 417 337 c 0
 411 352 409 352 403 337 c 0
443 -123 m 0
 443 -148 446 -156 460 -156 c 0
 481 -156 496 -142 499 -142 c 0
 508 -142 509 -147 509 -158 c 0
 509 -167 486 -218 436 -218 c 0
 402 -218 377 -186 377 -136 c 0
 377 -90 380 -57 411 -57 c 0
 434 -57 447 -64 447 -83 c 0
 447 -95 443 -107 443 -123 c 0
61 387 m 0
 38 391 19 404 19 427 c 0
 19 450 42 465 66 465 c 0
 113 465 139 416 139 368 c 0
 139 315 95 271 43 271 c 0
 30 271 23 276 23 281 c 0
 23 288 32 291 40 295 c 0
 67 308 87 326 87 355 c 0
 87 371 77 384 61 387 c 0
229 287 m 0
 208 323 158 421 158 431 c 0
 158 447 177 472 196 472 c 0
 204 472 218 466 221 454 c 0
 231 418 262 296 262 278 c 0
 262 269 262 265 253 265 c 0
 245 265 235 277 229 287 c 0
EndSplineSet
Colour: ff00
EndChar
StartChar: uni1F83.ctsc
Encoding: 1115432 -1 3270
Width: 719
VWidth: 0
Flags: HW
LayerCount: 3
Fore
SplineSet
678 27 m 0
 689 25 701 19 701 9 c 0
 701 1 688 -3 681 -3 c 0
 642 -3 628 2 593 2 c 0
 558 2 537 -3 498 -3 c 0
 491 -3 478 1 478 9 c 0
 478 19 490 24 501 27 c 0
 529 34 540 36 540 58 c 0
 540 71 528 106 518 132 c 0
 516 138 513 139 499 139 c 2
 353 139 l 10
 345 139 341 136 337 127 c 0
 323 91 317 81 317 65 c 0
 317 39 334 33 354 27 c 0
 365 23 377 19 377 9 c 0
 377 1 364 -3 357 -3 c 0
 318 -3 311 2 276 2 c 0
 241 2 239 -3 200 -3 c 0
 193 -3 180 1 180 9 c 0
 180 19 192 23 203 26 c 0
 234 33 260 36 284 92 c 2
 400 360 l 2
 414 393 409 407 412 410 c 0
 421 419 445 444 451 451 c 0
 459 460 464 463 467 463 c 0
 471 463 472 460 474 454 c 2
 609 107 l 2
 622 73 638 35 678 27 c 0
427 337 m 0
 410 295 383 233 361 185 c 0
 357 176 362 175 374 175 c 2
 490 175 l 2
 500 175 501 175 498 185 c 0
 491 212 452 306 441 337 c 0
 435 352 433 352 427 337 c 0
467 -123 m 0
 467 -148 470 -156 484 -156 c 0
 505 -156 520 -142 523 -142 c 0
 532 -142 533 -147 533 -158 c 0
 533 -167 510 -218 460 -218 c 0
 426 -218 401 -186 401 -136 c 0
 401 -90 404 -57 435 -57 c 0
 458 -57 471 -64 471 -83 c 0
 471 -95 467 -107 467 -123 c 0
96 382 m 0
 80 379 70 366 70 350 c 0
 70 321 90 303 117 290 c 0
 125 286 134 283 134 276 c 0
 134 271 127 266 114 266 c 0
 61 266 18 310 18 363 c 0
 18 410 44 460 91 460 c 0
 115 460 138 445 138 422 c 0
 138 399 119 386 96 382 c 0
228 282 m 0
 207 318 157 416 157 426 c 0
 157 442 176 467 195 467 c 0
 203 467 217 461 220 449 c 0
 230 413 261 291 261 273 c 0
 261 264 261 260 252 260 c 0
 244 260 234 272 228 282 c 0
EndSplineSet
Colour: ff00
EndChar
StartChar: uni1F84.ctsc
Encoding: 1115433 -1 3271
Width: 683
VWidth: 0
Flags: HW
LayerCount: 3
Fore
SplineSet
643 27 m 0
 654 25 666 19 666 9 c 0
 666 1 653 -3 646 -3 c 0
 607 -3 593 2 558 2 c 0
 523 2 502 -3 463 -3 c 0
 456 -3 443 1 443 9 c 0
 443 19 455 24 466 27 c 0
 494 34 505 36 505 58 c 0
 505 71 493 106 483 132 c 0
 481 138 478 139 464 139 c 2
 318 139 l 10
 310 139 306 136 302 127 c 0
 288 91 282 81 282 65 c 0
 282 39 299 33 319 27 c 0
 330 23 342 19 342 9 c 0
 342 1 329 -3 322 -3 c 0
 283 -3 276 2 241 2 c 0
 206 2 204 -3 165 -3 c 0
 158 -3 145 1 145 9 c 0
 145 19 157 23 168 26 c 0
 199 33 225 36 249 92 c 2
 365 360 l 2
 379 393 374 407 377 410 c 0
 386 419 410 444 416 451 c 0
 424 460 429 463 432 463 c 0
 436 463 437 460 439 454 c 2
 574 107 l 2
 587 73 603 35 643 27 c 0
392 337 m 0
 375 295 348 233 326 185 c 0
 322 176 327 175 339 175 c 2
 455 175 l 2
 465 175 466 175 463 185 c 0
 456 212 417 306 406 337 c 0
 400 352 398 352 392 337 c 0
432 -123 m 0
 432 -148 435 -156 449 -156 c 0
 470 -156 485 -142 488 -142 c 0
 497 -142 498 -147 498 -158 c 0
 498 -167 475 -218 425 -218 c 0
 391 -218 366 -186 366 -136 c 0
 366 -90 369 -57 400 -57 c 0
 423 -57 436 -64 436 -83 c 0
 436 -95 432 -107 432 -123 c 0
55 389 m 0
 32 393 13 406 13 429 c 0
 13 452 36 467 60 467 c 0
 107 467 133 418 133 370 c 0
 133 317 89 273 37 273 c 0
 24 273 17 278 17 283 c 0
 17 290 26 293 34 297 c 0
 61 310 81 328 81 357 c 0
 81 373 71 386 55 389 c 0
185 289 m 0
 179 279 169 267 161 267 c 0
 152 267 152 271 152 280 c 0
 152 298 183 420 193 456 c 0
 196 468 210 474 218 474 c 0
 237 474 256 449 256 433 c 0
 256 423 206 325 185 289 c 0
EndSplineSet
Colour: ff00
EndChar
StartChar: uni1F85.ctsc
Encoding: 1115434 -1 3272
Width: 687
VWidth: 0
Flags: HW
LayerCount: 3
Fore
SplineSet
646 27 m 0
 657 25 669 19 669 9 c 0
 669 1 656 -3 649 -3 c 0
 610 -3 596 2 561 2 c 0
 526 2 505 -3 466 -3 c 0
 459 -3 446 1 446 9 c 0
 446 19 458 24 469 27 c 0
 497 34 508 36 508 58 c 0
 508 71 496 106 486 132 c 0
 484 138 481 139 467 139 c 2
 321 139 l 10
 313 139 309 136 305 127 c 0
 291 91 285 81 285 65 c 0
 285 39 302 33 322 27 c 0
 333 23 345 19 345 9 c 0
 345 1 332 -3 325 -3 c 0
 286 -3 279 2 244 2 c 0
 209 2 207 -3 168 -3 c 0
 161 -3 148 1 148 9 c 0
 148 19 160 23 171 26 c 0
 202 33 228 36 252 92 c 2
 368 360 l 2
 382 393 377 407 380 410 c 0
 389 419 413 444 419 451 c 0
 427 460 432 463 435 463 c 0
 439 463 440 460 442 454 c 2
 577 107 l 2
 590 73 606 35 646 27 c 0
395 337 m 0
 378 295 351 233 329 185 c 0
 325 176 330 175 342 175 c 2
 458 175 l 2
 468 175 469 175 466 185 c 0
 459 212 420 306 409 337 c 0
 403 352 401 352 395 337 c 0
435 -123 m 0
 435 -148 438 -156 452 -156 c 0
 473 -156 488 -142 491 -142 c 0
 500 -142 501 -147 501 -158 c 0
 501 -167 478 -218 428 -218 c 0
 394 -218 369 -186 369 -136 c 0
 369 -90 372 -57 403 -57 c 0
 426 -57 439 -64 439 -83 c 0
 439 -95 435 -107 435 -123 c 0
89 385 m 0
 73 382 63 369 63 353 c 0
 63 324 83 306 110 293 c 0
 118 289 127 286 127 279 c 0
 127 274 120 269 107 269 c 0
 54 269 11 313 11 366 c 0
 11 413 37 463 84 463 c 0
 108 463 131 448 131 425 c 0
 131 402 112 389 89 385 c 0
183 285 m 0
 177 275 167 263 159 263 c 0
 150 263 150 267 150 276 c 0
 150 294 181 416 191 452 c 0
 194 464 208 470 216 470 c 0
 235 470 254 445 254 429 c 0
 254 419 204 321 183 285 c 0
EndSplineSet
Colour: ff00
EndChar
StartChar: uni1F85.taboldstyle
Encoding: 1115313 -1 3150
Width: 549
VWidth: 0
Flags: HW
LayerCount: 3
Fore
SplineSet
508 27 m 0
 519 25 531 19 531 9 c 0
 531 1 518 -3 511 -3 c 0
 472 -3 458 2 423 2 c 0
 388 2 367 -3 328 -3 c 0
 321 -3 308 1 308 9 c 0
 308 19 320 24 331 27 c 0
 359 34 370 36 370 58 c 0
 370 71 358 106 348 132 c 0
 346 138 343 139 329 139 c 2
 183 139 l 10
 175 139 171 136 167 127 c 0
 153 91 147 81 147 65 c 0
 147 39 164 33 184 27 c 0
 195 23 207 19 207 9 c 0
 207 1 194 -3 187 -3 c 0
 148 -3 141 2 106 2 c 0
 71 2 69 -3 30 -3 c 0
 23 -3 10 1 10 9 c 0
 10 19 22 23 33 26 c 0
 64 33 90 36 114 92 c 2
 230 360 l 2
 244 393 239 407 242 410 c 0
 251 419 275 444 281 451 c 0
 289 460 294 463 297 463 c 0
 301 463 302 460 304 454 c 2
 439 107 l 2
 452 73 468 35 508 27 c 0
257 337 m 0
 240 295 213 233 191 185 c 0
 187 176 192 175 204 175 c 2
 320 175 l 2
 330 175 331 175 328 185 c 0
 321 212 282 306 271 337 c 0
 265 352 263 352 257 337 c 0
297 -123 m 0
 297 -148 300 -156 314 -156 c 0
 335 -156 350 -142 353 -142 c 0
 362 -142 363 -147 363 -158 c 0
 363 -167 340 -218 290 -218 c 0
 256 -218 231 -186 231 -136 c 0
 231 -90 234 -57 265 -57 c 0
 288 -57 301 -64 301 -83 c 0
 301 -95 297 -107 297 -123 c 0
224 618 m 0
 208 615 198 602 198 586 c 0
 198 557 218 539 245 526 c 0
 253 522 262 519 262 512 c 0
 262 507 255 502 242 502 c 0
 189 502 146 546 146 599 c 0
 146 646 172 696 219 696 c 0
 243 696 266 681 266 658 c 0
 266 635 247 622 224 618 c 0
318 518 m 0
 312 508 302 496 294 496 c 0
 285 496 285 500 285 509 c 0
 285 527 316 649 326 685 c 0
 329 697 343 703 351 703 c 0
 370 703 389 678 389 662 c 0
 389 652 339 554 318 518 c 0
EndSplineSet
EndChar
StartChar: uni1F86.ctsc
Encoding: 1115435 -1 3273
Width: 711
VWidth: 0
Flags: HW
LayerCount: 3
Fore
SplineSet
671 27 m 0
 682 25 694 19 694 9 c 0
 694 1 681 -3 674 -3 c 0
 635 -3 621 2 586 2 c 0
 551 2 530 -3 491 -3 c 0
 484 -3 471 1 471 9 c 0
 471 19 483 24 494 27 c 0
 522 34 533 36 533 58 c 0
 533 71 521 106 511 132 c 0
 509 138 506 139 492 139 c 2
 346 139 l 10
 338 139 334 136 330 127 c 0
 316 91 310 81 310 65 c 0
 310 39 327 33 347 27 c 0
 358 23 370 19 370 9 c 0
 370 1 357 -3 350 -3 c 0
 311 -3 304 2 269 2 c 0
 234 2 232 -3 193 -3 c 0
 186 -3 173 1 173 9 c 0
 173 19 185 23 196 26 c 0
 227 33 253 36 277 92 c 2
 393 360 l 2
 407 393 402 407 405 410 c 0
 414 419 438 444 444 451 c 0
 452 460 457 463 460 463 c 0
 464 463 465 460 467 454 c 2
 602 107 l 2
 615 73 631 35 671 27 c 0
420 337 m 0
 403 295 376 233 354 185 c 0
 350 176 355 175 367 175 c 2
 483 175 l 2
 493 175 494 175 491 185 c 0
 484 212 445 306 434 337 c 0
 428 352 426 352 420 337 c 0
460 -123 m 0
 460 -148 463 -156 477 -156 c 0
 498 -156 513 -142 516 -142 c 0
 525 -142 526 -147 526 -158 c 0
 526 -167 503 -218 453 -218 c 0
 419 -218 394 -186 394 -136 c 0
 394 -90 397 -57 428 -57 c 0
 451 -57 464 -64 464 -83 c 0
 464 -95 460 -107 460 -123 c 0
124 301 m 0
 105 302 88 313 88 335 c 0
 88 351 106 361 135 361 c 0
 175 361 208 329 208 288 c 0
 208 233 155 197 116 197 c 0
 104 197 98 202 98 207 c 0
 98 211 103 216 112 219 c 0
 141 229 161 244 161 267 c 0
 161 287 144 300 124 301 c 0
31 365 m 0
 21 365 17 370 17 380 c 0
 17 390 62 465 105 465 c 0
 130 465 187 440 212 440 c 0
 241 440 261 466 269 466 c 0
 279 466 285 459 285 449 c 0
 285 439 242 382 200 382 c 0
 175 382 117 406 92 406 c 0
 68 406 39 365 31 365 c 0
EndSplineSet
Colour: ff00
EndChar
StartChar: uni1F86.taboldstyle
Encoding: 1115314 -1 3151
Width: 549
VWidth: 0
Flags: HW
LayerCount: 3
Fore
SplineSet
508 27 m 0
 519 25 531 19 531 9 c 0
 531 1 518 -3 511 -3 c 0
 472 -3 458 2 423 2 c 0
 388 2 367 -3 328 -3 c 0
 321 -3 308 1 308 9 c 0
 308 19 320 24 331 27 c 0
 359 34 370 36 370 58 c 0
 370 71 358 106 348 132 c 0
 346 138 343 139 329 139 c 2
 183 139 l 10
 175 139 171 136 167 127 c 0
 153 91 147 81 147 65 c 0
 147 39 164 33 184 27 c 0
 195 23 207 19 207 9 c 0
 207 1 194 -3 187 -3 c 0
 148 -3 141 2 106 2 c 0
 71 2 69 -3 30 -3 c 0
 23 -3 10 1 10 9 c 0
 10 19 22 23 33 26 c 0
 64 33 90 36 114 92 c 2
 230 360 l 2
 244 393 239 407 242 410 c 0
 251 419 275 444 281 451 c 0
 289 460 294 463 297 463 c 0
 301 463 302 460 304 454 c 2
 439 107 l 2
 452 73 468 35 508 27 c 0
257 337 m 0
 240 295 213 233 191 185 c 0
 187 176 192 175 204 175 c 2
 320 175 l 2
 330 175 331 175 328 185 c 0
 321 212 282 306 271 337 c 0
 265 352 263 352 257 337 c 0
297 -123 m 0
 297 -148 300 -156 314 -156 c 0
 335 -156 350 -142 353 -142 c 0
 362 -142 363 -147 363 -158 c 0
 363 -167 340 -218 290 -218 c 0
 256 -218 231 -186 231 -136 c 0
 231 -90 234 -57 265 -57 c 0
 288 -57 301 -64 301 -83 c 0
 301 -95 297 -107 297 -123 c 0
257 600 m 0
 238 601 221 612 221 634 c 0
 221 650 239 660 268 660 c 0
 308 660 341 628 341 587 c 0
 341 532 288 496 249 496 c 0
 237 496 231 501 231 506 c 0
 231 510 236 515 245 518 c 0
 274 528 294 543 294 566 c 0
 294 586 277 599 257 600 c 0
164 664 m 0
 154 664 150 669 150 679 c 0
 150 689 195 764 238 764 c 0
 263 764 320 739 345 739 c 0
 374 739 394 765 402 765 c 0
 412 765 418 758 418 748 c 0
 418 738 375 681 333 681 c 0
 308 681 250 705 225 705 c 0
 201 705 172 664 164 664 c 0
EndSplineSet
EndChar
StartChar: uni1F87.ctsc
Encoding: 1115436 -1 3274
Width: 691
VWidth: 0
Flags: HW
LayerCount: 3
Fore
SplineSet
650 27 m 0
 661 25 673 19 673 9 c 0
 673 1 660 -3 653 -3 c 0
 614 -3 600 2 565 2 c 0
 530 2 509 -3 470 -3 c 0
 463 -3 450 1 450 9 c 0
 450 19 462 24 473 27 c 0
 501 34 512 36 512 58 c 0
 512 71 500 106 490 132 c 0
 488 138 485 139 471 139 c 2
 325 139 l 10
 317 139 313 136 309 127 c 0
 295 91 289 81 289 65 c 0
 289 39 306 33 326 27 c 0
 337 23 349 19 349 9 c 0
 349 1 336 -3 329 -3 c 0
 290 -3 283 2 248 2 c 0
 213 2 211 -3 172 -3 c 0
 165 -3 152 1 152 9 c 0
 152 19 164 23 175 26 c 0
 206 33 232 36 256 92 c 2
 372 360 l 2
 386 393 381 407 384 410 c 0
 393 419 417 444 423 451 c 0
 431 460 436 463 439 463 c 0
 443 463 444 460 446 454 c 2
 581 107 l 2
 594 73 610 35 650 27 c 0
399 337 m 0
 382 295 355 233 333 185 c 0
 329 176 334 175 346 175 c 2
 462 175 l 2
 472 175 473 175 470 185 c 0
 463 212 424 306 413 337 c 0
 407 352 405 352 399 337 c 0
439 -123 m 0
 439 -148 442 -156 456 -156 c 0
 477 -156 492 -142 495 -142 c 0
 504 -142 505 -147 505 -158 c 0
 505 -167 482 -218 432 -218 c 0
 398 -218 373 -186 373 -136 c 0
 373 -90 376 -57 407 -57 c 0
 430 -57 443 -64 443 -83 c 0
 443 -95 439 -107 439 -123 c 0
156 313 m 0
 136 312 119 299 119 279 c 0
 119 256 139 241 168 231 c 0
 177 228 182 223 182 219 c 0
 182 214 176 209 164 209 c 0
 125 209 72 245 72 300 c 0
 72 341 105 373 145 373 c 0
 174 373 192 363 192 347 c 0
 192 325 175 314 156 313 c 0
25 377 m 0
 15 377 11 382 11 392 c 0
 11 402 56 477 99 477 c 0
 124 477 181 452 206 452 c 0
 235 452 255 478 263 478 c 0
 273 478 279 471 279 461 c 0
 279 451 236 394 194 394 c 0
 169 394 111 418 86 418 c 0
 62 418 33 377 25 377 c 0
EndSplineSet
Colour: ff00
EndChar
StartChar: uni1F90.ctsc
Encoding: 1115437 -1 3275
Width: 774
VWidth: 0
Flags: HW
LayerCount: 3
Fore
SplineSet
580 352 m 2
 580 391 564 415 522 422 c 0
 510 424 498 431 498 441 c 0
 498 449 511 453 518 453 c 0
 557 453 582 448 618 448 c 0
 653 448 678 453 717 453 c 0
 724 453 737 449 737 441 c 0
 737 431 725 424 713 422 c 0
 671 415 655 391 655 352 c 2
 655 79 l 2
 655 43 686 32 721 25 c 0
 732 23 745 19 745 9 c 0
 745 1 732 -3 725 -3 c 0
 686 -3 660 3 618 3 c 24
 576 3 549 -3 510 -3 c 0
 503 -3 490 1 490 9 c 0
 490 19 503 23 514 25 c 0
 549 32 580 43 580 79 c 2
 580 211 l 2
 580 216 578 216 576 216 c 16
 523 217 491 218 449 218 c 0
 414 218 378 217 333 216 c 8
 330 216 330 214 330 209 c 2
 330 79 l 2
 330 43 361 32 396 25 c 0
 407 23 420 19 420 9 c 0
 420 1 407 -3 400 -3 c 0
 361 -3 335 3 293 3 c 24
 251 3 224 -3 185 -3 c 0
 178 -3 165 1 165 9 c 0
 165 19 178 23 189 25 c 0
 224 32 255 43 255 79 c 2
 255 352 l 2
 255 392 239 415 197 422 c 0
 185 424 173 431 173 441 c 0
 173 449 186 453 193 453 c 0
 232 453 257 448 293 448 c 0
 328 448 353 453 392 453 c 0
 399 453 412 449 412 441 c 0
 412 431 400 424 388 422 c 0
 346 415 330 392 330 352 c 2
 330 259 l 2
 330 254 335 253 340 253 c 16
 391 252 412 251 452 251 c 0
 486 251 531 252 575 253 c 8
 579 253 580 255 580 261 c 2
 580 352 l 2
483 -123 m 0
 483 -148 486 -156 500 -156 c 0
 521 -156 536 -142 539 -142 c 0
 548 -142 549 -147 549 -158 c 0
 549 -167 526 -218 476 -218 c 0
 442 -218 417 -186 417 -136 c 0
 417 -90 420 -57 451 -57 c 0
 474 -57 487 -64 487 -83 c 0
 487 -95 483 -107 483 -123 c 0
55.75 374.5 m 0
 32.75 378.5 13.75 391.5 13.75 414.5 c 0
 13.75 437.5 36.75 452.5 60.75 452.5 c 0
 107.75 452.5 133.75 403.5 133.75 355.5 c 0
 133.75 302.5 89.75 258.5 37.75 258.5 c 0
 24.75 258.5 17.75 263.5 17.75 268.5 c 0
 17.75 275.5 26.75 278.5 34.75 282.5 c 0
 61.75 295.5 81.75 313.5 81.75 342.5 c 0
 81.75 358.5 71.75 371.5 55.75 374.5 c 0
EndSplineSet
Colour: ff00
EndChar
StartChar: uni1F91.ctsc
Encoding: 1115438 -1 3276
Width: 778
VWidth: 0
Flags: HW
LayerCount: 3
Fore
SplineSet
583 352 m 2
 583 391 567 415 525 422 c 0
 513 424 501 431 501 441 c 0
 501 449 514 453 521 453 c 0
 560 453 585 448 621 448 c 0
 656 448 681 453 720 453 c 0
 727 453 740 449 740 441 c 0
 740 431 728 424 716 422 c 0
 674 415 658 391 658 352 c 2
 658 79 l 2
 658 43 689 32 724 25 c 0
 735 23 748 19 748 9 c 0
 748 1 735 -3 728 -3 c 0
 689 -3 663 3 621 3 c 24
 579 3 552 -3 513 -3 c 0
 506 -3 493 1 493 9 c 0
 493 19 506 23 517 25 c 0
 552 32 583 43 583 79 c 2
 583 211 l 2
 583 216 581 216 579 216 c 16
 526 217 494 218 452 218 c 0
 417 218 381 217 336 216 c 8
 333 216 333 214 333 209 c 2
 333 79 l 2
 333 43 364 32 399 25 c 0
 410 23 423 19 423 9 c 0
 423 1 410 -3 403 -3 c 0
 364 -3 338 3 296 3 c 24
 254 3 227 -3 188 -3 c 0
 181 -3 168 1 168 9 c 0
 168 19 181 23 192 25 c 0
 227 32 258 43 258 79 c 2
 258 352 l 2
 258 392 242 415 200 422 c 0
 188 424 176 431 176 441 c 0
 176 449 189 453 196 453 c 0
 235 453 260 448 296 448 c 0
 331 448 356 453 395 453 c 0
 402 453 415 449 415 441 c 0
 415 431 403 424 391 422 c 0
 349 415 333 392 333 352 c 2
 333 259 l 2
 333 254 338 253 343 253 c 16
 394 252 415 251 455 251 c 0
 489 251 534 252 578 253 c 8
 582 253 583 255 583 261 c 2
 583 352 l 2
486 -123 m 0
 486 -148 489 -156 503 -156 c 0
 524 -156 539 -142 542 -142 c 0
 551 -142 552 -147 552 -158 c 0
 552 -167 529 -218 479 -218 c 0
 445 -218 420 -186 420 -136 c 0
 420 -90 423 -57 454 -57 c 0
 477 -57 490 -64 490 -83 c 0
 490 -95 486 -107 486 -123 c 0
93.75 373.5 m 0
 77.75 370.5 67.75 357.5 67.75 341.5 c 0
 67.75 312.5 87.75 294.5 114.75 281.5 c 0
 122.75 277.5 131.75 274.5 131.75 267.5 c 0
 131.75 262.5 124.75 257.5 111.75 257.5 c 0
 58.75 257.5 15.75 301.5 15.75 354.5 c 0
 15.75 401.5 41.75 451.5 88.75 451.5 c 0
 112.75 451.5 135.75 436.5 135.75 413.5 c 0
 135.75 390.5 116.75 377.5 93.75 373.5 c 0
EndSplineSet
Colour: ff00
EndChar
StartChar: uni1F92.ctsc
Encoding: 1115439 -1 3277
Width: 873
VWidth: 0
Flags: HW
LayerCount: 3
Fore
SplineSet
678 352 m 2
 678 391 662 415 620 422 c 0
 608 424 596 431 596 441 c 0
 596 449 609 453 616 453 c 0
 655 453 680 448 716 448 c 0
 751 448 776 453 815 453 c 0
 822 453 835 449 835 441 c 0
 835 431 823 424 811 422 c 0
 769 415 753 391 753 352 c 2
 753 79 l 2
 753 43 784 32 819 25 c 0
 830 23 843 19 843 9 c 0
 843 1 830 -3 823 -3 c 0
 784 -3 758 3 716 3 c 24
 674 3 647 -3 608 -3 c 0
 601 -3 588 1 588 9 c 0
 588 19 601 23 612 25 c 0
 647 32 678 43 678 79 c 2
 678 211 l 2
 678 216 676 216 674 216 c 16
 621 217 589 218 547 218 c 0
 512 218 476 217 431 216 c 8
 428 216 428 214 428 209 c 2
 428 79 l 2
 428 43 459 32 494 25 c 0
 505 23 518 19 518 9 c 0
 518 1 505 -3 498 -3 c 0
 459 -3 433 3 391 3 c 24
 349 3 322 -3 283 -3 c 0
 276 -3 263 1 263 9 c 0
 263 19 276 23 287 25 c 0
 322 32 353 43 353 79 c 2
 353 352 l 2
 353 392 337 415 295 422 c 0
 283 424 271 431 271 441 c 0
 271 449 284 453 291 453 c 0
 330 453 355 448 391 448 c 0
 426 448 451 453 490 453 c 0
 497 453 510 449 510 441 c 0
 510 431 498 424 486 422 c 0
 444 415 428 392 428 352 c 2
 428 259 l 2
 428 254 433 253 438 253 c 16
 489 252 510 251 550 251 c 0
 584 251 629 252 673 253 c 8
 677 253 678 255 678 261 c 2
 678 352 l 2
581 -123 m 0
 581 -148 584 -156 598 -156 c 0
 619 -156 634 -142 637 -142 c 0
 646 -142 647 -147 647 -158 c 0
 647 -167 624 -218 574 -218 c 0
 540 -218 515 -186 515 -136 c 0
 515 -90 518 -57 549 -57 c 0
 572 -57 585 -64 585 -83 c 0
 585 -95 581 -107 581 -123 c 0
61.75 370.5 m 0
 38.75 374.5 19.75 387.5 19.75 410.5 c 0
 19.75 433.5 42.75 448.5 66.75 448.5 c 0
 113.75 448.5 139.75 399.5 139.75 351.5 c 0
 139.75 298.5 95.75 254.5 43.75 254.5 c 0
 30.75 254.5 23.75 259.5 23.75 264.5 c 0
 23.75 271.5 32.75 274.5 40.75 278.5 c 0
 67.75 291.5 87.75 309.5 87.75 338.5 c 0
 87.75 354.5 77.75 367.5 61.75 370.5 c 0
229.75 270.5 m 0
 208.75 306.5 158.75 404.5 158.75 414.5 c 0
 158.75 430.5 177.75 455.5 196.75 455.5 c 0
 204.75 455.5 218.75 449.5 221.75 437.5 c 0
 231.75 401.5 262.75 279.5 262.75 261.5 c 0
 262.75 252.5 262.75 248.5 253.75 248.5 c 0
 245.75 248.5 235.75 260.5 229.75 270.5 c 0
EndSplineSet
Colour: ff00
EndChar
StartChar: uni1F93.ctsc
Encoding: 1115440 -1 3278
Width: 870
VWidth: 0
Flags: HW
LayerCount: 3
Fore
SplineSet
675 352 m 2
 675 391 659 415 617 422 c 0
 605 424 593 431 593 441 c 0
 593 449 606 453 613 453 c 0
 652 453 677 448 713 448 c 0
 748 448 773 453 812 453 c 0
 819 453 832 449 832 441 c 0
 832 431 820 424 808 422 c 0
 766 415 750 391 750 352 c 2
 750 79 l 2
 750 43 781 32 816 25 c 0
 827 23 840 19 840 9 c 0
 840 1 827 -3 820 -3 c 0
 781 -3 755 3 713 3 c 24
 671 3 644 -3 605 -3 c 0
 598 -3 585 1 585 9 c 0
 585 19 598 23 609 25 c 0
 644 32 675 43 675 79 c 2
 675 211 l 2
 675 216 673 216 671 216 c 16
 618 217 586 218 544 218 c 0
 509 218 473 217 428 216 c 8
 425 216 425 214 425 209 c 2
 425 79 l 2
 425 43 456 32 491 25 c 0
 502 23 515 19 515 9 c 0
 515 1 502 -3 495 -3 c 0
 456 -3 430 3 388 3 c 24
 346 3 319 -3 280 -3 c 0
 273 -3 260 1 260 9 c 0
 260 19 273 23 284 25 c 0
 319 32 350 43 350 79 c 2
 350 352 l 2
 350 392 334 415 292 422 c 0
 280 424 268 431 268 441 c 0
 268 449 281 453 288 453 c 0
 327 453 352 448 388 448 c 0
 423 448 448 453 487 453 c 0
 494 453 507 449 507 441 c 0
 507 431 495 424 483 422 c 0
 441 415 425 392 425 352 c 2
 425 259 l 2
 425 254 430 253 435 253 c 16
 486 252 507 251 547 251 c 0
 581 251 626 252 670 253 c 8
 674 253 675 255 675 261 c 2
 675 352 l 2
578 -123 m 0
 578 -148 581 -156 595 -156 c 0
 616 -156 631 -142 634 -142 c 0
 643 -142 644 -147 644 -158 c 0
 644 -167 621 -218 571 -218 c 0
 537 -218 512 -186 512 -136 c 0
 512 -90 515 -57 546 -57 c 0
 569 -57 582 -64 582 -83 c 0
 582 -95 578 -107 578 -123 c 0
91.75 366.5 m 0
 75.75 363.5 65.75 350.5 65.75 334.5 c 0
 65.75 305.5 85.75 287.5 112.75 274.5 c 0
 120.75 270.5 129.75 267.5 129.75 260.5 c 0
 129.75 255.5 122.75 250.5 109.75 250.5 c 0
 56.75 250.5 13.75 294.5 13.75 347.5 c 0
 13.75 394.5 39.75 444.5 86.75 444.5 c 0
 110.75 444.5 133.75 429.5 133.75 406.5 c 0
 133.75 383.5 114.75 370.5 91.75 366.5 c 0
223.75 266.5 m 0
 202.75 302.5 152.75 400.5 152.75 410.5 c 0
 152.75 426.5 171.75 451.5 190.75 451.5 c 0
 198.75 451.5 212.75 445.5 215.75 433.5 c 0
 225.75 397.5 256.75 275.5 256.75 257.5 c 0
 256.75 248.5 256.75 244.5 247.75 244.5 c 0
 239.75 244.5 229.75 256.5 223.75 266.5 c 0
EndSplineSet
Colour: ff00
EndChar
StartChar: uni1F94.ctsc
Encoding: 1115441 -1 3279
Width: 899
VWidth: 0
Flags: HW
LayerCount: 3
Fore
SplineSet
705 352 m 2
 705 391 689 415 647 422 c 0
 635 424 623 431 623 441 c 0
 623 449 636 453 643 453 c 0
 682 453 707 448 743 448 c 0
 778 448 803 453 842 453 c 0
 849 453 862 449 862 441 c 0
 862 431 850 424 838 422 c 0
 796 415 780 391 780 352 c 2
 780 79 l 2
 780 43 811 32 846 25 c 0
 857 23 870 19 870 9 c 0
 870 1 857 -3 850 -3 c 0
 811 -3 785 3 743 3 c 24
 701 3 674 -3 635 -3 c 0
 628 -3 615 1 615 9 c 0
 615 19 628 23 639 25 c 0
 674 32 705 43 705 79 c 2
 705 211 l 2
 705 216 703 216 701 216 c 16
 648 217 616 218 574 218 c 0
 539 218 503 217 458 216 c 8
 455 216 455 214 455 209 c 2
 455 79 l 2
 455 43 486 32 521 25 c 0
 532 23 545 19 545 9 c 0
 545 1 532 -3 525 -3 c 0
 486 -3 460 3 418 3 c 24
 376 3 349 -3 310 -3 c 0
 303 -3 290 1 290 9 c 0
 290 19 303 23 314 25 c 0
 349 32 380 43 380 79 c 2
 380 352 l 2
 380 392 364 415 322 422 c 0
 310 424 298 431 298 441 c 0
 298 449 311 453 318 453 c 0
 357 453 382 448 418 448 c 0
 453 448 478 453 517 453 c 0
 524 453 537 449 537 441 c 0
 537 431 525 424 513 422 c 0
 471 415 455 392 455 352 c 2
 455 259 l 2
 455 254 460 253 465 253 c 16
 516 252 537 251 577 251 c 0
 611 251 656 252 700 253 c 8
 704 253 705 255 705 261 c 2
 705 352 l 2
608 -123 m 0
 608 -148 611 -156 625 -156 c 0
 646 -156 661 -142 664 -142 c 0
 673 -142 674 -147 674 -158 c 0
 674 -167 651 -218 601 -218 c 0
 567 -218 542 -186 542 -136 c 0
 542 -90 545 -57 576 -57 c 0
 599 -57 612 -64 612 -83 c 0
 612 -95 608 -107 608 -123 c 0
58.75 370.5 m 0
 35.75 374.5 16.75 387.5 16.75 410.5 c 0
 16.75 433.5 39.75 448.5 63.75 448.5 c 0
 110.75 448.5 136.75 399.5 136.75 351.5 c 0
 136.75 298.5 92.75 254.5 40.75 254.5 c 0
 27.75 254.5 20.75 259.5 20.75 264.5 c 0
 20.75 271.5 29.75 274.5 37.75 278.5 c 0
 64.75 291.5 84.75 309.5 84.75 338.5 c 0
 84.75 354.5 74.75 367.5 58.75 370.5 c 0
188.75 270.5 m 0
 182.75 260.5 172.75 248.5 164.75 248.5 c 0
 155.75 248.5 155.75 252.5 155.75 261.5 c 0
 155.75 279.5 186.75 401.5 196.75 437.5 c 0
 199.75 449.5 213.75 455.5 221.75 455.5 c 0
 240.75 455.5 259.75 430.5 259.75 414.5 c 0
 259.75 404.5 209.75 306.5 188.75 270.5 c 0
EndSplineSet
Colour: ff00
EndChar
StartChar: uni1F95.ctsc
Encoding: 1115442 -1 3280
Width: 889
VWidth: 0
Flags: HW
LayerCount: 3
Fore
SplineSet
695 352 m 2
 695 391 679 415 637 422 c 0
 625 424 613 431 613 441 c 0
 613 449 626 453 633 453 c 0
 672 453 697 448 733 448 c 0
 768 448 793 453 832 453 c 0
 839 453 852 449 852 441 c 0
 852 431 840 424 828 422 c 0
 786 415 770 391 770 352 c 2
 770 79 l 2
 770 43 801 32 836 25 c 0
 847 23 860 19 860 9 c 0
 860 1 847 -3 840 -3 c 0
 801 -3 775 3 733 3 c 24
 691 3 664 -3 625 -3 c 0
 618 -3 605 1 605 9 c 0
 605 19 618 23 629 25 c 0
 664 32 695 43 695 79 c 2
 695 211 l 2
 695 216 693 216 691 216 c 16
 638 217 606 218 564 218 c 0
 529 218 493 217 448 216 c 8
 445 216 445 214 445 209 c 2
 445 79 l 2
 445 43 476 32 511 25 c 0
 522 23 535 19 535 9 c 0
 535 1 522 -3 515 -3 c 0
 476 -3 450 3 408 3 c 24
 366 3 339 -3 300 -3 c 0
 293 -3 280 1 280 9 c 0
 280 19 293 23 304 25 c 0
 339 32 370 43 370 79 c 2
 370 352 l 2
 370 392 354 415 312 422 c 0
 300 424 288 431 288 441 c 0
 288 449 301 453 308 453 c 0
 347 453 372 448 408 448 c 0
 443 448 468 453 507 453 c 0
 514 453 527 449 527 441 c 0
 527 431 515 424 503 422 c 0
 461 415 445 392 445 352 c 2
 445 259 l 2
 445 254 450 253 455 253 c 16
 506 252 527 251 567 251 c 0
 601 251 646 252 690 253 c 8
 694 253 695 255 695 261 c 2
 695 352 l 2
598 -123 m 0
 598 -148 601 -156 615 -156 c 0
 636 -156 651 -142 654 -142 c 0
 663 -142 664 -147 664 -158 c 0
 664 -167 641 -218 591 -218 c 0
 557 -218 532 -186 532 -136 c 0
 532 -90 535 -57 566 -57 c 0
 589 -57 602 -64 602 -83 c 0
 602 -95 598 -107 598 -123 c 0
92.75 367.5 m 0
 76.75 364.5 66.75 351.5 66.75 335.5 c 0
 66.75 306.5 86.75 288.5 113.75 275.5 c 0
 121.75 271.5 130.75 268.5 130.75 261.5 c 0
 130.75 256.5 123.75 251.5 110.75 251.5 c 0
 57.75 251.5 14.75 295.5 14.75 348.5 c 0
 14.75 395.5 40.75 445.5 87.75 445.5 c 0
 111.75 445.5 134.75 430.5 134.75 407.5 c 0
 134.75 384.5 115.75 371.5 92.75 367.5 c 0
186.75 267.5 m 0
 180.75 257.5 170.75 245.5 162.75 245.5 c 0
 153.75 245.5 153.75 249.5 153.75 258.5 c 0
 153.75 276.5 184.75 398.5 194.75 434.5 c 0
 197.75 446.5 211.75 452.5 219.75 452.5 c 0
 238.75 452.5 257.75 427.5 257.75 411.5 c 0
 257.75 401.5 207.75 303.5 186.75 267.5 c 0
EndSplineSet
Colour: ff00
EndChar
StartChar: uni1F96.ctsc
Encoding: 1115443 -1 3281
Width: 859
VWidth: 0
Flags: HW
LayerCount: 3
Fore
SplineSet
665 352 m 2
 665 391 649 415 607 422 c 0
 595 424 583 431 583 441 c 0
 583 449 596 453 603 453 c 0
 642 453 667 448 703 448 c 0
 738 448 763 453 802 453 c 0
 809 453 822 449 822 441 c 0
 822 431 810 424 798 422 c 0
 756 415 740 391 740 352 c 2
 740 79 l 2
 740 43 771 32 806 25 c 0
 817 23 830 19 830 9 c 0
 830 1 817 -3 810 -3 c 0
 771 -3 745 3 703 3 c 24
 661 3 634 -3 595 -3 c 0
 588 -3 575 1 575 9 c 0
 575 19 588 23 599 25 c 0
 634 32 665 43 665 79 c 2
 665 211 l 2
 665 216 663 216 661 216 c 16
 608 217 576 218 534 218 c 0
 499 218 463 217 418 216 c 8
 415 216 415 214 415 209 c 2
 415 79 l 2
 415 43 446 32 481 25 c 0
 492 23 505 19 505 9 c 0
 505 1 492 -3 485 -3 c 0
 446 -3 420 3 378 3 c 24
 336 3 309 -3 270 -3 c 0
 263 -3 250 1 250 9 c 0
 250 19 263 23 274 25 c 0
 309 32 340 43 340 79 c 2
 340 352 l 2
 340 392 324 415 282 422 c 0
 270 424 258 431 258 441 c 0
 258 449 271 453 278 453 c 0
 317 453 342 448 378 448 c 0
 413 448 438 453 477 453 c 0
 484 453 497 449 497 441 c 0
 497 431 485 424 473 422 c 0
 431 415 415 392 415 352 c 2
 415 259 l 2
 415 254 420 253 425 253 c 16
 476 252 497 251 537 251 c 0
 571 251 616 252 660 253 c 8
 664 253 665 255 665 261 c 2
 665 352 l 2
568 -123 m 0
 568 -148 571 -156 585 -156 c 0
 606 -156 621 -142 624 -142 c 0
 633 -142 634 -147 634 -158 c 0
 634 -167 611 -218 561 -218 c 0
 527 -218 502 -186 502 -136 c 0
 502 -90 505 -57 536 -57 c 0
 559 -57 572 -64 572 -83 c 0
 572 -95 568 -107 568 -123 c 0
118 281 m 0
 99 282 82 293 82 315 c 0
 82 331 100 341 129 341 c 0
 169 341 202 309 202 268 c 0
 202 213 149 177 110 177 c 0
 98 177 92 182 92 187 c 0
 92 191 97 196 106 199 c 0
 135 209 155 224 155 247 c 0
 155 267 138 280 118 281 c 0
25 345 m 0
 15 345 11 350 11 360 c 0
 11 370 56 445 99 445 c 0
 124 445 181 420 206 420 c 0
 235 420 255 446 263 446 c 0
 273 446 279 439 279 429 c 0
 279 419 236 362 194 362 c 0
 169 362 111 386 86 386 c 0
 62 386 33 345 25 345 c 0
EndSplineSet
Colour: ff00
EndChar
StartChar: uni1F97.ctsc
Encoding: 1115444 -1 3282
Width: 860
VWidth: 0
Flags: HW
LayerCount: 3
Fore
SplineSet
665 352 m 2
 665 391 649 415 607 422 c 0
 595 424 583 431 583 441 c 0
 583 449 596 453 603 453 c 0
 642 453 667 448 703 448 c 0
 738 448 763 453 802 453 c 0
 809 453 822 449 822 441 c 0
 822 431 810 424 798 422 c 0
 756 415 740 391 740 352 c 2
 740 79 l 2
 740 43 771 32 806 25 c 0
 817 23 830 19 830 9 c 0
 830 1 817 -3 810 -3 c 0
 771 -3 745 3 703 3 c 24
 661 3 634 -3 595 -3 c 0
 588 -3 575 1 575 9 c 0
 575 19 588 23 599 25 c 0
 634 32 665 43 665 79 c 2
 665 211 l 2
 665 216 663 216 661 216 c 16
 608 217 576 218 534 218 c 0
 499 218 463 217 418 216 c 8
 415 216 415 214 415 209 c 2
 415 79 l 2
 415 43 446 32 481 25 c 0
 492 23 505 19 505 9 c 0
 505 1 492 -3 485 -3 c 0
 446 -3 420 3 378 3 c 24
 336 3 309 -3 270 -3 c 0
 263 -3 250 1 250 9 c 0
 250 19 263 23 274 25 c 0
 309 32 340 43 340 79 c 2
 340 352 l 2
 340 392 324 415 282 422 c 0
 270 424 258 431 258 441 c 0
 258 449 271 453 278 453 c 0
 317 453 342 448 378 448 c 0
 413 448 438 453 477 453 c 0
 484 453 497 449 497 441 c 0
 497 431 485 424 473 422 c 0
 431 415 415 392 415 352 c 2
 415 259 l 2
 415 254 420 253 425 253 c 16
 476 252 497 251 537 251 c 0
 571 251 616 252 660 253 c 8
 664 253 665 255 665 261 c 2
 665 352 l 2
568 -123 m 0
 568 -148 571 -156 585 -156 c 0
 606 -156 621 -142 624 -142 c 0
 633 -142 634 -147 634 -158 c 0
 634 -167 611 -218 561 -218 c 0
 527 -218 502 -186 502 -136 c 0
 502 -90 505 -57 536 -57 c 0
 559 -57 572 -64 572 -83 c 0
 572 -95 568 -107 568 -123 c 0
156 285 m 0
 136 284 119 271 119 251 c 0
 119 228 139 213 168 203 c 0
 177 200 182 195 182 191 c 0
 182 186 176 181 164 181 c 0
 125 181 72 217 72 272 c 0
 72 313 105 345 145 345 c 0
 174 345 192 335 192 319 c 0
 192 297 175 286 156 285 c 0
25 349 m 0
 15 349 11 354 11 364 c 0
 11 374 56 449 99 449 c 0
 124 449 181 424 206 424 c 0
 235 424 255 450 263 450 c 0
 273 450 279 443 279 433 c 0
 279 423 236 366 194 366 c 0
 169 366 111 390 86 390 c 0
 62 390 33 349 25 349 c 0
EndSplineSet
Colour: ff00
EndChar
StartChar: uni1FA0.ctsc
Encoding: 1115445 -1 3283
Width: 768
VWidth: 0
Flags: HW
LayerCount: 3
Fore
SplineSet
321 73 m 0
 244 118 196 167 196 252 c 0
 196 378 317 464 443 464 c 0
 563 464 682 384 682 264 c 0
 682 173 628 115 555 73 c 0
 549 69 546 61 552 61 c 2
 629 61 l 2
 664 61 679 74 694 96 c 0
 701 105 707 118 717 118 c 0
 721 118 724 115 724 111 c 0
 724 78 709 22 702 8 c 0
 699 2 699 -4 692 -4 c 0
 671 -4 655 0 635 0 c 2
 492 0 l 2
 488 0 486 3 486 7 c 0
 486 26 497 56 506 62 c 0
 546 91 594 166 594 245 c 16
 594 340 530 435 435 435 c 0
 346 435 284 347 284 258 c 8
 284 172 307 111 375 58 c 0
 384 51 388 23 391 7 c 0
 392 4 391 0 386 0 c 2
 242 0 l 2
 222 0 206 -4 185 -4 c 0
 178 -4 177 1 175 8 c 0
 170 29 154 77 154 112 c 0
 154 116 156 119 160 119 c 0
 170 119 172 110 179 101 c 0
 194 79 202 61 238 61 c 2
 320 61 l 2
 325 61 327 69 321 73 c 0
469 -123 m 0
 469 -148 472 -156 486 -156 c 0
 507 -156 522 -142 525 -142 c 0
 534 -142 535 -147 535 -158 c 0
 535 -167 512 -218 462 -218 c 0
 428 -218 403 -186 403 -136 c 0
 403 -90 406 -57 437 -57 c 0
 460 -57 473 -64 473 -83 c 0
 473 -95 469 -107 469 -123 c 0
60 384 m 0
 37 388 18 401 18 424 c 0
 18 447 41 462 65 462 c 0
 112 462 138 413 138 365 c 0
 138 312 94 268 42 268 c 0
 29 268 22 273 22 278 c 0
 22 285 31 288 39 292 c 0
 66 305 86 323 86 352 c 0
 86 368 76 381 60 384 c 0
EndSplineSet
Colour: ff00
EndChar
StartChar: uni1FA0.taboldstyle
Encoding: 1115324 -1 3161
Width: 660
VWidth: 0
Flags: HW
LayerCount: 3
Fore
SplineSet
212 73 m 0
 135 118 87 167 87 252 c 0
 87 378 208 464 334 464 c 0
 454 464 573 384 573 264 c 0
 573 173 519 115 446 73 c 0
 440 69 437 61 443 61 c 2
 520 61 l 2
 555 61 570 74 585 96 c 0
 592 105 598 118 608 118 c 0
 612 118 615 115 615 111 c 0
 615 78 600 22 593 8 c 0
 590 2 590 -4 583 -4 c 0
 562 -4 546 0 526 0 c 2
 383 0 l 2
 379 0 377 3 377 7 c 0
 377 26 388 56 397 62 c 0
 437 91 485 166 485 245 c 16
 485 340 421 435 326 435 c 0
 237 435 175 347 175 258 c 8
 175 172 198 111 266 58 c 0
 275 51 279 23 282 7 c 0
 283 4 282 0 277 0 c 2
 133 0 l 2
 113 0 97 -4 76 -4 c 0
 69 -4 68 1 66 8 c 0
 61 29 45 77 45 112 c 0
 45 116 47 119 51 119 c 0
 61 119 63 110 70 101 c 0
 85 79 93 61 129 61 c 2
 211 61 l 2
 216 61 218 69 212 73 c 0
360 -123 m 0
 360 -148 363 -156 377 -156 c 0
 398 -156 413 -142 416 -142 c 0
 425 -142 426 -147 426 -158 c 0
 426 -167 403 -218 353 -218 c 0
 319 -218 294 -186 294 -136 c 0
 294 -90 297 -57 328 -57 c 0
 351 -57 364 -64 364 -83 c 0
 364 -95 360 -107 360 -123 c 0
313 618 m 0
 290 622 271 635 271 658 c 0
 271 681 294 696 318 696 c 0
 365 696 391 647 391 599 c 0
 391 546 347 502 295 502 c 0
 282 502 275 507 275 512 c 0
 275 519 284 522 292 526 c 0
 319 539 339 557 339 586 c 0
 339 602 329 615 313 618 c 0
EndSplineSet
EndChar
StartChar: uni1FA1.ctsc
Encoding: 1115446 -1 3284
Width: 748
VWidth: 0
Flags: HW
LayerCount: 3
Fore
SplineSet
301 73 m 0
 224 118 176 167 176 252 c 0
 176 378 297 464 423 464 c 0
 543 464 662 384 662 264 c 0
 662 173 608 115 535 73 c 0
 529 69 526 61 532 61 c 2
 609 61 l 2
 644 61 659 74 674 96 c 0
 681 105 687 118 697 118 c 0
 701 118 704 115 704 111 c 0
 704 78 689 22 682 8 c 0
 679 2 679 -4 672 -4 c 0
 651 -4 635 0 615 0 c 2
 472 0 l 2
 468 0 466 3 466 7 c 0
 466 26 477 56 486 62 c 0
 526 91 574 166 574 245 c 16
 574 340 510 435 415 435 c 0
 326 435 264 347 264 258 c 8
 264 172 287 111 355 58 c 0
 364 51 368 23 371 7 c 0
 372 4 371 0 366 0 c 2
 222 0 l 2
 202 0 186 -4 165 -4 c 0
 158 -4 157 1 155 8 c 0
 150 29 134 77 134 112 c 0
 134 116 136 119 140 119 c 0
 150 119 152 110 159 101 c 0
 174 79 182 61 218 61 c 2
 300 61 l 2
 305 61 307 69 301 73 c 0
449 -123 m 0
 449 -148 452 -156 466 -156 c 0
 487 -156 502 -142 505 -142 c 0
 514 -142 515 -147 515 -158 c 0
 515 -167 492 -218 442 -218 c 0
 408 -218 383 -186 383 -136 c 0
 383 -90 386 -57 417 -57 c 0
 440 -57 453 -64 453 -83 c 0
 453 -95 449 -107 449 -123 c 0
99 388 m 0
 83 385 73 372 73 356 c 0
 73 327 93 309 120 296 c 0
 128 292 137 289 137 282 c 0
 137 277 130 272 117 272 c 0
 64 272 21 316 21 369 c 0
 21 416 47 466 94 466 c 0
 118 466 141 451 141 428 c 0
 141 405 122 392 99 388 c 0
EndSplineSet
Colour: ff00
EndChar
StartChar: uni1FA2.ctsc
Encoding: 1115447 -1 3285
Width: 893
VWidth: 0
Flags: HW
LayerCount: 3
Fore
SplineSet
446 73 m 0
 369 118 321 167 321 252 c 0
 321 378 442 464 568 464 c 0
 688 464 807 384 807 264 c 0
 807 173 753 115 680 73 c 0
 674 69 671 61 677 61 c 2
 754 61 l 2
 789 61 804 74 819 96 c 0
 826 105 832 118 842 118 c 0
 846 118 849 115 849 111 c 0
 849 78 834 22 827 8 c 0
 824 2 824 -4 817 -4 c 0
 796 -4 780 0 760 0 c 2
 617 0 l 2
 613 0 611 3 611 7 c 0
 611 26 622 56 631 62 c 0
 671 91 719 166 719 245 c 16
 719 340 655 435 560 435 c 0
 471 435 409 347 409 258 c 8
 409 172 432 111 500 58 c 0
 509 51 513 23 516 7 c 0
 517 4 516 0 511 0 c 2
 367 0 l 2
 347 0 331 -4 310 -4 c 0
 303 -4 302 1 300 8 c 0
 295 29 279 77 279 112 c 0
 279 116 281 119 285 119 c 0
 295 119 297 110 304 101 c 0
 319 79 327 61 363 61 c 2
 445 61 l 2
 450 61 452 69 446 73 c 0
594 -123 m 0
 594 -148 597 -156 611 -156 c 0
 632 -156 647 -142 650 -142 c 0
 659 -142 660 -147 660 -158 c 0
 660 -167 637 -218 587 -218 c 0
 553 -218 528 -186 528 -136 c 0
 528 -90 531 -57 562 -57 c 0
 585 -57 598 -64 598 -83 c 0
 598 -95 594 -107 594 -123 c 0
66 386 m 0
 43 390 24 403 24 426 c 0
 24 449 47 464 71 464 c 0
 118 464 144 415 144 367 c 0
 144 314 100 270 48 270 c 0
 35 270 28 275 28 280 c 0
 28 287 37 290 45 294 c 0
 72 307 92 325 92 354 c 0
 92 370 82 383 66 386 c 0
234 286 m 0
 213 322 163 420 163 430 c 0
 163 446 182 471 201 471 c 0
 209 471 223 465 226 453 c 0
 236 417 267 295 267 277 c 0
 267 268 267 264 258 264 c 0
 250 264 240 276 234 286 c 0
EndSplineSet
Colour: ff00
EndChar
StartChar: uni1FA3.ctsc
Encoding: 1115448 -1 3286
Width: 890
VWidth: 0
Flags: HW
LayerCount: 3
Fore
SplineSet
443 73 m 0
 366 118 318 167 318 252 c 0
 318 378 439 464 565 464 c 0
 685 464 804 384 804 264 c 0
 804 173 750 115 677 73 c 0
 671 69 668 61 674 61 c 2
 751 61 l 2
 786 61 801 74 816 96 c 0
 823 105 829 118 839 118 c 0
 843 118 846 115 846 111 c 0
 846 78 831 22 824 8 c 0
 821 2 821 -4 814 -4 c 0
 793 -4 777 0 757 0 c 2
 614 0 l 2
 610 0 608 3 608 7 c 0
 608 26 619 56 628 62 c 0
 668 91 716 166 716 245 c 16
 716 340 652 435 557 435 c 0
 468 435 406 347 406 258 c 8
 406 172 429 111 497 58 c 0
 506 51 510 23 513 7 c 0
 514 4 513 0 508 0 c 2
 364 0 l 2
 344 0 328 -4 307 -4 c 0
 300 -4 299 1 297 8 c 0
 292 29 276 77 276 112 c 0
 276 116 278 119 282 119 c 0
 292 119 294 110 301 101 c 0
 316 79 324 61 360 61 c 2
 442 61 l 2
 447 61 449 69 443 73 c 0
591 -123 m 0
 591 -148 594 -156 608 -156 c 0
 629 -156 644 -142 647 -142 c 0
 656 -142 657 -147 657 -158 c 0
 657 -167 634 -218 584 -218 c 0
 550 -218 525 -186 525 -136 c 0
 525 -90 528 -57 559 -57 c 0
 582 -57 595 -64 595 -83 c 0
 595 -95 591 -107 591 -123 c 0
99 386 m 0
 83 383 73 370 73 354 c 0
 73 325 93 307 120 294 c 0
 128 290 137 287 137 280 c 0
 137 275 130 270 117 270 c 0
 64 270 21 314 21 367 c 0
 21 414 47 464 94 464 c 0
 118 464 141 449 141 426 c 0
 141 403 122 390 99 386 c 0
231 286 m 0
 210 322 160 420 160 430 c 0
 160 446 179 471 198 471 c 0
 206 471 220 465 223 453 c 0
 233 417 264 295 264 277 c 0
 264 268 264 264 255 264 c 0
 247 264 237 276 231 286 c 0
EndSplineSet
Colour: ff00
EndChar
StartChar: uni1FA4.ctsc
Encoding: 1115449 -1 3287
Width: 837
VWidth: 0
Flags: HW
LayerCount: 3
Fore
SplineSet
389 73 m 0
 312 118 264 167 264 252 c 0
 264 378 385 464 511 464 c 0
 631 464 750 384 750 264 c 0
 750 173 696 115 623 73 c 0
 617 69 614 61 620 61 c 2
 697 61 l 2
 732 61 747 74 762 96 c 0
 769 105 775 118 785 118 c 0
 789 118 792 115 792 111 c 0
 792 78 777 22 770 8 c 0
 767 2 767 -4 760 -4 c 0
 739 -4 723 0 703 0 c 2
 560 0 l 2
 556 0 554 3 554 7 c 0
 554 26 565 56 574 62 c 0
 614 91 662 166 662 245 c 16
 662 340 598 435 503 435 c 0
 414 435 352 347 352 258 c 8
 352 172 375 111 443 58 c 0
 452 51 456 23 459 7 c 0
 460 4 459 0 454 0 c 2
 310 0 l 2
 290 0 274 -4 253 -4 c 0
 246 -4 245 1 243 8 c 0
 238 29 222 77 222 112 c 0
 222 116 224 119 228 119 c 0
 238 119 240 110 247 101 c 0
 262 79 270 61 306 61 c 2
 388 61 l 2
 393 61 395 69 389 73 c 0
537 -123 m 0
 537 -148 540 -156 554 -156 c 0
 575 -156 590 -142 593 -142 c 0
 602 -142 603 -147 603 -158 c 0
 603 -167 580 -218 530 -218 c 0
 496 -218 471 -186 471 -136 c 0
 471 -90 474 -57 505 -57 c 0
 528 -57 541 -64 541 -83 c 0
 541 -95 537 -107 537 -123 c 0
63 388 m 0
 40 392 21 405 21 428 c 0
 21 451 44 466 68 466 c 0
 115 466 141 417 141 369 c 0
 141 316 97 272 45 272 c 0
 32 272 25 277 25 282 c 0
 25 289 34 292 42 296 c 0
 69 309 89 327 89 356 c 0
 89 372 79 385 63 388 c 0
193 288 m 0
 187 278 177 266 169 266 c 0
 160 266 160 270 160 279 c 0
 160 297 191 419 201 455 c 0
 204 467 218 473 226 473 c 0
 245 473 264 448 264 432 c 0
 264 422 214 324 193 288 c 0
EndSplineSet
Colour: ff00
EndChar
StartChar: uni1FA4.taboldstyle
Encoding: 1115328 -1 3165
Width: 660
VWidth: 0
Flags: HW
LayerCount: 3
Fore
SplineSet
212 73 m 0
 135 118 87 167 87 252 c 0
 87 378 208 464 334 464 c 0
 454 464 573 384 573 264 c 0
 573 173 519 115 446 73 c 0
 440 69 437 61 443 61 c 2
 520 61 l 2
 555 61 570 74 585 96 c 0
 592 105 598 118 608 118 c 0
 612 118 615 115 615 111 c 0
 615 78 600 22 593 8 c 0
 590 2 590 -4 583 -4 c 0
 562 -4 546 0 526 0 c 2
 383 0 l 2
 379 0 377 3 377 7 c 0
 377 26 388 56 397 62 c 0
 437 91 485 166 485 245 c 16
 485 340 421 435 326 435 c 0
 237 435 175 347 175 258 c 8
 175 172 198 111 266 58 c 0
 275 51 279 23 282 7 c 0
 283 4 282 0 277 0 c 2
 133 0 l 2
 113 0 97 -4 76 -4 c 0
 69 -4 68 1 66 8 c 0
 61 29 45 77 45 112 c 0
 45 116 47 119 51 119 c 0
 61 119 63 110 70 101 c 0
 85 79 93 61 129 61 c 2
 211 61 l 2
 216 61 218 69 212 73 c 0
360 -123 m 0
 360 -148 363 -156 377 -156 c 0
 398 -156 413 -142 416 -142 c 0
 425 -142 426 -147 426 -158 c 0
 426 -167 403 -218 353 -218 c 0
 319 -218 294 -186 294 -136 c 0
 294 -90 297 -57 328 -57 c 0
 351 -57 364 -64 364 -83 c 0
 364 -95 360 -107 360 -123 c 0
242 618 m 0
 219 622 200 635 200 658 c 0
 200 681 223 696 247 696 c 0
 294 696 320 647 320 599 c 0
 320 546 276 502 224 502 c 0
 211 502 204 507 204 512 c 0
 204 519 213 522 221 526 c 0
 248 539 268 557 268 586 c 0
 268 602 258 615 242 618 c 0
372 518 m 0
 366 508 356 496 348 496 c 0
 339 496 339 500 339 509 c 0
 339 527 370 649 380 685 c 0
 383 697 397 703 405 703 c 0
 424 703 443 678 443 662 c 0
 443 652 393 554 372 518 c 0
EndSplineSet
EndChar
StartChar: uni1FA5.ctsc
Encoding: 1115450 -1 3288
Width: 842
VWidth: 0
Flags: HW
LayerCount: 3
Fore
SplineSet
394 73 m 0
 317 118 269 167 269 252 c 0
 269 378 390 464 516 464 c 0
 636 464 755 384 755 264 c 0
 755 173 701 115 628 73 c 0
 622 69 619 61 625 61 c 2
 702 61 l 2
 737 61 752 74 767 96 c 0
 774 105 780 118 790 118 c 0
 794 118 797 115 797 111 c 0
 797 78 782 22 775 8 c 0
 772 2 772 -4 765 -4 c 0
 744 -4 728 0 708 0 c 2
 565 0 l 2
 561 0 559 3 559 7 c 0
 559 26 570 56 579 62 c 0
 619 91 667 166 667 245 c 16
 667 340 603 435 508 435 c 0
 419 435 357 347 357 258 c 8
 357 172 380 111 448 58 c 0
 457 51 461 23 464 7 c 0
 465 4 464 0 459 0 c 2
 315 0 l 2
 295 0 279 -4 258 -4 c 0
 251 -4 250 1 248 8 c 0
 243 29 227 77 227 112 c 0
 227 116 229 119 233 119 c 0
 243 119 245 110 252 101 c 0
 267 79 275 61 311 61 c 2
 393 61 l 2
 398 61 400 69 394 73 c 0
542 -123 m 0
 542 -148 545 -156 559 -156 c 0
 580 -156 595 -142 598 -142 c 0
 607 -142 608 -147 608 -158 c 0
 608 -167 585 -218 535 -218 c 0
 501 -218 476 -186 476 -136 c 0
 476 -90 479 -57 510 -57 c 0
 533 -57 546 -64 546 -83 c 0
 546 -95 542 -107 542 -123 c 0
99 390 m 0
 83 387 73 374 73 358 c 0
 73 329 93 311 120 298 c 0
 128 294 137 291 137 284 c 0
 137 279 130 274 117 274 c 0
 64 274 21 318 21 371 c 0
 21 418 47 468 94 468 c 0
 118 468 141 453 141 430 c 0
 141 407 122 394 99 390 c 0
193 290 m 0
 187 280 177 268 169 268 c 0
 160 268 160 272 160 281 c 0
 160 299 191 421 201 457 c 0
 204 469 218 475 226 475 c 0
 245 475 264 450 264 434 c 0
 264 424 214 326 193 290 c 0
EndSplineSet
Colour: ff00
EndChar
StartChar: uni1FA6.ctsc
Encoding: 1115451 -1 3289
Width: 840
VWidth: 0
Flags: HW
LayerCount: 3
Fore
SplineSet
392 73 m 0
 315 118 267 167 267 252 c 0
 267 378 388 464 514 464 c 0
 634 464 753 384 753 264 c 0
 753 173 699 115 626 73 c 0
 620 69 617 61 623 61 c 2
 700 61 l 2
 735 61 750 74 765 96 c 0
 772 105 778 118 788 118 c 0
 792 118 795 115 795 111 c 0
 795 78 780 22 773 8 c 0
 770 2 770 -4 763 -4 c 0
 742 -4 726 0 706 0 c 2
 563 0 l 2
 559 0 557 3 557 7 c 0
 557 26 568 56 577 62 c 0
 617 91 665 166 665 245 c 16
 665 340 601 435 506 435 c 0
 417 435 355 347 355 258 c 8
 355 172 378 111 446 58 c 0
 455 51 459 23 462 7 c 0
 463 4 462 0 457 0 c 2
 313 0 l 2
 293 0 277 -4 256 -4 c 0
 249 -4 248 1 246 8 c 0
 241 29 225 77 225 112 c 0
 225 116 227 119 231 119 c 0
 241 119 243 110 250 101 c 0
 265 79 273 61 309 61 c 2
 391 61 l 2
 396 61 398 69 392 73 c 0
540 -123 m 0
 540 -148 543 -156 557 -156 c 0
 578 -156 593 -142 596 -142 c 0
 605 -142 606 -147 606 -158 c 0
 606 -167 583 -218 533 -218 c 0
 499 -218 474 -186 474 -136 c 0
 474 -90 477 -57 508 -57 c 0
 531 -57 544 -64 544 -83 c 0
 544 -95 540 -107 540 -123 c 0
120 310 m 0
 101 311 84 322 84 344 c 0
 84 360 102 370 131 370 c 0
 171 370 204 338 204 297 c 0
 204 242 151 206 112 206 c 0
 100 206 94 211 94 216 c 0
 94 220 99 225 108 228 c 0
 137 238 157 253 157 276 c 0
 157 296 140 309 120 310 c 0
27 374 m 0
 17 374 13 379 13 389 c 0
 13 399 58 474 101 474 c 0
 126 474 183 449 208 449 c 0
 237 449 257 475 265 475 c 0
 275 475 281 468 281 458 c 0
 281 448 238 391 196 391 c 0
 171 391 113 415 88 415 c 0
 64 415 35 374 27 374 c 0
EndSplineSet
Colour: ff00
EndChar
StartChar: uni1FA6.taboldstyle
Encoding: 1115330 -1 3167
Width: 660
VWidth: 0
Flags: HW
LayerCount: 3
Fore
SplineSet
212 73 m 0
 135 118 87 167 87 252 c 0
 87 378 208 464 334 464 c 0
 454 464 573 384 573 264 c 0
 573 173 519 115 446 73 c 0
 440 69 437 61 443 61 c 2
 520 61 l 2
 555 61 570 74 585 96 c 0
 592 105 598 118 608 118 c 0
 612 118 615 115 615 111 c 0
 615 78 600 22 593 8 c 0
 590 2 590 -4 583 -4 c 0
 562 -4 546 0 526 0 c 2
 383 0 l 2
 379 0 377 3 377 7 c 0
 377 26 388 56 397 62 c 0
 437 91 485 166 485 245 c 16
 485 340 421 435 326 435 c 0
 237 435 175 347 175 258 c 8
 175 172 198 111 266 58 c 0
 275 51 279 23 282 7 c 0
 283 4 282 0 277 0 c 2
 133 0 l 2
 113 0 97 -4 76 -4 c 0
 69 -4 68 1 66 8 c 0
 61 29 45 77 45 112 c 0
 45 116 47 119 51 119 c 0
 61 119 63 110 70 101 c 0
 85 79 93 61 129 61 c 2
 211 61 l 2
 216 61 218 69 212 73 c 0
360 -123 m 0
 360 -148 363 -156 377 -156 c 0
 398 -156 413 -142 416 -142 c 0
 425 -142 426 -147 426 -158 c 0
 426 -167 403 -218 353 -218 c 0
 319 -218 294 -186 294 -136 c 0
 294 -90 297 -57 328 -57 c 0
 351 -57 364 -64 364 -83 c 0
 364 -95 360 -107 360 -123 c 0
311 600 m 0
 292 601 275 612 275 634 c 0
 275 650 293 660 322 660 c 0
 362 660 395 628 395 587 c 0
 395 532 342 496 303 496 c 0
 291 496 285 501 285 506 c 0
 285 510 290 515 299 518 c 0
 328 528 348 543 348 566 c 0
 348 586 331 599 311 600 c 0
218 664 m 0
 208 664 204 669 204 679 c 0
 204 689 249 764 292 764 c 0
 317 764 374 739 399 739 c 0
 428 739 448 765 456 765 c 0
 466 765 472 758 472 748 c 0
 472 738 429 681 387 681 c 0
 362 681 304 705 279 705 c 0
 255 705 226 664 218 664 c 0
EndSplineSet
EndChar
StartChar: uni1FA7.ctsc
Encoding: 1115452 -1 3290
Width: 816
VWidth: 0
Flags: HW
LayerCount: 3
Fore
SplineSet
369 73 m 0
 292 118 244 167 244 252 c 0
 244 378 365 464 491 464 c 0
 611 464 730 384 730 264 c 0
 730 173 676 115 603 73 c 0
 597 69 594 61 600 61 c 2
 677 61 l 2
 712 61 727 74 742 96 c 0
 749 105 755 118 765 118 c 0
 769 118 772 115 772 111 c 0
 772 78 757 22 750 8 c 0
 747 2 747 -4 740 -4 c 0
 719 -4 703 0 683 0 c 2
 540 0 l 2
 536 0 534 3 534 7 c 0
 534 26 545 56 554 62 c 0
 594 91 642 166 642 245 c 16
 642 340 578 435 483 435 c 0
 394 435 332 347 332 258 c 8
 332 172 355 111 423 58 c 0
 432 51 436 23 439 7 c 0
 440 4 439 0 434 0 c 2
 290 0 l 2
 270 0 254 -4 233 -4 c 0
 226 -4 225 1 223 8 c 0
 218 29 202 77 202 112 c 0
 202 116 204 119 208 119 c 0
 218 119 220 110 227 101 c 0
 242 79 250 61 286 61 c 2
 368 61 l 2
 373 61 375 69 369 73 c 0
517 -123 m 0
 517 -148 520 -156 534 -156 c 0
 555 -156 570 -142 573 -142 c 0
 582 -142 583 -147 583 -158 c 0
 583 -167 560 -218 510 -218 c 0
 476 -218 451 -186 451 -136 c 0
 451 -90 454 -57 485 -57 c 0
 508 -57 521 -64 521 -83 c 0
 521 -95 517 -107 517 -123 c 0
157 309 m 0
 137 308 120 295 120 275 c 0
 120 252 140 237 169 227 c 0
 178 224 183 219 183 215 c 0
 183 210 177 205 165 205 c 0
 126 205 73 241 73 296 c 0
 73 337 106 369 146 369 c 0
 175 369 193 359 193 343 c 0
 193 321 176 310 157 309 c 0
26 373 m 0
 16 373 12 378 12 388 c 0
 12 398 57 473 100 473 c 0
 125 473 182 448 207 448 c 0
 236 448 256 474 264 474 c 0
 274 474 280 467 280 457 c 0
 280 447 237 390 195 390 c 0
 170 390 112 414 87 414 c 0
 63 414 34 373 26 373 c 0
EndSplineSet
Colour: ff00
EndChar
StartChar: uni1FB2.ctsc
Encoding: 1115455 -1 3293
Width: 601
VWidth: 0
Flags: HW
LayerCount: 3
Fore
SplineSet
561 27 m 0
 572 25 584 19 584 9 c 0
 584 1 571 -3 564 -3 c 0
 525 -3 511 2 476 2 c 0
 441 2 420 -3 381 -3 c 0
 374 -3 361 1 361 9 c 0
 361 19 373 24 384 27 c 0
 412 34 423 36 423 58 c 0
 423 71 411 106 401 132 c 0
 399 138 396 139 382 139 c 2
 236 139 l 10
 228 139 224 136 220 127 c 0
 206 91 200 81 200 65 c 0
 200 39 217 33 237 27 c 0
 248 23 260 19 260 9 c 0
 260 1 247 -3 240 -3 c 0
 201 -3 194 2 159 2 c 0
 124 2 122 -3 83 -3 c 0
 76 -3 63 1 63 9 c 0
 63 19 75 23 86 26 c 0
 117 33 143 36 167 92 c 2
 283 360 l 2
 297 393 292 407 295 410 c 0
 304 419 328 444 334 451 c 0
 342 460 347 463 350 463 c 0
 354 463 355 460 357 454 c 2
 492 107 l 2
 505 73 521 35 561 27 c 0
310 337 m 0
 293 295 266 233 244 185 c 0
 240 176 245 175 257 175 c 2
 373 175 l 2
 383 175 384 175 381 185 c 0
 374 212 335 306 324 337 c 0
 318 352 316 352 310 337 c 0
350 -123 m 0
 350 -148 353 -156 367 -156 c 0
 388 -156 403 -142 406 -142 c 0
 415 -142 416 -147 416 -158 c 0
 416 -167 393 -218 343 -218 c 0
 309 -218 284 -186 284 -136 c 0
 284 -90 287 -57 318 -57 c 0
 341 -57 354 -64 354 -83 c 0
 354 -95 350 -107 350 -123 c 0
90 284 m 0
 69 320 19 418 19 428 c 0
 19 444 38 469 57 469 c 0
 65 469 79 463 82 451 c 0
 92 415 123 293 123 275 c 0
 123 266 123 262 114 262 c 0
 106 262 96 274 90 284 c 0
EndSplineSet
Colour: ff00
EndChar
StartChar: uni1FB4.ctsc
Encoding: 1115457 -1 3295
Width: 566
VWidth: 0
Flags: HW
LayerCount: 3
Fore
SplineSet
526 27 m 0
 537 25 549 19 549 9 c 0
 549 1 536 -3 529 -3 c 0
 490 -3 476 2 441 2 c 0
 406 2 385 -3 346 -3 c 0
 339 -3 326 1 326 9 c 0
 326 19 338 24 349 27 c 0
 377 34 388 36 388 58 c 0
 388 71 376 106 366 132 c 0
 364 138 361 139 347 139 c 2
 201 139 l 10
 193 139 189 136 185 127 c 0
 171 91 165 81 165 65 c 0
 165 39 182 33 202 27 c 0
 213 23 225 19 225 9 c 0
 225 1 212 -3 205 -3 c 0
 166 -3 159 2 124 2 c 0
 89 2 87 -3 48 -3 c 0
 41 -3 28 1 28 9 c 0
 28 19 40 23 51 26 c 0
 82 33 108 36 132 92 c 2
 248 360 l 2
 262 393 257 407 260 410 c 0
 269 419 293 444 299 451 c 0
 307 460 312 463 315 463 c 0
 319 463 320 460 322 454 c 2
 457 107 l 2
 470 73 486 35 526 27 c 0
275 337 m 0
 258 295 231 233 209 185 c 0
 205 176 210 175 222 175 c 2
 338 175 l 2
 348 175 349 175 346 185 c 0
 339 212 300 306 289 337 c 0
 283 352 281 352 275 337 c 0
315 -123 m 0
 315 -148 318 -156 332 -156 c 0
 353 -156 368 -142 371 -142 c 0
 380 -142 381 -147 381 -158 c 0
 381 -167 358 -218 308 -218 c 0
 274 -218 249 -186 249 -136 c 0
 249 -90 252 -57 283 -57 c 0
 306 -57 319 -64 319 -83 c 0
 319 -95 315 -107 315 -123 c 0
47 283 m 0
 41 273 31 261 23 261 c 0
 14 261 14 265 14 274 c 0
 14 292 45 414 55 450 c 0
 58 462 72 468 80 468 c 0
 99 468 118 443 118 427 c 0
 118 417 68 319 47 283 c 0
EndSplineSet
Colour: ff00
EndChar
StartChar: uni1FB6.ctsc
Encoding: 1115458 -1 3296
Width: 663
VWidth: 0
Flags: HW
LayerCount: 3
Fore
SplineSet
622 27 m 0
 633 25 645 19 645 9 c 0
 645 1 632 -3 625 -3 c 0
 586 -3 572 2 537 2 c 0
 502 2 481 -3 442 -3 c 0
 435 -3 422 1 422 9 c 0
 422 19 434 24 445 27 c 0
 473 34 484 36 484 58 c 0
 484 71 472 106 462 132 c 0
 460 138 457 139 443 139 c 2
 297 139 l 10
 289 139 285 136 281 127 c 0
 267 91 261 81 261 65 c 0
 261 39 278 33 298 27 c 0
 309 23 321 19 321 9 c 0
 321 1 308 -3 301 -3 c 0
 262 -3 255 2 220 2 c 0
 185 2 183 -3 144 -3 c 0
 137 -3 124 1 124 9 c 0
 124 19 136 23 147 26 c 0
 178 33 204 36 228 92 c 2
 344 360 l 2
 358 393 353 407 356 410 c 0
 365 419 389 444 395 451 c 0
 403 460 408 463 411 463 c 0
 415 463 416 460 418 454 c 2
 553 107 l 2
 566 73 582 35 622 27 c 0
371 337 m 0
 354 295 327 233 305 185 c 0
 301 176 306 175 318 175 c 2
 434 175 l 2
 444 175 445 175 442 185 c 0
 435 212 396 306 385 337 c 0
 379 352 377 352 371 337 c 0
30 368 m 0
 20 368 16 373 16 383 c 0
 16 393 61 468 104 468 c 0
 129 468 186 443 211 443 c 0
 240 443 260 469 268 469 c 0
 278 469 284 462 284 452 c 0
 284 442 241 385 199 385 c 0
 174 385 116 409 91 409 c 0
 67 409 38 368 30 368 c 0
EndSplineSet
Colour: ff00
EndChar
StartChar: uni1FB7.ctsc
Encoding: 1115459 -1 3297
Width: 663
VWidth: 0
Flags: HW
LayerCount: 3
Fore
SplineSet
622 27 m 0
 633 25 645 19 645 9 c 0
 645 1 632 -3 625 -3 c 0
 586 -3 572 2 537 2 c 0
 502 2 481 -3 442 -3 c 0
 435 -3 422 1 422 9 c 0
 422 19 434 24 445 27 c 0
 473 34 484 36 484 58 c 0
 484 71 472 106 462 132 c 0
 460 138 457 139 443 139 c 2
 297 139 l 10
 289 139 285 136 281 127 c 0
 267 91 261 81 261 65 c 0
 261 39 278 33 298 27 c 0
 309 23 321 19 321 9 c 0
 321 1 308 -3 301 -3 c 0
 262 -3 255 2 220 2 c 0
 185 2 183 -3 144 -3 c 0
 137 -3 124 1 124 9 c 0
 124 19 136 23 147 26 c 0
 178 33 204 36 228 92 c 2
 344 360 l 2
 358 393 353 407 356 410 c 0
 365 419 389 444 395 451 c 0
 403 460 408 463 411 463 c 0
 415 463 416 460 418 454 c 2
 553 107 l 2
 566 73 582 35 622 27 c 0
371 337 m 0
 354 295 327 233 305 185 c 0
 301 176 306 175 318 175 c 2
 434 175 l 2
 444 175 445 175 442 185 c 0
 435 212 396 306 385 337 c 0
 379 352 377 352 371 337 c 0
411 -123 m 0
 411 -148 414 -156 428 -156 c 0
 449 -156 464 -142 467 -142 c 0
 476 -142 477 -147 477 -158 c 0
 477 -167 454 -218 404 -218 c 0
 370 -218 345 -186 345 -136 c 0
 345 -90 348 -57 379 -57 c 0
 402 -57 415 -64 415 -83 c 0
 415 -95 411 -107 411 -123 c 0
30 365 m 0
 20 365 16 370 16 380 c 0
 16 390 61 465 104 465 c 0
 129 465 186 440 211 440 c 0
 240 440 260 466 268 466 c 0
 278 466 284 459 284 449 c 0
 284 439 241 382 199 382 c 0
 174 382 116 406 91 406 c 0
 67 406 38 365 30 365 c 0
EndSplineSet
Colour: ff00
EndChar
StartChar: uni1FC2.ctsc
Encoding: 1115460 -1 3298
Width: 745
VWidth: 0
Flags: HW
LayerCount: 3
Fore
SplineSet
551 352 m 2
 551 391 535 415 493 422 c 0
 481 424 469 431 469 441 c 0
 469 449 482 453 489 453 c 0
 528 453 553 448 589 448 c 0
 624 448 649 453 688 453 c 0
 695 453 708 449 708 441 c 0
 708 431 696 424 684 422 c 0
 642 415 626 391 626 352 c 2
 626 79 l 2
 626 43 657 32 692 25 c 0
 703 23 716 19 716 9 c 0
 716 1 703 -3 696 -3 c 0
 657 -3 631 3 589 3 c 24
 547 3 520 -3 481 -3 c 0
 474 -3 461 1 461 9 c 0
 461 19 474 23 485 25 c 0
 520 32 551 43 551 79 c 2
 551 211 l 2
 551 216 549 216 547 216 c 16
 494 217 462 218 420 218 c 0
 385 218 349 217 304 216 c 8
 301 216 301 214 301 209 c 2
 301 79 l 2
 301 43 332 32 367 25 c 0
 378 23 391 19 391 9 c 0
 391 1 378 -3 371 -3 c 0
 332 -3 306 3 264 3 c 24
 222 3 195 -3 156 -3 c 0
 149 -3 136 1 136 9 c 0
 136 19 149 23 160 25 c 0
 195 32 226 43 226 79 c 2
 226 352 l 2
 226 392 210 415 168 422 c 0
 156 424 144 431 144 441 c 0
 144 449 157 453 164 453 c 0
 203 453 228 448 264 448 c 0
 299 448 324 453 363 453 c 0
 370 453 383 449 383 441 c 0
 383 431 371 424 359 422 c 0
 317 415 301 392 301 352 c 2
 301 259 l 2
 301 254 306 253 311 253 c 16
 362 252 383 251 423 251 c 0
 457 251 502 252 546 253 c 8
 550 253 551 255 551 261 c 2
 551 352 l 2
454 -123 m 0
 454 -148 457 -156 471 -156 c 0
 492 -156 507 -142 510 -142 c 0
 519 -142 520 -147 520 -158 c 0
 520 -167 497 -218 447 -218 c 0
 413 -218 388 -186 388 -136 c 0
 388 -90 391 -57 422 -57 c 0
 445 -57 458 -64 458 -83 c 0
 458 -95 454 -107 454 -123 c 0
85.75 268.5 m 0
 64.75 304.5 14.75 402.5 14.75 412.5 c 0
 14.75 428.5 33.75 453.5 52.75 453.5 c 0
 60.75 453.5 74.75 447.5 77.75 435.5 c 0
 87.75 399.5 118.75 277.5 118.75 259.5 c 0
 118.75 250.5 118.75 246.5 109.75 246.5 c 0
 101.75 246.5 91.75 258.5 85.75 268.5 c 0
EndSplineSet
Colour: ff00
EndChar
StartChar: uni1FC4.ctsc
Encoding: 1115462 -1 3300
Width: 758
VWidth: 0
Flags: HW
LayerCount: 3
Fore
SplineSet
564 352 m 2
 564 391 548 415 506 422 c 0
 494 424 482 431 482 441 c 0
 482 449 495 453 502 453 c 0
 541 453 566 448 602 448 c 0
 637 448 662 453 701 453 c 0
 708 453 721 449 721 441 c 0
 721 431 709 424 697 422 c 0
 655 415 639 391 639 352 c 2
 639 79 l 2
 639 43 670 32 705 25 c 0
 716 23 729 19 729 9 c 0
 729 1 716 -3 709 -3 c 0
 670 -3 644 3 602 3 c 24
 560 3 533 -3 494 -3 c 0
 487 -3 474 1 474 9 c 0
 474 19 487 23 498 25 c 0
 533 32 564 43 564 79 c 2
 564 211 l 2
 564 216 562 216 560 216 c 16
 507 217 475 218 433 218 c 0
 398 218 362 217 317 216 c 8
 314 216 314 214 314 209 c 2
 314 79 l 2
 314 43 345 32 380 25 c 0
 391 23 404 19 404 9 c 0
 404 1 391 -3 384 -3 c 0
 345 -3 319 3 277 3 c 24
 235 3 208 -3 169 -3 c 0
 162 -3 149 1 149 9 c 0
 149 19 162 23 173 25 c 0
 208 32 239 43 239 79 c 2
 239 352 l 2
 239 392 223 415 181 422 c 0
 169 424 157 431 157 441 c 0
 157 449 170 453 177 453 c 0
 216 453 241 448 277 448 c 0
 312 448 337 453 376 453 c 0
 383 453 396 449 396 441 c 0
 396 431 384 424 372 422 c 0
 330 415 314 392 314 352 c 2
 314 259 l 2
 314 254 319 253 324 253 c 16
 375 252 396 251 436 251 c 0
 470 251 515 252 559 253 c 8
 563 253 564 255 564 261 c 2
 564 352 l 2
467 -123 m 0
 467 -148 470 -156 484 -156 c 0
 505 -156 520 -142 523 -142 c 0
 532 -142 533 -147 533 -158 c 0
 533 -167 510 -218 460 -218 c 0
 426 -218 401 -186 401 -136 c 0
 401 -90 404 -57 435 -57 c 0
 458 -57 471 -64 471 -83 c 0
 471 -95 467 -107 467 -123 c 0
55.75 267.5 m 0
 49.75 257.5 39.75 245.5 31.75 245.5 c 0
 22.75 245.5 22.75 249.5 22.75 258.5 c 0
 22.75 276.5 53.75 398.5 63.75 434.5 c 0
 66.75 446.5 80.75 452.5 88.75 452.5 c 0
 107.75 452.5 126.75 427.5 126.75 411.5 c 0
 126.75 401.5 76.75 303.5 55.75 267.5 c 0
EndSplineSet
Colour: ff00
EndChar
StartChar: uni1FC6.ctsc
Encoding: 1115463 -1 3301
Width: 858
VWidth: 0
Flags: HW
LayerCount: 3
Fore
SplineSet
664 352 m 2
 664 391 648 415 606 422 c 0
 594 424 582 431 582 441 c 0
 582 449 595 453 602 453 c 0
 641 453 666 448 702 448 c 0
 737 448 762 453 801 453 c 0
 808 453 821 449 821 441 c 0
 821 431 809 424 797 422 c 0
 755 415 739 391 739 352 c 2
 739 79 l 2
 739 43 770 32 805 25 c 0
 816 23 829 19 829 9 c 0
 829 1 816 -3 809 -3 c 0
 770 -3 744 3 702 3 c 24
 660 3 633 -3 594 -3 c 0
 587 -3 574 1 574 9 c 0
 574 19 587 23 598 25 c 0
 633 32 664 43 664 79 c 2
 664 211 l 2
 664 216 662 216 660 216 c 16
 607 217 575 218 533 218 c 0
 498 218 462 217 417 216 c 8
 414 216 414 214 414 209 c 2
 414 79 l 2
 414 43 445 32 480 25 c 0
 491 23 504 19 504 9 c 0
 504 1 491 -3 484 -3 c 0
 445 -3 419 3 377 3 c 24
 335 3 308 -3 269 -3 c 0
 262 -3 249 1 249 9 c 0
 249 19 262 23 273 25 c 0
 308 32 339 43 339 79 c 2
 339 352 l 2
 339 392 323 415 281 422 c 0
 269 424 257 431 257 441 c 0
 257 449 270 453 277 453 c 0
 316 453 341 448 377 448 c 0
 412 448 437 453 476 453 c 0
 483 453 496 449 496 441 c 0
 496 431 484 424 472 422 c 0
 430 415 414 392 414 352 c 2
 414 259 l 2
 414 254 419 253 424 253 c 16
 475 252 496 251 536 251 c 0
 570 251 615 252 659 253 c 8
 663 253 664 255 664 261 c 2
 664 352 l 2
30 348 m 0
 20 348 16 353 16 363 c 0
 16 373 61 448 104 448 c 0
 129 448 186 423 211 423 c 0
 240 423 260 449 268 449 c 0
 278 449 284 442 284 432 c 0
 284 422 241 365 199 365 c 0
 174 365 116 389 91 389 c 0
 67 389 38 348 30 348 c 0
EndSplineSet
Colour: ff00
EndChar
StartChar: uni1FC7.ctsc
Encoding: 1115464 -1 3302
Width: 856
VWidth: 0
Flags: HW
LayerCount: 3
Fore
SplineSet
661 352 m 2
 661 391 645 415 603 422 c 0
 591 424 579 431 579 441 c 0
 579 449 592 453 599 453 c 0
 638 453 663 448 699 448 c 0
 734 448 759 453 798 453 c 0
 805 453 818 449 818 441 c 0
 818 431 806 424 794 422 c 0
 752 415 736 391 736 352 c 2
 736 79 l 2
 736 43 767 32 802 25 c 0
 813 23 826 19 826 9 c 0
 826 1 813 -3 806 -3 c 0
 767 -3 741 3 699 3 c 24
 657 3 630 -3 591 -3 c 0
 584 -3 571 1 571 9 c 0
 571 19 584 23 595 25 c 0
 630 32 661 43 661 79 c 2
 661 211 l 2
 661 216 659 216 657 216 c 16
 604 217 572 218 530 218 c 0
 495 218 459 217 414 216 c 8
 411 216 411 214 411 209 c 2
 411 79 l 2
 411 43 442 32 477 25 c 0
 488 23 501 19 501 9 c 0
 501 1 488 -3 481 -3 c 0
 442 -3 416 3 374 3 c 24
 332 3 305 -3 266 -3 c 0
 259 -3 246 1 246 9 c 0
 246 19 259 23 270 25 c 0
 305 32 336 43 336 79 c 2
 336 352 l 2
 336 392 320 415 278 422 c 0
 266 424 254 431 254 441 c 0
 254 449 267 453 274 453 c 0
 313 453 338 448 374 448 c 0
 409 448 434 453 473 453 c 0
 480 453 493 449 493 441 c 0
 493 431 481 424 469 422 c 0
 427 415 411 392 411 352 c 2
 411 259 l 2
 411 254 416 253 421 253 c 16
 472 252 493 251 533 251 c 0
 567 251 612 252 656 253 c 8
 660 253 661 255 661 261 c 2
 661 352 l 2
564 -123 m 0
 564 -148 567 -156 581 -156 c 0
 602 -156 617 -142 620 -142 c 0
 629 -142 630 -147 630 -158 c 0
 630 -167 607 -218 557 -218 c 0
 523 -218 498 -186 498 -136 c 0
 498 -90 501 -57 532 -57 c 0
 555 -57 568 -64 568 -83 c 0
 568 -95 564 -107 564 -123 c 0
25 348 m 0
 15 348 11 353 11 363 c 0
 11 373 56 448 99 448 c 0
 124 448 181 423 206 423 c 0
 235 423 255 449 263 449 c 0
 273 449 279 442 279 432 c 0
 279 422 236 365 194 365 c 0
 169 365 111 389 86 389 c 0
 62 389 33 348 25 348 c 0
EndSplineSet
Colour: ff00
EndChar
StartChar: uni1FD0.ctsc
Encoding: 1115465 -1 3303
Width: 315
VWidth: 0
Flags: HW
LayerCount: 3
Fore
SplineSet
158 3 m 24
 116 3 89 -3 50 -3 c 0
 43 -3 30 1 30 9 c 0
 30 19 43 23 54 25 c 0
 89 32 120 43 120 79 c 2
 120 352 l 2
 120 393 104 415 62 422 c 0
 50 424 38 431 38 441 c 0
 38 449 51 453 58 453 c 0
 97 453 122 448 158 448 c 0
 193 448 218 453 257 453 c 0
 264 453 277 449 277 441 c 0
 277 431 265 424 253 422 c 0
 211 415 195 393 195 352 c 2
 195 79 l 2
 195 43 226 32 261 25 c 0
 272 23 285 19 285 9 c 0
 285 1 272 -3 265 -3 c 0
 226 -3 200 3 158 3 c 24
80 640 m 4
 85 615 107 591 157 591 c 4
 207 591 229 615 234 640 c 4
 236 650 239 661 249 661 c 4
 259 661 264 650 264 637 c 4
 264 587 227 531 157 531 c 4
 87 531 50 587 50 637 c 4
 50 650 55 661 65 661 c 4
 75 661 78 650 80 640 c 4
EndSplineSet
Colour: ff00
EndChar
StartChar: uni1FD0.sc
Encoding: 1115344 -1 3181
Width: 315
VWidth: 0
Flags: HW
LayerCount: 3
Fore
SplineSet
158 3 m 28
 116 3 89 -3 50 -3 c 4
 43 -3 30 1 30 9 c 4
 30 19 43 23 54 25 c 4
 89 32 120 43 120 79 c 6
 120 352 l 6
 120 393 104 415 62 422 c 4
 50 424 38 431 38 441 c 4
 38 449 51 453 58 453 c 4
 97 453 122 448 158 448 c 4
 193 448 218 453 257 453 c 4
 264 453 277 449 277 441 c 4
 277 431 265 424 253 422 c 4
 211 415 195 393 195 352 c 6
 195 79 l 6
 195 43 226 32 261 25 c 4
 272 23 285 19 285 9 c 4
 285 1 272 -3 265 -3 c 4
 226 -3 200 3 158 3 c 28
80 640 m 0
 85 615 107 591 157 591 c 0
 207 591 229 615 234 640 c 0
 236 650 239 661 249 661 c 0
 259 661 264 650 264 637 c 0
 264 587 227 531 157 531 c 0
 87 531 50 587 50 637 c 0
 50 650 55 661 65 661 c 0
 75 661 78 650 80 640 c 0
EndSplineSet
EndChar
StartChar: uni1FD1.sc
Encoding: 1115345 -1 3182
Width: 315
VWidth: 0
Flags: HW
LayerCount: 3
Fore
SplineSet
158 3 m 28
 116 3 89 -3 50 -3 c 4
 43 -3 30 1 30 9 c 4
 30 19 43 23 54 25 c 4
 89 32 120 43 120 79 c 6
 120 352 l 6
 120 393 104 415 62 422 c 4
 50 424 38 431 38 441 c 4
 38 449 51 453 58 453 c 4
 97 453 122 448 158 448 c 4
 193 448 218 453 257 453 c 4
 264 453 277 449 277 441 c 4
 277 431 265 424 253 422 c 4
 211 415 195 393 195 352 c 6
 195 79 l 6
 195 43 226 32 261 25 c 4
 272 23 285 19 285 9 c 4
 285 1 272 -3 265 -3 c 4
 226 -3 200 3 158 3 c 28
61 615 m 26
 264 615 l 18
 270 615 277 609 277 603 c 0
 277 581 267 560 246 560 c 26
 51 560 l 26
 44 560 37 566 37 572 c 0
 37 581 42 615 61 615 c 26
EndSplineSet
EndChar
StartChar: uni1FD3.ctsc
Encoding: 1115468 -1 3306
Width: 315
VWidth: 0
Flags: HW
LayerCount: 3
Fore
SplineSet
158 3 m 28
 116 3 89 -3 50 -3 c 4
 43 -3 30 1 30 9 c 4
 30 19 43 23 54 25 c 4
 89 32 120 43 120 79 c 6
 120 352 l 6
 120 393 104 415 62 422 c 4
 50 424 38 431 38 441 c 4
 38 449 51 453 58 453 c 4
 97 453 122 448 158 448 c 4
 193 448 218 453 257 453 c 4
 264 453 277 449 277 441 c 4
 277 431 265 424 253 422 c 4
 211 415 195 393 195 352 c 6
 195 79 l 6
 195 43 226 32 261 25 c 4
 272 23 285 19 285 9 c 4
 285 1 272 -3 265 -3 c 4
 226 -3 200 3 158 3 c 28
261 642 m 0
 286 642 309 619 309 594 c 0
 309 569 286 546 261 546 c 0
 236 546 215 569 215 594 c 0
 215 619 236 642 261 642 c 0
64 642 m 0
 89 642 110 619 110 594 c 0
 110 569 89 546 64 546 c 0
 39 546 16 569 16 594 c 0
 16 619 39 642 64 642 c 0
169 576 m 0
 163 566 153 554 145 554 c 0
 136 554 136 558 136 567 c 0
 136 585 167 707 177 743 c 0
 180 755 194 761 202 761 c 0
 221 761 240 736 240 720 c 0
 240 710 190 612 169 576 c 0
EndSplineSet
Colour: ff00
EndChar
StartChar: uni1FD6.ctsc
Encoding: 1115469 -1 3307
Width: 535
VWidth: 0
Flags: HW
LayerCount: 3
Fore
SplineSet
378 3 m 24
 336 3 309 -3 270 -3 c 0
 263 -3 250 1 250 9 c 0
 250 19 263 23 274 25 c 0
 309 32 340 43 340 79 c 2
 340 352 l 2
 340 393 324 415 282 422 c 0
 270 424 258 431 258 441 c 0
 258 449 271 453 278 453 c 0
 317 453 342 448 378 448 c 0
 413 448 438 453 477 453 c 0
 484 453 497 449 497 441 c 0
 497 431 485 424 473 422 c 0
 431 415 415 393 415 352 c 2
 415 79 l 2
 415 43 446 32 481 25 c 0
 492 23 505 19 505 9 c 0
 505 1 492 -3 485 -3 c 0
 446 -3 420 3 378 3 c 24
30 349 m 0
 20 349 16 354 16 364 c 0
 16 374 61 449 104 449 c 0
 129 449 186 424 211 424 c 0
 240 424 260 450 268 450 c 0
 278 450 284 443 284 433 c 0
 284 423 241 366 199 366 c 0
 174 366 116 390 91 390 c 0
 67 390 38 349 30 349 c 0
EndSplineSet
Colour: ff00
EndChar
StartChar: uni1FD6.sc
Encoding: 1115348 -1 3185
Width: 315
VWidth: 0
Flags: HW
LayerCount: 3
Fore
SplineSet
158 3 m 28
 116 3 89 -3 50 -3 c 4
 43 -3 30 1 30 9 c 4
 30 19 43 23 54 25 c 4
 89 32 120 43 120 79 c 6
 120 352 l 6
 120 393 104 415 62 422 c 4
 50 424 38 431 38 441 c 4
 38 449 51 453 58 453 c 4
 97 453 122 448 158 448 c 4
 193 448 218 453 257 453 c 4
 264 453 277 449 277 441 c 4
 277 431 265 424 253 422 c 4
 211 415 195 393 195 352 c 6
 195 79 l 6
 195 43 226 32 261 25 c 4
 272 23 285 19 285 9 c 4
 285 1 272 -3 265 -3 c 4
 226 -3 200 3 158 3 c 28
45 531 m 0
 35 531 31 536 31 546 c 0
 31 556 76 631 119 631 c 0
 144 631 201 606 226 606 c 0
 255 606 275 632 283 632 c 0
 293 632 299 625 299 615 c 0
 299 605 256 548 214 548 c 0
 189 548 131 572 106 572 c 0
 82 572 53 531 45 531 c 0
EndSplineSet
EndChar
StartChar: uni1FD7.ctsc
Encoding: 1115470 -1 3308
Width: 315
VWidth: 0
Flags: HW
LayerCount: 3
Fore
SplineSet
158 3 m 28
 116 3 89 -3 50 -3 c 4
 43 -3 30 1 30 9 c 4
 30 19 43 23 54 25 c 4
 89 32 120 43 120 79 c 6
 120 352 l 6
 120 393 104 415 62 422 c 4
 50 424 38 431 38 441 c 4
 38 449 51 453 58 453 c 4
 97 453 122 448 158 448 c 4
 193 448 218 453 257 453 c 4
 264 453 277 449 277 441 c 4
 277 431 265 424 253 422 c 4
 211 415 195 393 195 352 c 6
 195 79 l 6
 195 43 226 32 261 25 c 4
 272 23 285 19 285 9 c 4
 285 1 272 -3 265 -3 c 4
 226 -3 200 3 158 3 c 28
251 644 m 0
 276 644 301 619 301 594 c 0
 301 569 276 544 251 544 c 0
 226 544 201 569 201 594 c 0
 201 619 226 644 251 644 c 0
74 644 m 0
 99 644 124 619 124 594 c 0
 124 569 99 544 74 544 c 0
 49 544 24 569 24 594 c 0
 24 619 49 644 74 644 c 0
46 680 m 0
 36 680 32 685 32 695 c 0
 32 705 77 780 120 780 c 0
 145 780 202 755 227 755 c 0
 256 755 276 781 284 781 c 0
 294 781 300 774 300 764 c 0
 300 754 257 697 215 697 c 0
 190 697 132 721 107 721 c 0
 83 721 54 680 46 680 c 0
EndSplineSet
Colour: ff00
EndChar
StartChar: uni1FE0.ctsc
Encoding: 1115471 -1 3309
Width: 590
VWidth: 0
Flags: HW
LayerCount: 3
Fore
SplineSet
254 79 m 2
 254 144 l 2
 254 348 187 425 105 425 c 0
 70 425 40 405 28 405 c 0
 21 405 20 408 20 414 c 0
 20 421 67 465 123 465 c 0
 190 465 250 432 287 330 c 0
 290 321 297 326 298 330 c 0
 330 417 400 464 467 464 c 0
 523 464 570 421 570 414 c 0
 570 408 569 405 562 405 c 0
 550 405 519 425 484 425 c 0
 402 425 329 324 329 168 c 2
 329 79 l 2
 329 43 360 32 395 25 c 0
 406 23 419 19 419 9 c 0
 419 1 406 -3 399 -3 c 0
 360 -3 334 3 292 3 c 24
 250 3 223 -3 184 -3 c 0
 177 -3 164 1 164 9 c 0
 164 19 177 23 188 25 c 0
 223 32 254 43 254 79 c 2
215 640 m 0
 220 615 242 591 292 591 c 0
 342 591 364 615 369 640 c 0
 371 650 374 661 384 661 c 0
 394 661 399 650 399 637 c 0
 399 587 362 531 292 531 c 0
 222 531 185 587 185 637 c 0
 185 650 190 661 200 661 c 0
 210 661 213 650 215 640 c 0
EndSplineSet
Colour: ff00
EndChar
StartChar: uni1FE1.sc
Encoding: 1115351 -1 3188
Width: 590
VWidth: 0
Flags: HW
LayerCount: 3
Fore
SplineSet
254 79 m 2
 254 144 l 2
 254 348 187 425 105 425 c 0
 70 425 40 405 28 405 c 0
 21 405 20 408 20 414 c 0
 20 421 67 465 123 465 c 0
 190 465 250 432 287 330 c 0
 290 321 297 326 298 330 c 0
 330 417 400 464 467 464 c 0
 523 464 570 421 570 414 c 0
 570 408 569 405 562 405 c 0
 550 405 519 425 484 425 c 0
 402 425 329 324 329 168 c 2
 329 79 l 2
 329 43 360 32 395 25 c 0
 406 23 419 19 419 9 c 0
 419 1 406 -3 399 -3 c 0
 360 -3 334 3 292 3 c 24
 250 3 223 -3 184 -3 c 0
 177 -3 164 1 164 9 c 0
 164 19 177 23 188 25 c 0
 223 32 254 43 254 79 c 2
196 615 m 26
 399 615 l 18
 405 615 412 609 412 603 c 0
 412 581 402 560 381 560 c 26
 186 560 l 26
 179 560 172 566 172 572 c 0
 172 581 177 615 196 615 c 26
EndSplineSet
EndChar
StartChar: uni1FE2.ctsc
Encoding: 1115473 -1 3311
Width: 590
VWidth: 0
Flags: HW
LayerCount: 3
Fore
SplineSet
254 79 m 2
 254 144 l 2
 254 348 187 425 105 425 c 0
 70 425 40 405 28 405 c 0
 21 405 20 408 20 414 c 0
 20 421 67 465 123 465 c 0
 190 465 250 432 287 330 c 0
 290 321 297 326 298 330 c 0
 330 417 400 464 467 464 c 0
 523 464 570 421 570 414 c 0
 570 408 569 405 562 405 c 0
 550 405 519 425 484 425 c 0
 402 425 329 324 329 168 c 2
 329 79 l 2
 329 43 360 32 395 25 c 0
 406 23 419 19 419 9 c 0
 419 1 406 -3 399 -3 c 0
 360 -3 334 3 292 3 c 24
 250 3 223 -3 184 -3 c 0
 177 -3 164 1 164 9 c 0
 164 19 177 23 188 25 c 0
 223 32 254 43 254 79 c 2
396 642 m 0
 421 642 444 619 444 594 c 0
 444 569 421 546 396 546 c 0
 371 546 350 569 350 594 c 0
 350 619 371 642 396 642 c 0
199 642 m 0
 224 642 245 619 245 594 c 0
 245 569 224 546 199 546 c 0
 174 546 151 569 151 594 c 0
 151 619 174 642 199 642 c 0
292 576 m 0
 271 612 221 710 221 720 c 0
 221 736 240 761 259 761 c 0
 267 761 281 755 284 743 c 0
 294 707 325 585 325 567 c 0
 325 558 325 554 316 554 c 0
 308 554 298 566 292 576 c 0
EndSplineSet
Colour: ff00
EndChar
StartChar: uni1FE3.sc
Encoding: 1115353 -1 3190
Width: 590
VWidth: 0
Flags: HW
LayerCount: 3
Fore
SplineSet
254 79 m 2
 254 144 l 2
 254 348 187 425 105 425 c 0
 70 425 40 405 28 405 c 0
 21 405 20 408 20 414 c 0
 20 421 67 465 123 465 c 0
 190 465 250 432 287 330 c 0
 290 321 297 326 298 330 c 0
 330 417 400 464 467 464 c 0
 523 464 570 421 570 414 c 0
 570 408 569 405 562 405 c 0
 550 405 519 425 484 425 c 0
 402 425 329 324 329 168 c 2
 329 79 l 2
 329 43 360 32 395 25 c 0
 406 23 419 19 419 9 c 0
 419 1 406 -3 399 -3 c 0
 360 -3 334 3 292 3 c 24
 250 3 223 -3 184 -3 c 0
 177 -3 164 1 164 9 c 0
 164 19 177 23 188 25 c 0
 223 32 254 43 254 79 c 2
396 642 m 0
 421 642 444 619 444 594 c 0
 444 569 421 546 396 546 c 0
 371 546 350 569 350 594 c 0
 350 619 371 642 396 642 c 0
199 642 m 0
 224 642 245 619 245 594 c 0
 245 569 224 546 199 546 c 0
 174 546 151 569 151 594 c 0
 151 619 174 642 199 642 c 0
304 576 m 0
 298 566 288 554 280 554 c 0
 271 554 271 558 271 567 c 0
 271 585 302 707 312 743 c 0
 315 755 329 761 337 761 c 0
 356 761 375 736 375 720 c 0
 375 710 325 612 304 576 c 0
EndSplineSet
EndChar
StartChar: uni1FE4.ctsc
Encoding: 1115475 -1 3313
Width: 470
VWidth: 0
Flags: HW
LayerCount: 3
Fore
SplineSet
195 79 m 2
 195 43 226 32 261 25 c 0
 272 23 285 19 285 9 c 0
 285 1 272 -3 265 -3 c 0
 226 -3 200 3 158 3 c 24
 116 3 89 -3 50 -3 c 0
 43 -3 30 1 30 9 c 0
 30 19 43 23 54 25 c 0
 89 32 120 43 120 79 c 2
 120 352 l 2
 120 393 104 415 62 422 c 0
 50 424 38 431 38 441 c 0
 38 449 51 453 58 453 c 0
 97 453 116 448 151 448 c 0
 179 448 215 453 256 453 c 0
 343 453 425 419 425 331 c 0
 425 241 367 185 277 185 c 0
 263 185 240 193 240 203 c 0
 240 213 262 215 272 215 c 0
 320 215 343 262 343 310 c 0
 343 373 299 424 239 424 c 16
 213 424 195 416 195 395 c 2
 195 79 l 2
-72 348 m 4
 -95 352 -114 365 -114 388 c 4
 -114 411 -91 426 -67 426 c 4
 -20 426 6 377 6 329 c 4
 6 276 -38 232 -90 232 c 4
 -103 232 -110 237 -110 242 c 4
 -110 249 -101 252 -93 256 c 4
 -66 269 -46 287 -46 316 c 4
 -46 332 -56 345 -72 348 c 4
EndSplineSet
Colour: ff00
EndChar
StartChar: uni1FE4.sc
Encoding: 1115354 -1 3191
Width: 470
VWidth: 0
Flags: HW
LayerCount: 3
Fore
SplineSet
195 79 m 2
 195 43 226 32 261 25 c 0
 272 23 285 19 285 9 c 0
 285 1 272 -3 265 -3 c 0
 226 -3 200 3 158 3 c 24
 116 3 89 -3 50 -3 c 0
 43 -3 30 1 30 9 c 0
 30 19 43 23 54 25 c 0
 89 32 120 43 120 79 c 2
 120 352 l 2
 120 393 104 415 62 422 c 0
 50 424 38 431 38 441 c 0
 38 449 51 453 58 453 c 0
 97 453 116 448 151 448 c 4
 179 448 215 453 256 453 c 4
 343 453 425 419 425 331 c 4
 425 241 367 185 277 185 c 4
 263 185 240 193 240 203 c 4
 240 213 262 215 272 215 c 4
 320 215 343 262 343 310 c 4
 343 373 299 424 239 424 c 20
 213 424 195 416 195 395 c 6
 195 79 l 2
139 634 m 0
 116 638 97 651 97 674 c 0
 97 697 120 712 144 712 c 0
 191 712 217 663 217 615 c 0
 217 562 173 518 121 518 c 0
 108 518 101 523 101 528 c 0
 101 535 110 538 118 542 c 0
 145 555 165 573 165 602 c 0
 165 618 155 631 139 634 c 0
EndSplineSet
EndChar
StartChar: uni1FE5.ctsc
Encoding: 1115476 -1 3314
Width: 470
VWidth: 0
Flags: HW
LayerCount: 3
Fore
SplineSet
195 79 m 2
 195 43 226 32 261 25 c 0
 272 23 285 19 285 9 c 0
 285 1 272 -3 265 -3 c 0
 226 -3 200 3 158 3 c 24
 116 3 89 -3 50 -3 c 0
 43 -3 30 1 30 9 c 0
 30 19 43 23 54 25 c 0
 89 32 120 43 120 79 c 2
 120 352 l 2
 120 393 104 415 62 422 c 0
 50 424 38 431 38 441 c 0
 38 449 51 453 58 453 c 0
 97 453 116 448 151 448 c 0
 179 448 215 453 256 453 c 0
 343 453 425 419 425 331 c 0
 425 241 367 185 277 185 c 0
 263 185 240 193 240 203 c 0
 240 213 262 215 272 215 c 0
 320 215 343 262 343 310 c 0
 343 373 299 424 239 424 c 16
 213 424 195 416 195 395 c 2
 195 79 l 2
-45 349 m 4
 -61 346 -71 333 -71 317 c 4
 -71 288 -51 270 -24 257 c 4
 -16 253 -7 250 -7 243 c 4
 -7 238 -14 233 -27 233 c 4
 -80 233 -123 277 -123 330 c 4
 -123 377 -97 427 -50 427 c 4
 -26 427 -3 412 -3 389 c 4
 -3 366 -22 353 -45 349 c 4
EndSplineSet
Colour: ff00
EndChar
StartChar: uni1FE5.sc
Encoding: 1115355 -1 3192
Width: 470
VWidth: 0
Flags: HW
LayerCount: 3
Fore
SplineSet
195 79 m 2
 195 43 226 32 261 25 c 0
 272 23 285 19 285 9 c 0
 285 1 272 -3 265 -3 c 0
 226 -3 200 3 158 3 c 24
 116 3 89 -3 50 -3 c 0
 43 -3 30 1 30 9 c 0
 30 19 43 23 54 25 c 0
 89 32 120 43 120 79 c 2
 120 352 l 2
 120 393 104 415 62 422 c 0
 50 424 38 431 38 441 c 0
 38 449 51 453 58 453 c 0
 97 453 116 448 151 448 c 4
 179 448 215 453 256 453 c 4
 343 453 425 419 425 331 c 4
 425 241 367 185 277 185 c 4
 263 185 240 193 240 203 c 4
 240 213 262 215 272 215 c 4
 320 215 343 262 343 310 c 4
 343 373 299 424 239 424 c 20
 213 424 195 416 195 395 c 6
 195 79 l 2
175 634 m 0
 159 631 149 618 149 602 c 0
 149 573 169 555 196 542 c 0
 204 538 213 535 213 528 c 0
 213 523 206 518 193 518 c 0
 140 518 97 562 97 615 c 0
 97 662 123 712 170 712 c 0
 194 712 217 697 217 674 c 0
 217 651 198 638 175 634 c 0
EndSplineSet
EndChar
StartChar: uni1FE6.ctsc
Encoding: 1115477 -1 3315
Width: 827
VWidth: 0
Flags: HW
LayerCount: 3
Fore
SplineSet
491 79 m 2
 491 144 l 2
 491 348 424 425 342 425 c 0
 307 425 277 405 265 405 c 0
 258 405 257 408 257 414 c 0
 257 421 304 465 360 465 c 0
 427 465 487 432 524 330 c 0
 527 321 534 326 535 330 c 0
 567 417 637 464 704 464 c 0
 760 464 807 421 807 414 c 0
 807 408 806 405 799 405 c 0
 787 405 756 425 721 425 c 0
 639 425 566 324 566 168 c 2
 566 79 l 2
 566 43 597 32 632 25 c 0
 643 23 656 19 656 9 c 0
 656 1 643 -3 636 -3 c 0
 597 -3 571 3 529 3 c 24
 487 3 460 -3 421 -3 c 0
 414 -3 401 1 401 9 c 0
 401 19 414 23 425 25 c 0
 460 32 491 43 491 79 c 2
27 323 m 0
 17 323 13 328 13 338 c 0
 13 348 58 423 101 423 c 0
 126 423 183 398 208 398 c 0
 237 398 257 424 265 424 c 0
 275 424 281 417 281 407 c 0
 281 397 238 340 196 340 c 0
 171 340 113 364 88 364 c 0
 64 364 35 323 27 323 c 0
EndSplineSet
Colour: ff00
EndChar
StartChar: uni1FE7.sc
Encoding: 1115357 -1 3194
Width: 590
VWidth: 0
Flags: HW
LayerCount: 3
Fore
SplineSet
254 79 m 2
 254 144 l 2
 254 348 187 425 105 425 c 0
 70 425 40 405 28 405 c 0
 21 405 20 408 20 414 c 0
 20 421 67 465 123 465 c 0
 190 465 250 432 287 330 c 0
 290 321 297 326 298 330 c 0
 330 417 400 464 467 464 c 0
 523 464 570 421 570 414 c 0
 570 408 569 405 562 405 c 0
 550 405 519 425 484 425 c 0
 402 425 329 324 329 168 c 2
 329 79 l 2
 329 43 360 32 395 25 c 0
 406 23 419 19 419 9 c 0
 419 1 406 -3 399 -3 c 0
 360 -3 334 3 292 3 c 24
 250 3 223 -3 184 -3 c 0
 177 -3 164 1 164 9 c 0
 164 19 177 23 188 25 c 0
 223 32 254 43 254 79 c 2
386 644 m 0
 411 644 436 619 436 594 c 0
 436 569 411 544 386 544 c 0
 361 544 336 569 336 594 c 0
 336 619 361 644 386 644 c 0
209 644 m 0
 234 644 259 619 259 594 c 0
 259 569 234 544 209 544 c 0
 184 544 159 569 159 594 c 0
 159 619 184 644 209 644 c 0
181 680 m 0
 171 680 167 685 167 695 c 0
 167 705 212 780 255 780 c 0
 280 780 337 755 362 755 c 0
 391 755 411 781 419 781 c 0
 429 781 435 774 435 764 c 0
 435 754 392 697 350 697 c 0
 325 697 267 721 242 721 c 0
 218 721 189 680 181 680 c 0
EndSplineSet
EndChar
StartChar: uni1FF2.ctsc
Encoding: 1115479 -1 3317
Width: 753
VWidth: 0
Flags: HW
LayerCount: 3
Fore
SplineSet
306 73 m 0
 229 118 181 167 181 252 c 0
 181 378 302 464 428 464 c 0
 548 464 667 384 667 264 c 0
 667 173 613 115 540 73 c 0
 534 69 531 61 537 61 c 2
 614 61 l 2
 649 61 664 74 679 96 c 0
 686 105 692 118 702 118 c 0
 706 118 709 115 709 111 c 0
 709 78 694 22 687 8 c 0
 684 2 684 -4 677 -4 c 0
 656 -4 640 0 620 0 c 2
 477 0 l 2
 473 0 471 3 471 7 c 0
 471 26 482 56 491 62 c 0
 531 91 579 166 579 245 c 16
 579 340 515 435 420 435 c 0
 331 435 269 347 269 258 c 8
 269 172 292 111 360 58 c 0
 369 51 373 23 376 7 c 0
 377 4 376 0 371 0 c 2
 227 0 l 2
 207 0 191 -4 170 -4 c 0
 163 -4 162 1 160 8 c 0
 155 29 139 77 139 112 c 0
 139 116 141 119 145 119 c 0
 155 119 157 110 164 101 c 0
 179 79 187 61 223 61 c 2
 305 61 l 2
 310 61 312 69 306 73 c 0
454 -123 m 0
 454 -148 457 -156 471 -156 c 0
 492 -156 507 -142 510 -142 c 0
 519 -142 520 -147 520 -158 c 0
 520 -167 497 -218 447 -218 c 0
 413 -218 388 -186 388 -136 c 0
 388 -90 391 -57 422 -57 c 0
 445 -57 458 -64 458 -83 c 0
 458 -95 454 -107 454 -123 c 0
87 275 m 0
 66 311 16 409 16 419 c 0
 16 435 35 460 54 460 c 0
 62 460 76 454 79 442 c 0
 89 406 120 284 120 266 c 0
 120 257 120 253 111 253 c 0
 103 253 93 265 87 275 c 0
EndSplineSet
Colour: ff00
EndChar
